<?xml version="1.0" encoding="utf-8"?>
<!-- Generator: Adobe Illustrator 16.0.0, SVG Export Plug-In . SVG Version: 6.00 Build 0)  -->
<!DOCTYPE svg PUBLIC "-//W3C//DTD SVG 1.1//EN" "http://www.w3.org/Graphics/SVG/1.1/DTD/svg11.dtd">
<svg version="1.1" id="Layer_1" xmlns="http://www.w3.org/2000/svg" xmlns:xlink="http://www.w3.org/1999/xlink" x="0px" y="0px"
	 width="350px" height="350px" viewBox="0 0 350 350" enable-background="new 0 0 350 350" xml:space="preserve">
<g>
	<g>
		<path fill="#2D3E4F" d="M126.03,301.069c-0.998,0.499-2.994,0.998-5.552,0.998c-5.926,0-10.386-3.742-10.386-10.635
			c0-6.581,4.46-11.041,10.979-11.041c2.62,0,4.272,0.562,4.99,0.936l-0.655,2.214c-1.029-0.498-2.495-0.873-4.242-0.873
			c-4.928,0-8.202,3.15-8.202,8.671c0,5.146,2.963,8.452,8.078,8.452c1.653,0,3.337-0.343,4.429-0.873L126.03,301.069z"/>
		<path fill="#2D3E4F" d="M130.52,294.707c0.062,3.712,2.432,5.24,5.177,5.24c1.965,0,3.149-0.344,4.179-0.78l0.469,1.965
			c-0.967,0.437-2.62,0.936-5.021,0.936c-4.647,0-7.424-3.056-7.424-7.609s2.683-8.141,7.08-8.141c4.928,0,6.238,4.335,6.238,7.111
			c0,0.562-0.063,0.998-0.094,1.278H130.52z M138.565,292.742c0.031-1.746-0.718-4.46-3.805-4.46c-2.776,0-3.992,2.558-4.21,4.46
			H138.565z"/>
		<path fill="#2D3E4F" d="M144.614,291.37c0-1.778-0.031-3.307-0.125-4.71h2.401l0.094,2.963h0.125
			c0.686-2.027,2.339-3.306,4.18-3.306c0.312,0,0.529,0.031,0.779,0.094V289c-0.281-0.063-0.562-0.094-0.936-0.094
			c-1.934,0-3.307,1.466-3.681,3.524c-0.062,0.374-0.124,0.811-0.124,1.278v8.047h-2.714V291.37z"/>
		<path fill="#2D3E4F" d="M158.865,282.325v4.335h3.93v2.09h-3.93v8.141c0,1.871,0.53,2.932,2.059,2.932
			c0.718,0,1.248-0.094,1.591-0.188l0.125,2.059c-0.53,0.219-1.372,0.374-2.433,0.374c-1.279,0-2.309-0.405-2.963-1.153
			c-0.78-0.812-1.061-2.152-1.061-3.93v-8.234h-2.34v-2.09h2.34v-3.617L158.865,282.325z"/>
		<path fill="#2D3E4F" d="M168.938,282.419c0.031,0.936-0.654,1.684-1.746,1.684c-0.967,0-1.653-0.748-1.653-1.684
			c0-0.967,0.718-1.716,1.716-1.716C168.283,280.703,168.938,281.452,168.938,282.419z M165.881,301.756V286.66h2.745v15.096
			H165.881z"/>
		<path fill="#2D3E4F" d="M173.459,301.756V288.75h-2.121v-2.09h2.121v-0.811c0-3.992,2.339-6.581,6.581-6.581
			c1.403,0,3.057,0.437,3.836,0.998l-0.779,2.09c-0.655-0.468-1.841-0.873-3.182-0.873c-2.9,0-3.743,2.027-3.743,4.429v0.748h8.765
			v15.096h-2.714V288.75h-6.051v13.006H173.459z"/>
		<path fill="#2D3E4F" d="M200.248,301.194c-0.718,0.374-2.309,0.873-4.335,0.873c-4.554,0-7.517-3.087-7.517-7.703
			c0-4.647,3.181-8.016,8.108-8.016c1.622,0,3.057,0.405,3.806,0.779l-0.624,2.121c-0.655-0.374-1.685-0.718-3.182-0.718
			c-3.462,0-5.333,2.558-5.333,5.708c0,3.493,2.246,5.646,5.24,5.646c1.559,0,2.588-0.405,3.368-0.749L200.248,301.194z"/>
		<path fill="#2D3E4F" d="M211.817,301.756l-0.219-1.902h-0.094c-0.842,1.185-2.464,2.245-4.615,2.245
			c-3.057,0-4.616-2.151-4.616-4.335c0-3.649,3.243-5.646,9.076-5.614v-0.312c0-1.248-0.344-3.493-3.432-3.493
			c-1.403,0-2.869,0.437-3.93,1.123l-0.623-1.81c1.247-0.811,3.057-1.341,4.959-1.341c4.615,0,5.738,3.15,5.738,6.176v5.645
			c0,1.311,0.063,2.589,0.25,3.618H211.817z M211.412,294.052c-2.994-0.062-6.395,0.468-6.395,3.4c0,1.777,1.186,2.619,2.589,2.619
			c1.965,0,3.213-1.247,3.649-2.526c0.094-0.28,0.156-0.592,0.156-0.873V294.052z"/>
		<path fill="#2D3E4F" d="M221.671,282.325v4.335h3.93v2.09h-3.93v8.141c0,1.871,0.53,2.932,2.059,2.932
			c0.717,0,1.247-0.094,1.591-0.188l0.124,2.059c-0.53,0.219-1.372,0.374-2.433,0.374c-1.278,0-2.308-0.405-2.963-1.153
			c-0.779-0.812-1.061-2.152-1.061-3.93v-8.234h-2.339v-2.09h2.339v-3.617L221.671,282.325z"/>
		<path fill="#2D3E4F" d="M230.028,294.707c0.063,3.712,2.433,5.24,5.178,5.24c1.965,0,3.15-0.344,4.18-0.78l0.468,1.965
			c-0.967,0.437-2.62,0.936-5.021,0.936c-4.647,0-7.423-3.056-7.423-7.609s2.682-8.141,7.079-8.141c4.929,0,6.238,4.335,6.238,7.111
			c0,0.562-0.063,0.998-0.094,1.278H230.028z M238.075,292.742c0.031-1.746-0.717-4.46-3.805-4.46c-2.776,0-3.992,2.558-4.211,4.46
			H238.075z"/>
	</g>
</g>
<g>
	<g>
		<path fill="#5E5E5E" d="M132.83,266.471h-7.074l-2.813-7.316h-12.877l-2.658,7.316h-6.899l12.546-32.212h6.878L132.83,266.471z
			 M120.855,253.727l-4.438-11.953l-4.351,11.953H120.855z"/>
		<path fill="#5E5E5E" d="M151.596,266.471v-3.494c-0.85,1.246-1.967,2.228-3.352,2.945c-1.384,0.717-2.846,1.076-4.383,1.076
			c-1.568,0-2.975-0.345-4.219-1.033c-1.246-0.688-2.146-1.654-2.703-2.9c-0.557-1.244-0.835-2.966-0.835-5.163v-14.766h6.175
			v10.723c0,3.281,0.113,5.292,0.34,6.031c0.227,0.74,0.641,1.326,1.242,1.758c0.6,0.433,1.361,0.648,2.285,0.648
			c1.055,0,1.999-0.289,2.834-0.868c0.835-0.578,1.406-1.296,1.714-2.153c0.308-0.856,0.462-2.955,0.462-6.295v-9.844h6.174v23.335
			H151.596z"/>
		<path fill="#5E5E5E" d="M174.425,243.136v4.922h-4.219v9.404c0,1.904,0.04,3.014,0.121,3.329c0.08,0.314,0.264,0.575,0.549,0.779
			c0.286,0.206,0.634,0.309,1.044,0.309c0.571,0,1.398-0.198,2.482-0.594l0.527,4.79c-1.436,0.615-3.061,0.923-4.877,0.923
			c-1.113,0-2.117-0.187-3.011-0.561c-0.894-0.373-1.549-0.856-1.967-1.45c-0.417-0.593-0.706-1.396-0.868-2.405
			c-0.131-0.718-0.197-2.168-0.197-4.352v-10.173h-2.834v-4.922h2.834V238.5l6.196-3.604v8.239H174.425z"/>
		<path fill="#5E5E5E" d="M184.861,234.259v11.843c1.992-2.328,4.373-3.493,7.142-3.493c1.421,0,2.702,0.264,3.845,0.791
			s2.004,1.201,2.582,2.021c0.579,0.82,0.975,1.729,1.187,2.725c0.213,0.996,0.319,2.542,0.319,4.636v13.689h-6.175v-12.326
			c0-2.446-0.117-4-0.352-4.658c-0.234-0.66-0.648-1.184-1.241-1.571c-0.594-0.389-1.337-0.583-2.23-0.583
			c-1.025,0-1.941,0.25-2.746,0.748c-0.807,0.498-1.396,1.248-1.77,2.252c-0.373,1.003-0.561,2.486-0.561,4.449v11.689h-6.174
			v-32.212H184.861z"/>
		<path fill="#5E5E5E" d="M204.769,254.474c0-2.051,0.505-4.035,1.517-5.954c1.01-1.919,2.442-3.385,4.295-4.395
			c1.854-1.012,3.922-1.517,6.207-1.517c3.53,0,6.424,1.146,8.68,3.438c2.256,2.293,3.384,5.189,3.384,8.69
			c0,3.53-1.139,6.456-3.417,8.778c-2.277,2.321-5.146,3.482-8.602,3.482c-2.14,0-4.179-0.483-6.12-1.45
			c-1.94-0.967-3.417-2.384-4.427-4.252C205.273,259.429,204.769,257.154,204.769,254.474z M211.097,254.803
			c0,2.315,0.55,4.088,1.647,5.318c1.1,1.23,2.454,1.846,4.065,1.846s2.963-0.615,4.054-1.846c1.092-1.23,1.637-3.018,1.637-5.361
			c0-2.285-0.545-4.043-1.637-5.273c-1.091-1.23-2.442-1.846-4.054-1.846s-2.966,0.615-4.065,1.846
			C211.646,250.717,211.097,252.489,211.097,254.803z"/>
		<path fill="#5E5E5E" d="M239.596,266.471h-6.174v-23.335h5.734v3.317c0.981-1.566,1.864-2.6,2.647-3.098
			c0.784-0.498,1.674-0.747,2.67-0.747c1.406,0,2.761,0.389,4.065,1.165l-1.912,5.383c-1.04-0.674-2.007-1.011-2.9-1.011
			c-0.864,0-1.597,0.238-2.197,0.714c-0.601,0.477-1.073,1.337-1.417,2.582c-0.345,1.245-0.517,3.853-0.517,7.822V266.471z"/>
	</g>
</g>
<path fill="#EAB236" d="M260.269,193.51l-26.688-26.699l-1.35,9.006c-0.638,4.146-2.942,7.973-6.346,10.423
	c-3.378,2.463-7.602,3.51-11.813,2.821l-14.914-2.437c-1.232-0.081-1.974,0.265-2.519,0.82l-2.541,2.558l34.858,34.844
	c1.353,1.353,3.298,1.828,5.101,1.284c1.8-0.568,3.124-2.066,3.495-3.932l3.139-16.914l16.967-3.179
	c1.854-0.344,3.35-1.68,3.894-3.497C262.108,196.796,261.605,194.821,260.269,193.51z"/>
<path fill="#EAB236" d="M150.924,186.557l-15.364,2.504c-4.304,0.661-8.477-0.371-11.865-2.861
	c-3.379-2.437-5.683-6.251-6.317-10.423l-1.353-8.966L89.35,193.51c-1.324,1.326-1.813,3.286-1.27,5.087
	c0.568,1.813,2.078,3.125,3.906,3.496l16.952,3.164l3.179,16.941c0.344,1.865,1.682,3.363,3.483,3.932
	c1.788,0.544,3.749,0.068,5.073-1.27l34.846-34.858l-2.543-2.57C152.42,186.863,151.678,186.557,150.924,186.557z"/>
<path fill="#EAB236" d="M200.179,180.358l14.898,2.41c2.492,0.396,5.035-0.212,7.073-1.709c2.014-1.456,3.419-3.708,3.789-6.21
	l2.238-14.874c0.45-2.993,2.315-5.535,5.019-6.899l13.47-6.729c2.278-1.151,3.987-3.125,4.755-5.521
	c0.794-2.424,0.543-5.02-0.597-7.272l-6.94-13.417c-1.363-2.622-1.363-5.815,0-8.463l6.94-13.405c1.14-2.25,1.379-4.847,0.597-7.27
	c-0.782-2.411-2.489-4.371-4.755-5.523l-13.47-6.729c-2.703-1.365-4.568-3.906-5.019-6.899l-2.238-14.873
	c-0.37-2.504-1.775-4.742-3.789-6.199c-2.038-1.511-4.581-2.12-7.073-1.708l-14.898,2.489c-2.953,0.49-5.946-0.489-8.065-2.621
	l-10.582-10.755c-1.788-1.788-4.185-2.794-6.729-2.794c-2.503,0-4.953,1.02-6.729,2.794l-10.581,10.755
	c-2.104,2.145-5.112,3.111-8.067,2.621l-14.873-2.45c-2.49-0.41-5.031,0.2-7.085,1.709c-2.026,1.456-3.417,3.694-3.788,6.197
	l-2.225,14.874c-0.463,2.994-2.318,5.537-5.02,6.9l-13.482,6.727c-2.24,1.153-3.974,3.113-4.74,5.524
	c-0.783,2.423-0.561,5.019,0.582,7.271l6.939,13.402c1.376,2.636,1.376,5.828,0,8.464l-6.939,13.415
	c-1.143,2.253-1.365,4.847-0.582,7.271c0.778,2.398,2.488,4.372,4.74,5.523l13.482,6.729c2.701,1.363,4.557,3.907,5.02,6.9
	l2.225,14.874c0.371,2.49,1.762,4.74,3.788,6.21c2.038,1.499,4.582,2.108,7.085,1.709l14.873-2.45
	c2.955-0.516,5.963,0.477,8.067,2.61l10.581,10.727c1.789,1.827,4.213,2.834,6.729,2.834c2.528,0,4.952-1.007,6.729-2.834
	l10.582-10.727C194.232,180.835,197.238,179.843,200.179,180.358z M174.773,171.509c-30.953,0-56.137-25.182-56.137-56.14
	c0-30.953,25.184-56.134,56.137-56.134c30.954,0,56.139,25.181,56.141,56.134C230.914,146.327,205.728,171.509,174.773,171.509z"/>
<path fill="#EAB236" d="M130.168,133.023c2.571-1.084,5.421-2.342,7.986-3.394c0.731-0.199,1.464-0.399,2.195-0.599
	c0.874-0.601,1.729-2.599,2.197-3.593l1.039-0.254c-0.235-1.312-1.049-1.412-1.387-2.342c-0.134-1.397-0.266-2.795-0.398-4.192
	c0.005,0.066-0.957-0.176-1.082-0.254c-1.357-0.85-1.384-4.3-1.514-5.735c-0.061-0.657,0.852-1.194,0.598-2.396
	c-1.485-7.041,0.643-11.802,4.009-12.896c2.336-0.945,6.697-2.701,10.766-0.199l1.009,0.936l1.587,0.272
	c0.121,1.144,0.306,2.337,0.568,3.583c-0.039,0.085-0.116,0.227-0.175,0.335c-0.308,0.561-0.82,1.498-0.708,2.736
	c0.023,0.26,0.044,0.568,0.067,0.911c0.186,2.72,0.463,6.7,2.686,8.749c-0.039,0.392-0.098,0.771-0.158,1.111
	c-0.115,0.634-0.361,1.539-0.732,2.057c-0.409,0.571-1.229,0.576-1.591,1.242c-0.522,0.958-0.228,2.304-0.557,3.34
	c-0.374,1.174-1.326,1.258-1.398,2.795c0.468,0.066,0.932,0.133,1.398,0.199c0.084,0.178,0.181,0.39,0.286,0.62
	c-2.12,0.875-4.379,1.844-6.567,2.785c-1.487,0.639-2.963,1.274-4.377,1.87c-0.644,0.272-1.34,0.513-2.075,0.768
	c-2.914,1.008-6.541,2.265-7.916,6.252l-0.156,0.453v0.478c0,0.707-0.022,1.761-0.05,2.924l2.856-0.061
	c0.027-1.159,0.048-2.182,0.048-2.902c1.188-3.442,5.117-3.937,8.401-5.321c3.607-1.52,7.605-3.286,11.204-4.762
	c1.027-0.28,2.055-0.56,3.08-0.841c1.228-0.843,2.428-3.646,3.083-5.041l1.458-0.354c-0.331-1.84-1.471-1.984-1.946-3.288
	c-0.187-1.959-0.373-3.921-0.559-5.882c0.008,0.093-1.341-0.245-1.519-0.355c-1.902-1.194-1.941-6.034-2.124-8.046
	c-0.084-0.921,1.195-1.675,0.84-3.362c-2.084-9.879,0.902-16.558,5.624-18.091c3.276-1.328,9.396-3.791,15.103-0.279l1.416,1.312
	l2.293,0.395c1.148,0.664,1.883,2.866,1.883,2.866c0.604,2.432,0.663,4.689,0.608,7.185c-0.022,0.963-0.575,5.412-0.426,6.776
	c0.123,1.125,0.404,1.214,0.849,2.142c0.772,1.614,0.514,3.84,0.218,5.467c-0.162,0.891-0.506,2.159-1.026,2.885
	c-0.575,0.801-1.724,0.807-2.233,1.741c-0.733,1.346-0.318,3.235-0.78,4.688c-0.524,1.648-1.86,1.764-1.962,3.921
	c0.656,0.094,1.309,0.187,1.962,0.28c0.655,1.394,1.855,4.197,3.082,5.041c1.026,0.281,2.053,0.561,3.08,0.841
	c3.598,1.476,7.598,3.242,11.204,4.762c3.283,1.385,7.215,1.879,8.402,5.321c0,0.378,0.006,0.846,0.016,1.367l2.854-0.062
	c-0.009-0.48-0.015-0.923-0.015-1.267v-0.478l-0.156-0.453c-1.375-3.988-5.003-5.244-7.916-6.252
	c-0.736-0.255-1.432-0.496-2.076-0.768c-1.417-0.597-2.894-1.232-4.385-1.874c-2.201-0.947-4.473-1.921-6.604-2.801
	c0.104-0.221,0.197-0.427,0.278-0.6l1.039-0.254c-0.234-1.312-1.048-1.412-1.387-2.342c-0.132-1.397-0.266-2.795-0.397-4.192
	c0.004,0.066-0.956-0.176-1.083-0.254c-0.912-0.572-1.223-2.322-1.367-3.842c0.264-0.223,0.526-0.49,0.765-0.822
	c0.909-1.27,1.34-3.074,1.515-4.037c0.355-1.951,0.693-4.819-0.451-7.211c-0.184-0.384-0.347-0.663-0.466-0.867
	c-0.032-0.055-0.064-0.106-0.092-0.158c-0.006-0.03-0.018-0.091-0.028-0.195c-0.021-0.2-0.013-0.589,0.014-1.065
	c0.794-1.435,1.905-2.41,3.205-2.831c2.334-0.945,6.697-2.701,10.764-0.199l1.012,0.936l1.632,0.281
	c0.819,0.473,1.344,2.043,1.344,2.043c0.43,1.733,0.473,3.342,0.433,5.122c-0.017,0.687-0.41,3.857-0.302,4.83
	c0.087,0.801,0.287,0.865,0.603,1.525c0.553,1.151,0.368,2.738,0.157,3.897c-0.116,0.634-0.36,1.539-0.732,2.057
	c-0.409,0.571-1.229,0.576-1.592,1.242c-0.522,0.958-0.227,2.304-0.557,3.34c-0.374,1.174-1.325,1.258-1.397,2.795
	c0.467,0.066,0.933,0.133,1.397,0.199c0.469,0.994,1.322,2.992,2.196,3.593c0.732,0.2,1.465,0.4,2.197,0.599
	c2.564,1.052,5.415,2.31,7.984,3.394c2.058,0.867,4.469,1.247,5.598,2.99c2.665-6.357,4.143-13.332,4.143-20.645
	c0-29.533-24.027-53.561-53.561-53.561c-29.535,0-53.564,24.028-53.564,53.561c0,7.182,1.431,14.033,4.006,20.297
	C126.07,134.229,128.264,133.827,130.168,133.023z"/>
</svg>
