<?xml version="1.0" encoding="utf-8"?>
<!-- Generator: Adobe Illustrator 16.0.0, SVG Export Plug-In . SVG Version: 6.00 Build 0)  -->
<!DOCTYPE svg PUBLIC "-//W3C//DTD SVG 1.1//EN" "http://www.w3.org/Graphics/SVG/1.1/DTD/svg11.dtd">
<svg version="1.1" id="Layer_1" xmlns="http://www.w3.org/2000/svg" xmlns:xlink="http://www.w3.org/1999/xlink" x="0px" y="0px"
	 width="350px" height="350px" viewBox="0 0 350 350" enable-background="new 0 0 350 350" xml:space="preserve">
<g>
	<path fill="#7C008C" d="M233.581,156.811l-1.351,9.005c-0.639,4.146-2.941,7.974-6.347,10.424c-3.378,2.463-7.602,3.51-11.813,2.82
		l-14.913-2.438c-1.232-0.081-1.976,0.266-2.521,0.818l-2.541,2.56l34.858,34.845c1.353,1.354,3.298,1.827,5.101,1.283
		c1.801-0.566,3.125-2.064,3.495-3.932l3.14-16.914l16.968-3.18c1.854-0.345,3.35-1.681,3.894-3.498
		c0.557-1.813,0.055-3.787-1.283-5.099L233.581,156.811z"/>
	<path fill="#7C008C" d="M150.923,176.557l-15.363,2.504c-4.305,0.662-8.477-0.371-11.865-2.859
		c-3.379-2.437-5.684-6.251-6.317-10.423l-1.353-8.966L89.349,183.51c-1.322,1.326-1.813,3.286-1.269,5.088
		c0.568,1.813,2.078,3.125,3.905,3.495l16.954,3.164l3.178,16.941c0.345,1.864,1.683,3.362,3.484,3.932
		c1.788,0.544,3.748,0.068,5.071-1.271l34.847-34.857l-2.543-2.57C152.419,176.863,151.678,176.557,150.923,176.557z"/>
	<path fill="#7C008C" d="M200.18,170.357l14.897,2.41c2.491,0.396,5.034-0.211,7.073-1.709c2.014-1.455,3.418-3.707,3.789-6.209
		l2.236-14.874c0.45-2.993,2.316-5.535,5.02-6.899l13.471-6.729c2.277-1.151,3.986-3.125,4.755-5.521
		c0.794-2.424,0.543-5.02-0.597-7.272l-6.94-13.417c-1.362-2.622-1.362-5.815,0-8.463l6.94-13.405c1.14-2.25,1.379-4.847,0.597-7.27
		c-0.782-2.411-2.489-4.371-4.755-5.523l-13.471-6.729c-2.701-1.365-4.567-3.906-5.02-6.899l-2.236-14.873
		c-0.371-2.504-1.775-4.742-3.789-6.199c-2.039-1.511-4.582-2.12-7.073-1.708l-14.897,2.489c-2.953,0.49-5.947-0.489-8.064-2.621
		l-10.582-10.755c-1.788-1.788-4.186-2.794-6.729-2.794c-2.503,0-4.953,1.02-6.729,2.794l-10.582,10.755
		c-2.104,2.145-5.112,3.111-8.066,2.621l-14.874-2.45c-2.488-0.41-5.03,0.2-7.084,1.709c-2.026,1.456-3.418,3.694-3.789,6.197
		l-2.224,14.874c-0.463,2.994-2.318,5.537-5.02,6.9l-13.483,6.727c-2.239,1.153-3.973,3.113-4.739,5.524
		c-0.783,2.423-0.56,5.019,0.582,7.271l6.938,13.402c1.378,2.636,1.378,5.828,0,8.464l-6.938,13.415
		c-1.142,2.253-1.365,4.847-0.582,7.271c0.778,2.398,2.487,4.372,4.739,5.523l13.483,6.729c2.701,1.363,4.557,3.907,5.02,6.9
		l2.224,14.874c0.371,2.49,1.763,4.74,3.789,6.211c2.038,1.498,4.582,2.107,7.084,1.709l14.874-2.451
		c2.954-0.516,5.963,0.478,8.066,2.61l10.582,10.728c1.789,1.826,4.213,2.834,6.729,2.834c2.528,0,4.953-1.008,6.729-2.834
		l10.582-10.728C194.232,170.835,197.238,169.843,200.18,170.357z M174.774,161.509c-30.953,0-56.138-25.182-56.138-56.14
		c0-30.953,25.185-56.134,56.138-56.134c30.953,0,56.138,25.181,56.14,56.134C230.914,136.327,205.729,161.509,174.774,161.509z"/>
	<path fill="#7C008C" d="M174.416,51.808c-29.535,0-53.564,24.028-53.564,53.561c0,29.536,24.029,53.566,53.564,53.566
		c29.533,0,53.561-24.03,53.561-53.566C227.977,75.836,203.949,51.808,174.416,51.808z M174.416,153.578
		c-26.582,0-48.208-21.627-48.208-48.209c0-26.58,21.626-48.205,48.208-48.205c26.58,0,48.204,21.625,48.204,48.205
		C222.62,131.951,200.996,153.578,174.416,153.578z"/>
	<path fill="#7C008C" d="M84.119,252.225c-1.361,1.133-3.023,1.699-4.986,1.699c-1.614,0-3.114-0.416-4.499-1.246
		c-1.385-0.832-2.406-2.088-3.063-3.768c-0.656-1.682-0.984-3.646-0.984-5.898c0-1.746,0.277-3.441,0.831-5.086
		s1.515-2.953,2.882-3.93c1.366-0.977,3.068-1.463,5.104-1.463c1.771,0,3.24,0.439,4.408,1.318s2.06,2.28,2.674,4.209l3.45-0.813
		c-0.71-2.445-1.969-4.342-3.775-5.69c-1.807-1.35-4.035-2.022-6.685-2.022c-2.337,0-4.478,0.532-6.423,1.6
		c-1.945,1.065-3.444,2.626-4.498,4.681c-1.055,2.054-1.581,4.459-1.581,7.218c0,2.528,0.467,4.896,1.4,7.1
		c0.933,2.205,2.294,3.888,4.083,5.05c1.788,1.164,4.109,1.743,6.965,1.743c2.758,0,5.091-0.755,7-2.267
		c1.909-1.512,3.231-3.707,3.966-6.585l-3.505-0.886C86.401,249.413,85.479,251.093,84.119,252.225z"/>
	<path fill="#7C008C" d="M112.447,236.852c-2.65,0-4.807,0.893-6.469,2.674s-2.492,4.287-2.492,7.517
		c0,3.119,0.821,5.544,2.466,7.271c1.644,1.729,3.869,2.592,6.675,2.592c2.229,0,4.06-0.54,5.492-1.625
		c1.434-1.084,2.415-2.606,2.945-4.57l-3.36-0.415c-0.494,1.373-1.162,2.373-2.005,2.999c-0.844,0.626-1.861,0.938-3.054,0.938
		c-1.602,0-2.938-0.561-4.011-1.68c-1.072-1.121-1.668-2.734-1.789-4.842h14.309c0.013-0.387,0.019-0.675,0.019-0.867
		c0-3.168-0.813-5.625-2.438-7.371C117.107,237.725,115.012,236.852,112.447,236.852z M107.027,245.035
		c0.107-1.676,0.671-3.012,1.688-4.012c1.018-1,2.273-1.5,3.767-1.5c1.65,0,2.993,0.627,4.029,1.879
		c0.675,0.808,1.084,2.019,1.229,3.633H107.027z"/>
	<path fill="#7C008C" d="M140.387,237.501c-0.633,0.435-1.322,1.331-2.068,2.692v-2.909h-2.928v19.187h3.252v-10.045
		c0-1.373,0.182-2.638,0.543-3.794c0.24-0.759,0.644-1.353,1.21-1.778c0.566-0.428,1.204-0.643,1.915-0.643
		c0.795,0,1.59,0.234,2.385,0.705l1.12-3.018c-1.132-0.698-2.246-1.049-3.343-1.049
		C141.715,236.852,141.019,237.066,140.387,237.501z"/>
	<path fill="#7C008C" d="M163.701,253.688c-0.481,0-0.852-0.078-1.11-0.233c-0.26-0.156-0.446-0.367-0.561-0.632
		c-0.115-0.266-0.171-0.861-0.171-1.788v-11.222h3.27v-2.527h-3.27v-6.702l-3.234,1.951v4.751h-2.385v2.527h2.385v11.039
		c0,1.951,0.133,3.23,0.397,3.84c0.264,0.608,0.723,1.1,1.373,1.474c0.65,0.373,1.565,0.562,2.746,0.562
		c0.723,0,1.542-0.099,2.457-0.289l-0.47-2.873C164.539,253.646,164.063,253.688,163.701,253.688z"/>
	<rect x="178.605" y="237.284" fill="#7C008C" width="3.252" height="19.187"/>
	<rect x="178.605" y="229.984" fill="#7C008C" width="3.252" height="3.74"/>
	<path fill="#7C008C" d="M199.859,230.318c-0.789,0.523-1.34,1.209-1.652,2.052c-0.229,0.626-0.344,1.584-0.344,2.872v2.042h-2.871
		v2.528h2.871v16.656h3.234v-16.656h3.738v-2.528h-3.738v-1.771c0-1.156,0.203-1.945,0.613-2.367
		c0.409-0.422,1.105-0.633,2.098-0.633c0.602,0,1.238,0.062,1.914,0.182l0.486-2.836c-1.107-0.217-2.12-0.326-3.035-0.326
		C201.755,229.533,200.648,229.796,199.859,230.318z"/>
	<rect x="217.666" y="229.984" fill="#7C008C" width="3.252" height="3.74"/>
	<rect x="217.666" y="237.284" fill="#7C008C" width="3.252" height="19.187"/>
	<path fill="#7C008C" d="M244.025,236.852c-2.65,0-4.809,0.893-6.469,2.674c-1.662,1.781-2.492,4.287-2.492,7.517
		c0,3.119,0.819,5.544,2.465,7.271c1.645,1.729,3.869,2.592,6.676,2.592c2.229,0,4.061-0.54,5.492-1.625
		c1.434-1.084,2.414-2.606,2.945-4.57l-3.36-0.415c-0.494,1.373-1.162,2.373-2.005,2.999c-0.844,0.626-1.861,0.938-3.055,0.938
		c-1.603,0-2.938-0.561-4.012-1.68c-1.07-1.121-1.668-2.734-1.789-4.842h14.311c0.013-0.387,0.019-0.675,0.019-0.867
		c0-3.168-0.813-5.625-2.438-7.371C248.686,237.725,246.59,236.852,244.025,236.852z M238.605,245.035
		c0.105-1.676,0.67-3.012,1.688-4.012s2.273-1.5,3.768-1.5c1.649,0,2.992,0.627,4.028,1.879c0.675,0.808,1.084,2.019,1.229,3.633
		H238.605z"/>
	<path fill="#7C008C" d="M279.236,229.984v9.504c-0.566-0.783-1.301-1.418-2.204-1.906c-0.903-0.486-1.933-0.73-3.089-0.73
		c-1.578,0-3.006,0.414-4.282,1.246c-1.276,0.83-2.234,2.026-2.872,3.586c-0.639,1.562-0.958,3.297-0.958,5.213
		c0,1.963,0.353,3.701,1.058,5.211c0.704,1.514,1.697,2.689,2.98,3.533c1.281,0.842,2.688,1.266,4.219,1.266
		c2.359,0,4.148-0.951,5.365-2.854v2.423h3.018v-26.486h-3.234V229.984L279.236,229.984z M278.018,252.486
		c-0.994,1.162-2.201,1.744-3.623,1.744c-1.408,0-2.631-0.608-3.668-1.824c-1.035-1.217-1.553-3.055-1.553-5.512
		c0-2.541,0.484-4.401,1.454-5.582c0.97-1.182,2.177-1.771,3.622-1.771c1.48,0,2.729,0.613,3.74,1.842
		c1.011,1.229,1.518,3.156,1.518,5.781C279.508,249.551,279.011,251.325,278.018,252.486z"/>
	<path fill="#7C008C" d="M139.184,106.647c-0.079-0.183-0.026-0.417-0.07-0.619c-0.126-0.57-0.271-1.138-0.413-1.705
		c-0.068-0.268-0.142-0.535-0.212-0.804c-0.043,0.005-0.085,0.01-0.125,0.015c0.008,0.204,0,0.41,0.032,0.608
		c0.091,0.582,0.135,1.181,0.321,1.731c0.159,0.472,0.222,0.937,0.27,1.419c0.021,0.209,0.109,0.419,0.193,0.618
		c0.084,0.209,0.261,0.4,0.293,0.611c0.122,0.843,0.863,1.215,1.348,1.791c-0.103-0.301-0.234-0.598-0.304-0.907
		c-0.116-0.513-0.353-0.955-0.637-1.393C139.601,107.586,139.386,107.116,139.184,106.647z"/>
	<path fill="#7C008C" d="M139.409,93.823c0.451-0.146,0.409-0.571,0.599-0.865c-0.021-0.011-0.041-0.022-0.062-0.034
		C139.766,93.222,139.587,93.521,139.409,93.823z"/>
	<path fill="#7C008C" d="M141.807,95.593c-0.091,0.34-0.228,0.668-0.299,1.011c-0.127,0.601,0.276,0.926,0.861,0.713
		c0.146-0.054,0.387-0.146,0.392-0.229c0.016-0.363-0.016-0.733-0.078-1.091c-0.042-0.245-0.231-0.476-0.237-0.716
		c-0.012-0.547,0.129-1.108-0.262-1.59c-0.011-0.014-0.015-0.037-0.021-0.055c-0.097-0.365,0.155-1.095,0.481-1.299
		c0.29-0.182,0.34-0.451,0.377-0.738c-0.024-0.023-0.048-0.048-0.073-0.071c-0.183,0.104-0.399,0.178-0.542,0.323
		c-0.302,0.305-0.576,0.641-0.841,0.98c-0.101,0.131-0.184,0.302-0.199,0.462c-0.069,0.698,0.11,1.348,0.416,1.973
		C141.829,95.358,141.833,95.492,141.807,95.593z"/>
	<path fill="#7C008C" d="M188.657,97.209c0.101,0.143,0.192,0.274,0.315,0.453C188.977,97.185,188.939,97.136,188.657,97.209z"/>
	<path fill="#7C008C" d="M149.941,77.939c0.125-0.036,0.208-0.25,0.29-0.394c0.058-0.103,0.08-0.225,0.118-0.338
		c-0.082,0.038-0.163,0.077-0.244,0.116c-0.477,0.417-0.943,0.844-1.398,1.284l0,0C149.179,78.473,149.476,78.072,149.941,77.939z"
		/>
	<path fill="#7C008C" d="M174.755,68.071c-9.266,0-17.741,3.368-24.285,8.937c-0.005,0.035-0.01,0.069-0.014,0.101
		c0.18-0.023,0.36-0.081,0.535-0.065c0.261,0.023,0.517,0.096,0.834,0.162c0.154-0.128,0.144-0.216-0.153-0.366
		c0.799-1.022,1.888-1.7,2.817-2.557c0.024,0.025,0.049,0.05,0.075,0.075c-0.063,0.071-0.126,0.144-0.144,0.163
		c0,0.13,0.028,0.236-0.003,0.257c-0.464,0.313-0.645,0.836-0.954,1.262c-0.146,0.202-0.272,0.391-0.33,0.663
		c-0.064,0.301-0.337,0.564-0.541,0.828c-0.165,0.216-0.363,0.407-0.521,0.628c0.739-0.427,1.1-1.177,1.528-1.83
		c-0.017,0.002-0.095,0.014-0.244,0.033c0.131-0.178,0.233-0.298,0.314-0.431c0.107-0.168,0.185-0.355,0.297-0.519
		c0.096-0.138,0.223-0.255,0.34-0.38c0.204-0.22,0.407-0.438,0.616-0.652c0.049-0.05,0.117-0.078,0.218-0.082
		c-0.073,0.139-0.143,0.279-0.216,0.418c0.008,0.014,0.016,0.027,0.024,0.043c0.127-0.096,0.271-0.177,0.38-0.291
		c0.309-0.317,0.594-0.374,1.004-0.217c0.081,0.031,0.208-0.047,0.312-0.075c-0.006-0.033-0.014-0.064-0.021-0.095
		c-0.084-0.021-0.169-0.04-0.242-0.055c0.085-0.549,0.535-0.703,0.958-0.881c0.322-0.137,0.65-0.267,0.967-0.397
		c-0.056-0.067-0.132-0.122-0.124-0.153c0.017-0.063,0.071-0.137,0.127-0.162c0.6-0.263,1.202-0.52,1.805-0.775
		c0.332-0.141,0.662-0.284,1-0.409c0.389-0.145,0.794-0.256,1.18-0.409c0.173-0.068,0.312-0.217,0.477-0.309
		c0.365-0.203,0.733-0.4,1.11-0.581c0.079-0.037,0.237-0.092,0.269,0.12c0.004,0.034,0.282,0.056,0.426,0.034
		c0.331-0.051,0.645-0.271,0.995-0.098c0.11,0.055,0.208,0.136,0.312,0.206c-0.069,0.096-0.116,0.224-0.208,0.284
		c-0.495,0.328-0.999,0.639-1.501,0.956c0.009,0.022,0.019,0.043,0.028,0.063c0.183-0.092,0.368-0.178,0.547-0.277
		c0.109-0.063,0.198-0.19,0.309-0.204c0.331-0.045,0.671-0.033,1.004-0.076c0.389-0.047,0.771-0.134,1.158-0.188
		c0.084-0.012,0.181,0.038,0.271,0.066c0.041,0.012,0.08,0.059,0.119,0.056c0.436-0.039,0.87-0.085,1.306-0.131
		c-0.038-0.276,0.101-0.42,0.323-0.396c0.123,0.013,0.252,0.043,0.371,0.026c0.661-0.097,1.196,0.176,1.708,0.54
		c0.354,0.251,0.635,0.311,1.019,0.227c-0.045-0.104-0.09-0.204-0.126-0.286c0.689-0.067,1.378-0.136,2.148-0.212
		c-0.178-0.126-0.291-0.205-0.402-0.284c0.052-0.094,0.101-0.183,0.171-0.311c0.213,0,0.489,0.001,0.764,0
		c0.622-0.005,1.247-0.025,1.868-0.008c0.162,0.004,0.317,0.129,0.48,0.189c0.158,0.056,0.322,0.103,0.488,0.145
		c0.055,0.014,0.131-0.019,0.17,0.009c0.472,0.332,0.959,0.087,1.438,0.047c0.693-0.059,1.324,0.09,1.906,0.482
		c0.119,0.081,0.309,0.097,0.463,0.092c0.398-0.009,0.802-0.048,1.222-0.077c-0.026-0.054-0.062-0.12-0.095-0.185
		c0.01-0.021,0.021-0.04,0.033-0.059c0.553,0.233,1.104,0.468,1.656,0.702c0.02-0.038,0.037-0.075,0.056-0.111
		c-0.431-0.188-0.86-0.375-1.288-0.564c0.01-0.041,0.021-0.081,0.033-0.122c0.547,0.078,1.102,0.118,1.637,0.245
		c0.83,0.196,1.646,0.456,2.469,0.685c0.346,0.097,0.709,0.142,1.028,0.287c0.409,0.187,0.78,0.454,1.175,0.682
		c0.331,0.191,0.665,0.376,0.997,0.561c0.122,0.069,0.245,0.135,0.365,0.202c-0.011,0.026-0.023,0.053-0.034,0.08
		c-0.342-0.112-0.686-0.224-1.105-0.359c0.09,0.116,0.137,0.203,0.205,0.261c0.248,0.203,0.512,0.387,0.754,0.594
		c0.049,0.043,0.032,0.158,0.059,0.292c0.793,0.482,1.65,0.996,2.422,1.628c-0.012,0.026-0.023,0.052-0.036,0.079
		c-0.153-0.04-0.31-0.078-0.505-0.125c0.009,0.812,0.68,1.244,0.993,1.854c-0.021,0.018-0.039,0.035-0.06,0.052
		c-0.147-0.094-0.295-0.189-0.447-0.281c-0.101-0.06-0.194-0.125-0.301-0.166c-0.229-0.088-0.312-0.021-0.274,0.212
		c0.01,0.073,0.028,0.144,0.057,0.275c-0.17-0.084-0.292-0.146-0.37-0.187c-0.168,0.078-0.305,0.145-0.447,0.213
		c-0.002,0.008-0.019,0.033-0.01,0.044c0.271,0.399,0.525,0.811,0.823,1.191c0.104,0.135,0.315,0.19,0.474,0.287
		c0.183,0.112,0.408,0.194,0.521,0.355c0.154,0.222,0.296,0.424,0.533,0.575c0.188,0.12,0.322,0.317,0.499,0.499
		c-0.271,0.178-0.144,0.346-0.011,0.483c0.17,0.18,0.369,0.335,0.549,0.504c0.082,0.077,0.152,0.165,0.226,0.245
		c-0.313,0.307-0.317,0.523-0.032,0.92c0.107,0.156,0.285,0.295,0.068,0.513c-0.045,0.042,0.011,0.222,0.063,0.315
		c0.219,0.39,0.336,0.778,0.162,1.228c-0.056,0.133,0.039,0.318,0.019,0.473c-0.013,0.089-0.117,0.167-0.181,0.252
		c-0.078-0.076-0.181-0.136-0.229-0.227c-0.069-0.128-0.104-0.278-0.163-0.442c0.105-0.01,0.229-0.022,0.405-0.042
		c-0.377-0.428-0.729-0.825-1.079-1.221c-0.932-1.051-1.869-2.096-2.783-3.159c-0.146-0.168-0.181-0.428-0.29-0.631
		c-0.1-0.186-0.229-0.354-0.36-0.553c0.313-0.199,0.17-0.466,0.063-0.753c-0.162-0.436-0.286-0.886-0.42-1.331
		c-0.016-0.048,0.006-0.111,0.023-0.164c0.117-0.374-0.238-0.742-0.645-0.663c0.027,0.191,0.057,0.381,0.096,0.637
		c-0.367-0.11-0.615-0.26-0.793-0.525c-0.154-0.231-0.729-0.379-0.962-0.235c-0.046,0.027-0.067,0.146-0.054,0.212
		c0.084,0.339,0.169,0.681,0.284,1.01c0.046,0.135,0.161,0.252,0.265,0.357c0.105,0.111,0.236,0.2,0.355,0.297
		c-0.141,0.068-0.279,0.131-0.418,0.204c-0.357,0.188-0.701,0.153-1.063-0.065c0.03-0.049,0.062-0.096,0.14-0.22
		c-0.373-0.056-0.715-0.107-1.054-0.156c-0.021-0.003-0.063,0.023-0.067,0.041c-0.07,0.324-0.324,0.217-0.531,0.229
		c-0.535,0.028-1.069,0.042-1.604,0.095c-0.348,0.035-0.353,0.121-0.375,0.466c-0.025,0.42-0.15,0.835-0.185,1.254
		c-0.04,0.498-0.254,0.905-0.538,1.297c-0.055,0.072-0.027,0.2-0.04,0.302c0.122-0.019,0.296,0.005,0.358-0.067
		c0.18-0.203,0.396-0.233,0.627-0.193c0.115,0.019,0.215,0.132,0.32,0.202c-0.065,0.073-0.14,0.139-0.197,0.218
		c-0.049,0.066-0.082,0.146-0.096,0.263c0.269-0.249,0.414-0.174,0.529,0.105c0.02,0.04,0.188,0.077,0.215,0.048
		c0.287-0.316,0.604-0.155,0.896-0.046c0.25,0.091,0.474,0.261,0.723,0.361c0.113,0.047,0.26,0.014,0.393,0.019
		c-0.039-0.115-0.072-0.231-0.115-0.344c-0.018-0.042-0.047-0.076-0.045-0.197c0.121,0.029,0.275,0.021,0.355,0.095
		c0.35,0.313,0.787,0.595,0.986,0.989c0.52,1.011,1.482,1.601,2.16,2.451c0.188,0.234,0.406,0.447,0.607,0.668
		c-0.016,0.026-0.031,0.052-0.048,0.078c-0.122-0.067-0.237-0.146-0.366-0.194c-0.089-0.034-0.193-0.026-0.293-0.038
		c0.014,0.087,0.024,0.176,0.033,0.263c0.087,0.673,0.566,1.074,1.023,1.498c0.13,0.12,0.205,0.293,0.309,0.443
		c-0.029,0.032-0.059,0.064-0.089,0.097c-0.157-0.075-0.317-0.149-0.44-0.207c-0.119,0.107-0.287,0.278-0.303,0.266
		c-0.169-0.141-0.361-0.284-0.459-0.472c-0.175-0.335-0.25-0.722-0.438-1.05c-0.383-0.674-0.806-1.329-1.226-1.982
		c-0.146-0.229-0.327-0.439-0.512-0.641c-0.075-0.082-0.203-0.111-0.369-0.194c0.046,0.482,0.202,0.829,0.454,1.155
		c0.214,0.275,0.395,0.58,0.564,0.883c0.058,0.101,0.088,0.243,0.069,0.358c-0.065,0.489-0.116,0.984-0.249,1.459
		c-0.133,0.489-0.34,0.959-0.533,1.431c-0.121,0.289-0.255,0.574-0.416,0.842c-0.303,0.496-0.67,0.62-1.197,0.385
		c-0.267-0.117-0.469-0.13-0.646,0.123c-0.037,0.054-0.09,0.104-0.147,0.135c-0.355,0.195-0.428,0.446-0.271,0.833
		c0.059,0.144-0.068,0.399-0.175,0.563c-0.103,0.153-0.282,0.254-0.435,0.374c-0.369,0.285-0.36,0.388,0.019,0.647
		c0.606,0.416,1.071,0.971,1.442,1.599c0.131,0.226,0.22,0.485,0.289,0.739c0.129,0.461-0.179,0.824-0.66,0.857
		c-0.281,0.021-0.563,0.091-0.84,0.161c-0.274,0.072-0.403,0.024-0.465-0.256c-0.039-0.175-0.054-0.361-0.039-0.539
		c0.027-0.266-0.041-0.475-0.221-0.678c-0.079-0.094-0.137-0.26-0.115-0.38c0.043-0.259-0.082-0.356-0.297-0.396
		c-0.158-0.029-0.326-0.025-0.484-0.052c-0.361-0.059-0.473-0.195-0.473-0.556c0-0.088,0-0.173,0-0.258
		c0.012-0.41-0.09-0.525-0.501-0.611c-0.44-0.091-0.84-0.01-1.2,0.262c-0.113,0.087-0.223,0.198-0.354,0.242
		c-0.155,0.049-0.329,0.038-0.533,0.056c0.104-0.459,0.188-0.83,0.262-1.203c0.01-0.048-0.035-0.125-0.08-0.164
		c-0.176-0.159-0.437-0.127-0.617,0.063c-0.106,0.119-0.221,0.234-0.334,0.351c-0.143,0.147-0.267,0.315-0.43,0.436
		c-0.184,0.137-0.396,0.235-0.6,0.344c-0.09,0.047-0.186,0.081-0.278,0.122c0.052,0.094,0.081,0.219,0.161,0.277
		c0.318,0.243,0.646,0.475,0.984,0.685c0.072,0.044,0.24,0.014,0.318-0.044c0.369-0.276,0.735-0.31,1.157-0.107
		c0.181,0.089,0.412,0.07,0.622,0.101c0.188,0.029,0.327,0.092,0.323,0.322c-0.005,0.236-0.154,0.282-0.345,0.284
		c-0.606,0.008-0.981,0.378-1.312,0.82c-0.174,0.233-0.08,0.443,0.129,0.554c0.47,0.251,0.763,0.646,1.052,1.067
		c0.152,0.221,0.381,0.396,0.601,0.565c0.358,0.284,0.475,0.786,0.226,1.162c-0.111,0.169,0.01,0.223,0.113,0.284
		c0.492,0.286,0.531,0.303,0.271,0.813c-0.265,0.521-0.627,0.989-0.924,1.494c-0.101,0.17-0.125,0.382-0.187,0.576
		c-0.034,0.114-0.037,0.268-0.116,0.33c-0.436,0.358-0.896,0.682-1.333,1.038c-0.493,0.404-1.086,0.499-1.688,0.583
		c-0.197,0.027-0.399,0.027-0.603,0.053c-0.108,0.013-0.222,0.036-0.325,0.076c-0.348,0.13-0.699,0.251-1.037,0.409
		c-0.252,0.118-0.508,0.257-0.715,0.44c-0.251,0.227-0.473,0.269-0.726,0.04c-0.092-0.083-0.157-0.199-0.257-0.267
		c-0.132-0.088-0.283-0.209-0.425-0.208c-0.5,0.006-0.974,0.121-1.338,0.5c-0.113,0.117-0.217,0.24-0.322,0.361
		c-0.222,0.255-0.212,0.444,0.019,0.701c0.178,0.198,0.333,0.418,0.523,0.604c0.14,0.138,0.308,0.26,0.481,0.346
		c0.616,0.301,1.142,0.704,1.374,1.354c0.197,0.548,0.397,1.126,0.083,1.711c-0.167,0.309-0.453,0.47-0.763,0.622
		c-0.557,0.274-1.098,0.579-1.646,0.872c-0.092,0.048-0.18,0.118-0.277,0.144c-0.217,0.056-0.349-0.058-0.351-0.281
		c-0.005-0.447-0.006-0.44-0.429-0.521c-0.115-0.022-0.231-0.093-0.321-0.172c-0.271-0.241-0.532-0.495-0.792-0.748
		c-0.274-0.266-0.573-0.469-0.97-0.522c-0.131-0.02-0.25-0.129-0.371-0.206c-0.135-0.087-0.222-0.084-0.276,0.091
		c-0.126,0.396-0.246,0.796-0.404,1.182c-0.095,0.238-0.039,0.413,0.13,0.564c0.336,0.304,0.623,0.625,0.771,1.077
		c0.054,0.167,0.287,0.289,0.456,0.403c0.379,0.26,0.78,0.486,1.149,0.755c0.258,0.188,0.396,0.457,0.362,0.794
		c-0.032,0.336,0.133,0.604,0.322,0.863c0.151,0.209,0.304,0.416,0.442,0.632c0.04,0.061,0.032,0.153,0.044,0.229
		c-0.082,0.014-0.169,0.049-0.245,0.034c-0.111-0.023-0.214-0.084-0.319-0.131c-0.305-0.14-0.611-0.283-0.917-0.419
		c-0.08-0.034-0.168-0.048-0.253-0.072c-0.012,0.027-0.021,0.052-0.033,0.078c0.085,0.046,0.179,0.083,0.255,0.142
		c0.288,0.231,0.662,0.419,0.825,0.719c0.167,0.31,0.348,0.567,0.592,0.816c0.165,0.172,0.271,0.274,0.517,0.191
		c0.298-0.098,0.805,0.267,0.823,0.575c0.003,0.058-0.056,0.156-0.105,0.174c-0.398,0.128-0.448,0.46-0.496,0.796
		c-0.075,0.526-0.069,0.501,0.469,0.594c0.352,0.062,0.692,0.197,1.03,0.318c0.39,0.142,0.765,0.329,1.177,0.051
		c0.088-0.057,0.244-0.049,0.359-0.022c0.449,0.099,0.896,0.215,1.342,0.329c0.041,0.01,0.072,0.05,0.166,0.118
		c-0.094,0.056-0.164,0.098-0.289,0.169c0.826,0.202,1.555,0.585,2.383,0.409c0.068-0.014,0.144-0.03,0.203-0.009
		c0.594,0.205,1.211,0.106,1.815,0.15c0.235,0.019,0.478,0.007,0.718,0.016c0.42,0.016,0.877-0.058,1.252,0.085
		c0.367,0.138,0.73,0.153,1.104,0.219c0.029,0.007,0.059,0.042,0.089,0.063c-0.116,0.21-2.293,0.947-2.59,0.837
		c0.235-0.191,0.43-0.381,0.659-0.525c0.218-0.14,0.468-0.233,0.705-0.402c-0.625,0.035-1.248,0.07-1.873,0.101
		c-0.152,0.007-0.309,0.007-0.459,0.001c-0.479-0.019-0.957-0.036-1.436-0.067c-0.429-0.026-0.855-0.067-1.281-0.112
		c-0.322-0.032-0.644-0.075-0.967-0.129c-0.277-0.047-0.558-0.122-0.84-0.177c-0.584-0.11-1.165-0.225-1.75-0.322
		c-0.538-0.09-1.086-0.14-1.621-0.254c-0.264-0.056-0.509-0.21-0.755-0.337c-0.038-0.021-0.047-0.156-0.021-0.22
		c0.04-0.09,0.122-0.164,0.184-0.242c-0.021-0.027-0.031-0.054-0.042-0.052c-0.626,0.038-1.126-0.202-1.575-0.629
		c-0.402-0.38-0.864-0.697-1.278-1.064c-0.145-0.127-0.248-0.315-0.33-0.494c-0.181-0.393-0.385-0.756-0.717-1.052
		c-0.141-0.127-0.177-0.362-0.309-0.504c-0.52-0.559-1.021-1.136-1.716-1.505c-0.249-0.131-0.462-0.333-0.672-0.524
		c-0.06-0.055-0.085-0.212-0.049-0.284c0.034-0.07,0.181-0.138,0.26-0.124c0.653,0.138,1.312,0.15,1.874,0.68
		c0.548,0.512,1.283,0.831,1.937,1.23c0.06,0.036,0.144,0.038,0.306,0.076c-0.232-0.268-0.392-0.493-0.591-0.668
		c-0.399-0.352-0.46-0.864-0.676-1.301c-0.22-0.442-0.464-0.848-0.923-1.074c-0.424-0.213-0.473-0.356-0.393-0.823
		c0.087-0.514,0.137-1.037,0.154-1.557c0.008-0.206-0.094-0.423-0.183-0.62c-0.229-0.52-0.487-1.028-0.713-1.547
		c-0.152-0.347-0.312-0.44-0.672-0.324c-0.356,0.112-0.704,0.265-1.069,0.333c-0.511,0.097-0.714-0.154-0.589-0.658
		c0.106-0.426-0.118-0.807-0.531-0.909c-0.225-0.056-0.368-0.188-0.318-0.429c0.051-0.249-0.06-0.359-0.279-0.445
		c-0.445-0.172-0.738-0.508-0.911-0.942c-0.098-0.246-0.249-0.296-0.497-0.236c-0.672,0.16-1.35,0.289-2.021,0.455
		c-0.126,0.031-0.289,0.146-0.326,0.26c-0.117,0.341-0.329,0.583-0.642,0.735c-0.318,0.152-0.588,0.344-0.794,0.637
		c-0.107,0.153-0.28,0.259-0.417,0.393c-0.259,0.249-0.511,0.506-0.77,0.756c-0.054,0.051-0.122,0.086-0.185,0.129
		c-0.247,0.161-0.499,0.313-0.735,0.485c-0.049,0.035-0.076,0.133-0.073,0.202c0.013,0.256-0.017,0.535,0.077,0.764
		c0.148,0.359,0.027,0.688-0.004,1.026c-0.004,0.039-0.012,0.076-0.016,0.115c-0.005,0.028-0.322,1.229-0.34,1.248
		c-0.218,0.225-0.423,0.472-0.67,0.66c-0.087,0.067-0.3,0.032-0.426-0.022c-0.321-0.144-0.466-0.447-0.571-0.756
		c-0.168-0.496-0.44-0.916-0.792-1.306c-0.207-0.228-0.307-0.545-0.477-0.809c-0.296-0.463-0.661-0.894-0.904-1.383
		c-0.389-0.786-0.844-1.561-0.879-2.478c-0.006-0.164-0.091-0.223-0.249-0.154c-0.044,0.018-0.086,0.042-0.127,0.067
		c-0.569,0.324-0.659,0.314-1.119-0.138c-0.186-0.184-0.351-0.354-0.429-0.644c-0.06-0.219-0.374-0.372-0.575-0.554
		c-0.123-0.11-0.28-0.2-0.359-0.334c-0.261-0.439-0.518-0.561-1.025-0.433c-0.992,0.248-1.995,0.265-3.006,0.188
		c-0.241-0.019-0.352-0.144-0.425-0.355c-0.146-0.42-0.205-0.432-0.543-0.167c-0.272,0.212-0.64,0.188-0.98-0.047
		c-0.155-0.106-0.335-0.173-0.485-0.284c-0.111-0.08-0.217-0.188-0.282-0.308c-0.089-0.167-0.122-0.364-0.208-0.532
		c-0.044-0.085-0.154-0.139-0.232-0.207c-0.076,0.089-0.218,0.185-0.211,0.265c0.023,0.251,0.076,0.508,0.169,0.744
		c0.14,0.35,0.324,0.684,0.495,1.036c0.044-0.029,0.124-0.081,0.278-0.181c0.044,0.247,0.088,0.449,0.115,0.655
		c0.047,0.375,0.08,0.375,0.455,0.317c0.359-0.057,0.559-0.252,0.702-0.556c0.092-0.198,0.21-0.387,0.325-0.572
		c0.041-0.063,0.111-0.108,0.232-0.223c0.042,0.276,0.07,0.47,0.103,0.659c0.076,0.446,0.194,0.56,0.639,0.616
		c0.369,0.049,0.761,0.691,0.631,1.081c-0.087,0.259-0.249,0.493-0.348,0.75c-0.079,0.203-0.115,0.425-0.168,0.639
		c-0.019,0.082-0.013,0.175-0.053,0.24c-0.117,0.179-0.261,0.342-0.379,0.521c-0.116,0.175-0.191,0.384-0.33,0.535
		c-0.132,0.141-0.318,0.237-0.495,0.326c-0.217,0.112-0.346,0.254-0.427,0.498c-0.058,0.175-0.24,0.359-0.412,0.439
		c-0.377,0.17-0.476,0.563-0.751,0.808c-0.248,0.222-0.481,0.459-0.72,0.693c-0.253,0.245-0.133,0.837,0.2,0.972
		c0.04,0.017,0.11-0.007,0.15-0.033c0.428-0.271,0.857-0.541,1.276-0.827c0.214-0.146,0.312-0.065,0.375,0.144
		c0.145,0.487,0.163,0.981,0.016,1.467c-0.144,0.482-0.19,0.966-0.145,1.466c0.064,0.71,0.008,1.405-0.248,2.084
		c-0.103,0.272-0.16,0.574-0.173,0.866c-0.032,0.643-0.207,1.269-0.151,1.926c0.047,0.588,0.288,1.084,0.569,1.564
		c0.233,0.398,0.563,0.739,0.848,1.104c0.088,0.112,0.184,0.221,0.257,0.343c0.278,0.468,0.581,0.926,0.81,1.417
		c0.167,0.356,0.25,0.754,0.337,1.139c0.09,0.406,0.125,0.826,0.221,1.23c0.037,0.155,0.152,0.303,0.263,0.43
		c0.314,0.36,0.66,0.695,0.959,1.066c0.141,0.174,0.194,0.414,0.304,0.617c0.076,0.14,0.176,0.27,0.27,0.401
		c0.417,0.576,0.836,1.15,1.257,1.725c-0.028,0.025-0.055,0.052-0.084,0.076c-0.075-0.068-0.155-0.132-0.228-0.204
		c-4.463-4.413-7.574-9.621-9.314-15.629c-1.091-3.767-1.531-7.61-1.34-11.525c0.006-0.134,0.016-0.267,0.032-0.399
		c0.018-0.147,0.068-0.241,0.253-0.244c0.083-0.003,0.224-0.108,0.239-0.185c0.165-0.827,0.31-1.657,0.459-2.488
		c0.008-0.042-0.014-0.087-0.031-0.19c-0.13,0.2-0.233,0.357-0.32,0.491c-0.123-0.058-0.215-0.102-0.361-0.17
		c0.162-0.849,0.323-1.759,0.518-2.665c0.045-0.212,0.185-0.415,0.319-0.595c0.045-0.06,0.239-0.082,0.313-0.037
		c0.234,0.14,0.415,0.131,0.56-0.128c0.197-0.354,0.261-0.722,0.07-1.114c-0.089-0.183-0.13-0.391-0.217-0.659
		c-0.174,0.214-0.312,0.386-0.451,0.555c-0.02-0.002-0.04-0.008-0.06-0.012c0.072-0.309,0.125-0.625,0.22-0.926
		c0.235-0.759,0.501-1.501,0.782-2.236c-1.77,4.355-2.753,9.114-2.753,14.105c0,20.711,16.79,37.5,37.5,37.5
		s37.498-16.789,37.498-37.5C212.253,84.861,195.465,68.071,174.755,68.071z M162.86,70.205c0.365-0.312,0.821-0.387,1.271-0.479
		C163.709,69.885,163.284,70.047,162.86,70.205z M165.417,70.889c-0.011-0.039-0.023-0.078-0.035-0.117
		c0.174-0.056,0.346-0.112,0.52-0.167c0.014,0.05,0.028,0.1,0.044,0.149C165.77,70.8,165.593,70.844,165.417,70.889z
		 M171.576,69.145c-0.03-0.021-0.057-0.044-0.083-0.12c0.717-0.028,1.425-0.234,2.149-0.038c-0.009,0.028-0.012,0.059-0.021,0.061
		C172.944,69.184,172.281,69.618,171.576,69.145z M173.438,69.859c0.197-0.4,0.649-0.412,0.965-0.043
		C174.074,69.83,173.782,69.844,173.438,69.859z M174.876,69.087c-0.301-0.019-0.604-0.039-0.906-0.057
		c0-0.011,0.002-0.022,0.003-0.034c0.304,0,0.608,0,0.909,0C174.88,69.027,174.877,69.056,174.876,69.087z M193.009,78.853
		c-0.146-0.162-0.271-0.291-0.376-0.432c-0.031-0.04-0.031-0.139-0.002-0.176c0.03-0.039,0.121-0.06,0.178-0.051
		C193.083,78.243,193.182,78.495,193.009,78.853z M172.417,116.878c-0.039,0.003-0.083-0.09-0.125-0.141
		c0.06-0.05,0.116-0.132,0.181-0.139c0.059-0.004,0.127,0.072,0.254,0.155C172.578,116.819,172.5,116.875,172.417,116.878z
		 M174.382,118.368c-0.12-0.135-0.199-0.225-0.279-0.313c0.087-0.062,0.184-0.184,0.256-0.17c0.109,0.021,0.2,0.134,0.298,0.207
		C174.581,118.17,174.502,118.247,174.382,118.368z M144.124,110.509c-0.083-0.097-0.172-0.153-0.172-0.211
		c0-0.055,0.092-0.151,0.144-0.153c0.061,0,0.16,0.077,0.171,0.135C144.277,110.332,144.194,110.402,144.124,110.509z
		 M138.348,99.587c0.041,0.017,0.081,0.034,0.123,0.051c-0.082,0.203-0.165,0.404-0.247,0.607c-0.049-0.019-0.096-0.039-0.143-0.06
		C138.169,99.985,138.258,99.786,138.348,99.587z M149.113,127.596c-0.063,0.057-0.248,0.07-0.312,0.021
		c-0.345-0.272-0.679-0.553-0.993-0.857c-0.366-0.358-0.647-0.769-0.767-1.285c-0.041-0.177-0.174-0.333-0.264-0.5
		c-0.135-0.251-0.287-0.494-0.399-0.755c-0.096-0.221-0.103-0.42,0.094-0.65c0.113-0.132,0.071-0.428,0.045-0.642
		c-0.035-0.286-0.122-0.565-0.187-0.847c0.045-0.019,0.089-0.037,0.135-0.055c0.229,0.333,0.5,0.645,0.675,1.006
		c0.27,0.561,0.514,1.142,0.698,1.736c0.247,0.805,0.671,1.51,1.13,2.201c0.067,0.104,0.154,0.206,0.184,0.319
		C149.177,127.385,149.174,127.542,149.113,127.596z M157.352,113.186c-0.312,0.076-0.59-0.046-0.701-0.348
		c-0.098-0.276-0.152-0.567-0.205-0.764c0.032-0.339,0.051-0.586,0.081-0.831c0.021-0.193,0.161-0.265,0.301-0.158
		c0.479,0.372,0.93,0.78,1.055,1.404C157.953,112.83,157.73,113.088,157.352,113.186z M164.358,110.051
		c-0.041,0.027-0.134,0.04-0.156,0.015c-0.06-0.072-0.096-0.165-0.119-0.208c0.049-0.237,0.077-0.416,0.125-0.587
		c0.015-0.054,0.085-0.13,0.125-0.128c0.063,0.004,0.139,0.056,0.18,0.108C164.597,109.362,164.476,109.978,164.358,110.051z
		 M168.05,116.001c-0.114-0.07-0.214-0.162-0.318-0.246c0.052-0.045,0.122-0.137,0.153-0.126c0.114,0.04,0.217,0.117,0.38,0.211
		C168.15,115.929,168.07,116.013,168.05,116.001z M168.878,117.325c-0.105-0.061-0.188-0.159-0.278-0.242
		c0.059-0.047,0.135-0.143,0.171-0.131c0.111,0.04,0.206,0.121,0.373,0.231C169.002,117.261,168.911,117.343,168.878,117.325z
		 M196.161,81.291c0.229,0.164,0.456,0.325,0.685,0.487c-0.021,0.032-0.044,0.065-0.066,0.1c-0.23-0.158-0.465-0.315-0.697-0.471
		C196.105,81.368,196.134,81.33,196.161,81.291z M195.148,88.427c0.052,0.056,0.156,0.127,0.146,0.167
		c-0.028,0.104-0.108,0.194-0.198,0.344c-0.09-0.114-0.188-0.201-0.177-0.229C194.977,88.604,195.07,88.519,195.148,88.427z
		 M187.438,97.388c0.264-0.301,0.563-0.572,0.826-0.873c0.449-0.516,1.043-0.632,1.688-0.646c0.676-0.015,0.823-0.178,0.854-0.868
		c0.004-0.074-0.014-0.167,0.022-0.222c0.044-0.06,0.14-0.122,0.208-0.116c0.078,0.007,0.197,0.07,0.216,0.133
		c0.058,0.197,0.185,0.205,0.334,0.157c0.169-0.056,0.205-0.187,0.147-0.346c-0.036-0.105-0.084-0.207-0.119-0.303
		c0.023-0.027,0.033-0.047,0.05-0.053c0.147-0.063,0.403-0.094,0.428-0.187c0.084-0.327,0.237-0.666,0.007-1.013
		c-0.312-0.463-0.303-0.505-0.134-1.131c-0.181-0.157-0.329-0.295-0.491-0.418c-0.121-0.091-0.266-0.153-0.388-0.244
		c-0.062-0.043-0.144-0.142-0.127-0.182c0.088-0.229,0.167-0.476,0.317-0.661c0.271-0.325,0.324-0.483,0.156-0.875
		c-0.066-0.157-0.158-0.304-0.216-0.463c-0.026-0.066-0.026-0.186,0.017-0.223c0.049-0.043,0.175-0.058,0.229-0.025
		c0.183,0.106,0.351,0.233,0.519,0.362c0.25,0.191,0.486,0.401,0.746,0.58c0.221,0.153,0.465,0.151,0.711,0.03
		c0.136-0.066,0.302-0.084,0.418-0.171c0.094-0.068,0.152-0.201,0.193-0.316c0.077-0.215,0.189-0.38,0.432-0.407
		c0.074-0.008,0.158,0.038,0.234,0.057c-0.021,0.074-0.021,0.171-0.072,0.216c-0.192,0.178-0.396,0.345-0.603,0.507
		c-0.104,0.081-0.21,0.509-0.153,0.658c0.104,0.283,0.049,0.421-0.24,0.473c-0.271,0.049-0.438,0.168-0.459,0.455
		c-0.013,0.169-0.113,0.218-0.258,0.147c-0.146-0.072-0.279-0.159-0.42-0.244c-0.207-0.126-0.41-0.202-0.6-0.063
		c0.48,0.672,0.979,1.322,1.432,2.002c0.209,0.32,0.161,0.692,0.073,1.072c-0.063,0.284-0.032,0.598,0.003,0.896
		c0.042,0.375,0.145,0.744,0.199,1.119c0.054,0.371-0.242,0.55-0.674,0.424c0.006,0.028,0.013,0.055,0.02,0.082
		c-0.209,0.052-0.418,0.149-0.624,0.147c-0.393-0.008-0.694,0.118-0.907,0.442c-0.162,0.249-0.363,0.303-0.643,0.192
		c-0.109-0.043-0.259-0.009-0.387,0.005c-0.131,0.014-0.26,0.034-0.385,0.074c-0.11,0.036-0.254,0.073-0.307,0.158
		c-0.113,0.174-0.255,0.196-0.419,0.137c-0.198-0.07-0.295-0.002-0.315,0.191c-0.021,0.178-0.008,0.364-0.057,0.534
		c-0.056,0.202-0.156,0.389-0.242,0.581c-0.201-0.093-0.47-0.137-0.593-0.293c-0.28-0.358-0.497-0.763-0.712-1.162
		C187.335,97.636,187.375,97.463,187.438,97.388z M188.536,117.496c-0.132,0.027-0.263,0.055-0.394,0.081
		c-0.012-0.052-0.021-0.108-0.029-0.162c0.128-0.021,0.256-0.044,0.385-0.057C188.505,117.359,188.521,117.448,188.536,117.496z
		 M187.697,120.953c0.039-0.021,0.121,0.033,0.184,0.053c-0.02,0.045-0.038,0.091-0.057,0.138c-0.133,0.071-0.266,0.148-0.403,0.207
		c-0.017,0.008-0.073-0.075-0.112-0.117C187.438,121.139,187.559,121.032,187.697,120.953z M186.389,119.151
		c-0.063-0.003-0.174-0.083-0.17-0.114c0.016-0.103,0.043-0.236,0.115-0.293c0.281-0.221,1.205-0.112,1.432,0.161
		c0.045,0.055,0.069,0.164,0.045,0.226c-0.022,0.062-0.121,0.095-0.186,0.141c-0.006-0.031-0.014-0.064-0.02-0.096
		C187.2,119.169,186.793,119.167,186.389,119.151z M187.313,116.122c-0.063,0.087-0.112,0.152-0.125,0.168
		c0.082,0.103,0.229,0.22,0.209,0.282c-0.069,0.209-0.196,0.399-0.311,0.595c-0.074,0.131-0.152,0.262-0.245,0.379
		c-0.057,0.074-0.147,0.175-0.223,0.174c-0.142-0.002-0.283-0.067-0.425-0.107c0.024-0.089,0.058-0.178,0.082-0.269
		c0.06-0.207,0.133-0.414,0.168-0.627C186.521,116.244,186.874,115.976,187.313,116.122z M185.596,97.153
		c0.027,0.022,0.004,0.113,0.004,0.172c-0.138-0.006-0.273-0.013-0.412-0.019C185.307,97.068,185.443,97.036,185.596,97.153z
		 M183.984,106.801c0.033,0.006,0.064,0.04,0.084,0.07c0.287,0.419,0.205,1.105-0.188,1.434c-0.174,0.145-0.19,0.241-0.024,0.408
		c0.095,0.094,0.121,0.251,0.187,0.389c0.405,0.122,0.847,0.256,1.287,0.39c0.169,0.051,0.135,0.153,0.06,0.263
		c-0.152,0.225-0.129,0.312,0.119,0.417c0.098,0.042,0.205,0.059,0.301,0.101c0.455,0.19,0.541,0.7,0.176,1.021
		c-0.021,0.017-0.029,0.047-0.051,0.083c0.031,0.042,0.059,0.104,0.102,0.127c0.447,0.223,0.498,0.637,0.525,1.064
		c0.014,0.188,0.043,0.376,0.082,0.561c0.076,0.365-0.188,0.653-0.559,0.595c-0.18,0.451-0.257,0.515-0.573,0.469
		c-0.392-0.055-0.601-0.29-0.661-0.705c-0.016-0.09-0.104-0.208-0.188-0.24c-0.293-0.112-0.617,0.007-0.818,0.25
		c-0.048,0.056-0.132,0.081-0.197,0.119c-0.03-0.074-0.1-0.152-0.092-0.22c0.016-0.139,0.045-0.288,0.111-0.409
		c0.175-0.307,0.934-0.58,1.291-0.526c0.136,0.02,0.307-0.048,0.428-0.125c0.123-0.077,0.206-0.215,0.323-0.34
		c-0.032-0.019-0.089-0.078-0.119-0.067c-0.271,0.108-0.603-0.003-0.853,0.252c-0.069,0.071-0.32,0.035-0.448-0.029
		c-0.124-0.064-0.203-0.226-0.28-0.355c-0.074-0.129-0.1-0.291-0.186-0.41c-0.107-0.149-0.192-0.945-0.063-1.067
		c0.063-0.061,0.19-0.094,0.279-0.078c0.054,0.008,0.092,0.13,0.131,0.206c0.012,0.022-0.007,0.058,0,0.084
		c0.021,0.082,0.785,0.62,0.857,0.584c0.086-0.039,0.149-0.117,0.227-0.178c-0.059-0.061-0.104-0.152-0.174-0.179
		c-0.275-0.1-0.535-0.167-0.578-0.543c-0.014-0.12-0.254-0.284-0.402-0.299c-0.146-0.016-0.354,0.095-0.457,0.216
		c-0.322,0.384-0.5,0.391-0.719-0.056c-0.093-0.19-0.122-0.412-0.189-0.616c-0.084-0.242-0.164-0.486-0.271-0.716
		c-0.156-0.321-0.179-0.612,0.01-0.942c0.129-0.224,0.159-0.502,0.229-0.757c0.063-0.227,0.216-0.395,0.438-0.39
		C183.425,106.663,183.703,106.746,183.984,106.801z M185.828,118.938c-0.021,0.107-0.217,0.18-0.379,0.303
		c-0.137-0.133-0.229-0.222-0.321-0.312c0.128-0.074,0.249-0.185,0.388-0.21C185.654,118.692,185.872,118.734,185.828,118.938z
		 M182.74,110.436c-0.133,0.085-0.203,0.161-0.274,0.164c-0.058,0.002-0.116-0.088-0.177-0.138c0.066-0.053,0.126-0.133,0.201-0.151
		C182.541,110.298,182.613,110.37,182.74,110.436z M182.896,102.56c0.104-0.064,0.316-0.02,0.442,0.045
		c0.085,0.047,0.163,0.231,0.144,0.333c-0.109,0.486-0.229,0.976-0.393,1.445c-0.123,0.356-0.326,0.373-0.595,0.102
		c-0.231-0.236-0.345-0.49-0.343-0.933C182.176,103.175,182.475,102.815,182.896,102.56z M180.77,112.065
		c0.021-0.047,0.08-0.077,0.123-0.114c0.332-0.296,0.66-0.599,1.002-0.887c0.074-0.063,0.219-0.132,0.283-0.102
		c0.105,0.053,0.172,0.186,0.26,0.288c-0.047,0.062-0.064,0.105-0.102,0.13c-0.374,0.265-0.747,0.528-1.125,0.784
		c-0.085,0.057-0.188,0.097-0.286,0.127c-0.054,0.015-0.169,0.003-0.175-0.019C180.73,112.208,180.742,112.129,180.77,112.065z
		 M174.9,106.465c-0.332-0.188-0.38-0.59-0.056-0.787c0.248-0.152,0.555-0.221,0.864-0.337c0.226,0.111,0.551,0.178,0.582,0.312
		c0.043,0.181-0.097,0.444-0.229,0.619C175.811,106.601,175.263,106.668,174.9,106.465z M180.336,117.182
		c-0.05,0.099-0.124,0.203-0.214,0.264c-0.374,0.243-0.468,0.657-0.57,1.024c-0.102,0.357-0.301,0.423-0.601,0.428
		c-0.047,0.001-0.098,0-0.145,0c-0.013,0.023-0.021,0.047-0.031,0.071c-0.2-0.086-0.396-0.188-0.604-0.253
		c-0.271-0.083-0.547-0.182-0.821-0.187c-0.299-0.006-0.58,0.07-0.846-0.153c-0.104-0.086-0.293-0.067-0.441-0.1
		c-0.225-0.051-0.371-0.175-0.422-0.413c-0.027-0.128-0.065-0.267-0.146-0.365c-0.253-0.311-0.346-0.665-0.393-1.05
		c-0.064-0.54,0.364-0.934,0.878-0.759c0.283,0.095,0.465,0.066,0.668-0.179c0.146-0.177,0.403-0.263,0.617-0.382
		c0.229-0.129,0.489-0.213,0.685-0.38c0.405-0.348,0.837-0.628,1.337-0.825c0.188-0.073,0.341-0.229,0.497-0.36
		c0.183-0.15,0.34-0.334,0.528-0.472c0.145-0.104,0.291-0.061,0.388,0.106c0.216,0.382,0.491,0.692,0.929,0.85
		c0.205,0.076,0.186,0.19-0.001,0.324c-0.255,0.182-0.497,0.385-0.739,0.584c-0.041,0.033-0.089,0.106-0.078,0.144
		c0.104,0.338-0.004,0.748,0.336,1.008c0.054,0.042,0.106,0.083,0.149,0.133c0.127,0.153,0.087,0.291-0.104,0.311
		C180.771,116.594,180.518,116.825,180.336,117.182z M182.113,117.311c0.058,0.096,0.246,0.174,0.367,0.165
		c0.408-0.032,0.813-0.117,1.221-0.164c0.171-0.019,0.338,0.022,0.322,0.257c-0.019,0.221-0.08,0.387-0.357,0.381
		c-0.801-0.018-0.803-0.012-0.518,0.738c0.047,0.112,0.1,0.244,0.19,0.305c0.261,0.176,0.156,0.381,0.077,0.58
		c-0.086,0.216-0.243,0.334-0.495,0.297c-0.305-0.043-0.546-0.157-0.634-0.488c-0.055-0.207-0.146-0.404-0.223-0.606
		c-0.037,0.005-0.072,0.008-0.108,0.011c-0.083,0.432-0.164,0.863-0.252,1.316c-0.222-0.12-0.438-0.191-0.588-0.339
		c-0.087-0.084-0.114-0.305-0.067-0.429c0.096-0.245,0.092-0.422-0.104-0.619c-0.071-0.075-0.104-0.266-0.062-0.356
		c0.265-0.515,0.548-1.021,0.843-1.517c0.229-0.381,0.892-0.599,1.32-0.49c0.314,0.08,0.639,0.173,0.959,0.179
		c0.268,0.007,0.53-0.116,0.799-0.164c0.129-0.021,0.262,0.002,0.391,0.006c-0.047,0.11-0.065,0.253-0.149,0.325
		c-0.298,0.259-0.653,0.325-1.049,0.278c-0.478-0.059-0.955-0.083-1.437-0.114c-0.093-0.004-0.189,0.023-0.277,0.057
		C182.098,116.991,182.025,117.163,182.113,117.311z M184.529,121.121c-0.006-0.047-0.012-0.094-0.02-0.141
		c0.146-0.022,0.288-0.043,0.436-0.065c0.006,0.056,0.012,0.112,0.021,0.17C184.82,121.098,184.675,121.109,184.529,121.121z
		 M184.648,118.181c-0.088-0.025-0.17-0.079-0.252-0.118c0.084-0.042,0.17-0.087,0.256-0.125c0.024-0.011,0.057-0.001,0.156-0.001
		c0.107,0.019,0.293,0.036,0.463,0.089c0.052,0.016,0.067,0.137,0.1,0.21c-0.066,0.024-0.143,0.073-0.205,0.065
		C184.99,118.276,184.82,118.23,184.648,118.181z M181.438,121.778c0.022,0.049,0.021,0.154-0.014,0.179
		c-0.068,0.052-0.182,0.112-0.25,0.088c-0.258-0.096-0.508-0.223-0.811-0.358C180.699,121.398,181.307,121.491,181.438,121.778z
		 M181.195,136.875c-0.024-0.029-0.047-0.058-0.07-0.085c0.371-0.324,0.743-0.648,1.127-0.984c0.145,0.279,0.145,0.279,0.717,0.24
		C182.749,136.412,181.598,136.95,181.195,136.875z M189.57,135.932c-2.459,0.877-4.844,1.728-7.23,2.579
		c0.379-0.462,0.944-0.563,1.459-0.755c0.965-0.362,1.94-0.694,2.914-1.031c0.072-0.024,0.166,0.025,0.245,0.016
		c0.122-0.017,0.254-0.034,0.364-0.089c1.234-0.593,2.464-1.191,3.486-2.123c0.082-0.075,0.18-0.131,0.271-0.197
		c0.021,0.025,0.041,0.049,0.062,0.074c-0.584,0.468-1.17,0.936-1.761,1.408C189.428,135.841,189.46,135.861,189.57,135.932z
		 M192.357,125.046c-0.162,0.563-0.369,1.113-0.531,1.677c-0.039,0.136-0.023,0.342,0.058,0.447
		c0.208,0.268,0.188,0.524,0.063,0.804c-0.077,0.171-0.188,0.342,0.009,0.517c0.034,0.029,0.024,0.126,0.009,0.186
		c-0.068,0.266-0.154,0.528-0.217,0.797c-0.016,0.067,0.029,0.148,0.061,0.281c-0.297,0.322-0.68,0.676-0.984,1.084
		c-0.631,0.835-1.465,1.427-2.326,1.976c-0.652,0.416-1.361,0.743-2.029,1.137c-0.419,0.248-0.798,0.56-1.215,0.814
		c-0.188,0.116-0.416,0.164-0.633,0.23c-0.227,0.071-0.46,0.12-0.688,0.197c-0.178,0.059-0.35,0.146-0.545,0.231
		c-0.035-0.119-0.057-0.206-0.088-0.322c-0.174,0.044-0.337,0.086-0.503,0.127c-0.069-0.091-0.136-0.183-0.212-0.264
		c-0.193-0.208-0.202-0.45-0.018-0.662c0.039-0.044,0.1-0.073,0.123-0.122c0.056-0.103,0.093-0.215,0.136-0.324
		c-0.115-0.011-0.229-0.028-0.345-0.03c-0.116-0.002-0.234,0.014-0.354,0.022c-0.007-0.035-0.015-0.067-0.021-0.1
		c0.268-0.064,0.535-0.126,0.804-0.188c-0.005-0.027-0.009-0.055-0.015-0.082c-0.135,0.018-0.271,0.034-0.406,0.05
		c-0.012-0.02-0.021-0.04-0.029-0.059c0.244-0.182,0.489-0.363,0.732-0.544c-0.01-0.016-0.019-0.032-0.028-0.049
		c-0.324,0.16-0.646,0.321-0.968,0.48c-0.018-0.02-0.032-0.042-0.053-0.064c0.053-0.082,0.104-0.165,0.153-0.246
		c0.263-0.416,0.118-0.67-0.312-0.889c-0.666-0.34-1.313-0.099-1.976-0.078c-0.592,0.021-1.108,0.179-1.635,0.445
		c-0.246,0.123-0.597,0.032-0.896,0.052c-0.322,0.022-0.646,0.039-0.963,0.094c-0.311,0.053-0.609,0.175-0.92,0.217
		c-0.285,0.039-0.558-0.041-0.744-0.288c-0.105-0.14-0.13-0.273,0.029-0.398c0.319-0.25,0.431-0.575,0.41-0.982
		c-0.029-0.473,0.021-0.95,0.001-1.424c-0.012-0.241-0.115-0.476-0.155-0.718c-0.012-0.078,0.021-0.225,0.065-0.239
		c0.203-0.065,0.191-0.228,0.243-0.381c0.128-0.375,0.266-0.75,0.442-1.105c0.053-0.111,0.237-0.178,0.375-0.228
		c0.188-0.066,0.396-0.079,0.584-0.148c0.846-0.305,1.734-0.378,2.615-0.5c0.656-0.09,1.115-0.411,1.381-1.006
		c0.146-0.322,0.529-0.484,0.846-0.339c0.476-0.342,0.936-0.712,1.436-1.014c0.249-0.152,0.573-0.194,0.871-0.256
		c0.229-0.047,0.398,0.061,0.525,0.265c0.188,0.292,0.455,0.269,0.695,0.032c0.305-0.3,0.655-0.556,0.993-0.821
		c0.114-0.09,0.206-0.144,0.093-0.314c-0.111-0.172,0.043-0.256,0.186-0.256c0.488,0.003,0.965-0.084,1.438,0.246
		c0.295,0.208,0.766,0.175,1.154,0.256c0.113,0.025,0.223,0.072,0.335,0.108c-0.054,0.103-0.083,0.225-0.157,0.305
		c-0.121,0.131-0.271,0.233-0.412,0.351c0.047,0.098,0.088,0.186,0.129,0.273c-0.104,0.023-0.209,0.065-0.313,0.064
		c-0.256-0.002-0.423,0.231-0.275,0.439c0.187,0.26,0.397,0.51,0.643,0.719c0.091,0.082,0.295,0.04,0.443,0.055
		c0.006,0.014,0.012,0.023,0.012,0.031c-0.004,0.136-0.01,0.271-0.012,0.405c0.151-0.052,0.342-0.064,0.453-0.162
		c0.532-0.466,0.871-1.078,1.248-1.664c0.248-0.383,0.545-0.736,0.831-1.093c0.05-0.062,0.155-0.081,0.236-0.12
		c0.032,0.083,0.099,0.171,0.089,0.25c-0.041,0.299-0.096,0.598-0.163,0.894c-0.043,0.183-0.082,0.327,0.099,0.486
		C192.363,124.693,192.395,124.915,192.357,125.046z M189.137,120.871c-0.037-0.284,0.09-0.462,0.266-0.611
		c0.037-0.032,0.132-0.031,0.183-0.007c0.031,0.015,0.058,0.097,0.049,0.145C189.583,120.644,189.462,120.833,189.137,120.871z
		 M196.363,129.052c-0.086-0.433,0.115-0.9,0.423-1.029C196.723,128.395,196.639,128.73,196.363,129.052z M197.893,120.606
		c-0.222,0.115-0.416,0.272-0.621,0.414c-0.502,0.35-0.871,0.353-1.377,0.013c-0.117-0.078-0.236-0.151-0.354-0.227
		c-0.001,0-0.004,0-0.004,0c0.082,0.231,0.021,0.409-0.169,0.578c-0.076,0.069-0.129,0.226-0.111,0.329
		c0.032,0.205,0.111,0.405,0.188,0.598c0.074,0.175,0.183,0.305,0.414,0.281c0.074-0.01,0.209,0.079,0.229,0.146
		c0.02,0.067-0.053,0.188-0.118,0.244c-0.225,0.193-0.428,0.196-0.747,0.101c-0.562-0.166-0.826-0.451-0.896-1.016
		c-0.04-0.304-0.469-0.408-0.725-0.225c-0.07,0.05-0.139,0.103-0.197,0.165c-0.424,0.44-0.916,0.346-1.413,0.177
		c-0.077-0.027-0.173-0.086-0.2-0.153c-0.121-0.293-0.354-0.3-0.617-0.286c-0.173,0.01-0.347-0.04-0.605-0.075
		c0.143-0.156,0.207-0.261,0.303-0.328c0.419-0.303,0.431-0.87,0.018-1.189c-0.061-0.047-0.129-0.084-0.195-0.119
		c-0.364-0.188-0.724-0.391-1.099-0.555c-0.124-0.056-0.303-0.042-0.438,0c-0.227,0.069-0.352,0.009-0.413-0.208
		c-0.024-0.072-0.076-0.141-0.08-0.211c-0.009-0.135,0.013-0.271,0.021-0.405c0.043-0.017,0.086-0.034,0.129-0.052
		c-0.188-0.164-0.381-0.324-0.563-0.495c-0.07-0.066-0.12-0.157-0.182-0.236c0.088-0.049,0.17-0.112,0.265-0.143
		c0.198-0.061,0.412-0.096,0.61-0.158c0.266-0.079,0.51-0.049,0.752,0.078c0.406,0.216,0.445,0.263,0.316,0.714
		c-0.085,0.296,0.104,0.465,0.262,0.651c0.028,0.031,0.166,0.008,0.228-0.03c0.17-0.106,0.328-0.23,0.492-0.349
		c-0.007-0.017-0.005-0.037-0.017-0.051c-0.063-0.071-0.129-0.142-0.195-0.211c0.115,0.002,0.283-0.042,0.337,0.015
		c0.132,0.153,0.229,0.077,0.347,0.013c0.211-0.118,0.412-0.104,0.631,0.005c0.686,0.343,1.391,0.655,2.063,1.021
		c0.32,0.176,0.594,0.447,0.877,0.688c0.053,0.044,0.074,0.151,0.072,0.227c-0.021,0.343,0.043,0.415,0.435,0.462l-0.001-0.003
		c0.002,0,0.004,0.001,0.005,0.003c0.176-0.047,0.354-0.104,0.533-0.14c0.22-0.044,0.442-0.071,0.71-0.112
		c0.188,0.155,0.328,0.135,0.553-0.096c0.102-0.103,0.229-0.193,0.359-0.251c0.16-0.071,0.197-0.143,0.064-0.267
		c-0.178-0.167-0.361-0.328-0.561-0.507c0.056-0.025,0.102-0.066,0.146-0.066c0.303,0.003,0.799,0.502,0.799,0.802
		C198.145,120.36,198.084,120.505,197.893,120.606z M198.32,121.371c0.018-0.242,0.074-0.482,0.119-0.722
		c0.024,0,0.051,0,0.078-0.002c0.055,0.239,0.137,0.474,0.145,0.713c0.004,0.101-0.145,0.209-0.227,0.313
		C198.396,121.573,198.314,121.469,198.32,121.371z M198.583,122.61c-0.006-0.191-0.01-0.319-0.015-0.447
		c0.059,0,0.147-0.022,0.17,0.007C198.836,122.31,198.835,122.446,198.583,122.61z M198.771,122.025c0-0.196,0-0.333,0-0.544
		C198.988,121.69,199.045,121.829,198.771,122.025z M199.598,123.075c-0.027,0.002-0.058,0.005-0.086,0.008
		c-0.039-0.06-0.078-0.123-0.136-0.21c-0.032,0.1-0.036,0.174-0.075,0.221c-0.049,0.059-0.119,0.111-0.191,0.14
		c-0.023,0.009-0.116-0.066-0.115-0.099c0.004-0.077,0.023-0.182,0.074-0.221c0.172-0.119,0.357-0.214,0.601-0.355
		C199.641,122.761,199.618,122.917,199.598,123.075z"/>
	<path fill="#7C008C" d="M189.538,75.579c-0.032,0.037-0.067,0.073-0.101,0.111c0.16,0.128,0.314,0.255,0.477,0.383
		c0.018-0.021,0.034-0.042,0.052-0.063C189.822,75.867,189.682,75.723,189.538,75.579z"/>
</g>
</svg>
