<?xml version="1.0" encoding="utf-8"?>
<!-- Generator: Adobe Illustrator 16.0.0, SVG Export Plug-In . SVG Version: 6.00 Build 0)  -->
<!DOCTYPE svg PUBLIC "-//W3C//DTD SVG 1.1//EN" "http://www.w3.org/Graphics/SVG/1.1/DTD/svg11.dtd">
<svg version="1.1" id="Layer_1" xmlns="http://www.w3.org/2000/svg" xmlns:xlink="http://www.w3.org/1999/xlink" x="0px" y="0px"
	 width="350px" height="350px" viewBox="0 0 350 350" enable-background="new 0 0 350 350" xml:space="preserve">
<g>
	<path fill="#FEBE10" d="M175,0C78.357,0,0,78.357,0,175c0,96.643,78.357,175,175,175s175-78.357,175-175
		C350,78.357,271.643,0,175,0z M175,328.125c-84.424,0-153.125-68.701-153.125-153.125S90.576,21.875,175,21.875
		S328.125,90.576,328.125,175S259.424,328.125,175,328.125z"/>
	<path fill="#FEBE10" d="M238.27,211.188l-1.458,9.726c-0.688,4.478-3.177,8.61-6.853,11.258c-3.648,2.659-8.21,3.791-12.758,3.046
		l-16.107-2.63c-1.33-0.089-2.131,0.284-2.72,0.886l-2.744,2.761l37.646,37.631c1.461,1.463,3.562,1.976,5.509,1.389
		c1.944-0.614,3.374-2.232,3.774-4.247l3.391-18.267l18.324-3.434c2.001-0.371,3.617-1.814,4.204-3.776
		c0.601-1.957,0.058-4.09-1.387-5.507L238.27,211.188z"/>
	<path fill="#FEBE10" d="M148.998,232.514l-16.592,2.704c-4.649,0.715-9.154-0.4-12.814-3.09c-3.649-2.631-6.138-6.75-6.822-11.256
		l-1.461-9.684l-28.81,28.835c-1.429,1.432-1.958,3.55-1.37,5.495c0.613,1.957,2.244,3.375,4.218,3.775l18.31,3.417l3.433,18.296
		c0.372,2.015,1.816,3.633,3.763,4.247c1.932,0.587,4.048,0.074,5.478-1.371l37.635-37.648l-2.747-2.775
		C150.615,232.845,149.814,232.514,148.998,232.514z"/>
	<path fill="#FEBE10" d="M174.372,103.571c-28.709,0-52.065,23.355-52.065,52.061c0,28.708,23.356,52.066,52.065,52.066
		c28.705,0,52.06-23.357,52.06-52.066C226.432,126.926,203.077,103.571,174.372,103.571z"/>
	<path fill="#FEBE10" d="M202.195,225.821l16.09,2.603c2.691,0.428,5.438-0.229,7.64-1.846c2.175-1.573,3.692-4.006,4.092-6.708
		l2.417-16.064c0.486-3.232,2.502-5.977,5.421-7.451l14.547-7.267c2.461-1.243,4.307-3.375,5.135-5.963
		c0.858-2.618,0.587-5.422-0.644-7.854l-7.496-14.491c-1.473-2.83-1.473-6.279,0-9.14l7.496-14.477
		c1.23-2.43,1.488-5.234,0.644-7.851c-0.845-2.604-2.688-4.721-5.135-5.965l-14.547-7.267c-2.919-1.474-4.935-4.219-5.421-7.451
		l-2.417-16.063c-0.399-2.704-1.917-5.121-4.092-6.694c-2.202-1.631-4.948-2.29-7.64-1.845l-16.09,2.688
		c-3.189,0.529-6.422-0.528-8.711-2.831l-11.429-11.615c-1.931-1.931-4.52-3.018-7.267-3.018c-2.703,0-5.35,1.101-7.267,3.018
		l-11.429,11.615c-2.271,2.317-5.521,3.36-8.712,2.831l-16.064-2.646c-2.687-0.443-5.433,0.215-7.649,1.846
		c-2.188,1.572-3.691,3.99-4.093,6.693l-2.402,16.064c-0.5,3.233-2.504,5.98-5.421,7.452L97.19,123.39
		c-2.419,1.246-4.291,3.362-5.119,5.966c-0.845,2.617-0.604,5.42,0.629,7.853l7.493,14.474c1.489,2.848,1.489,6.294,0,9.142
		L92.7,175.313c-1.232,2.433-1.474,5.233-0.629,7.852c0.842,2.59,2.688,4.723,5.119,5.965l14.562,7.267
		c2.917,1.473,4.921,4.221,5.421,7.453l2.402,16.065c0.401,2.689,1.904,5.118,4.093,6.705c2.2,1.619,4.948,2.278,7.649,1.846
		l16.064-2.645c3.19-0.558,6.44,0.514,8.712,2.817l11.429,11.585c1.932,1.974,4.55,3.061,7.267,3.061
		c2.73,0,5.349-1.087,7.267-3.061l11.429-11.585C195.773,226.335,199.02,225.264,202.195,225.821z M174.372,213.482
		c-31.898,0-57.85-25.954-57.85-57.851c0-31.896,25.951-57.846,57.85-57.846c31.896,0,57.845,25.95,57.845,57.846
		C232.217,187.528,206.268,213.482,174.372,213.482z"/>
</g>
</svg>
