<?xml version="1.0" encoding="utf-8"?>
<!-- Generator: Adobe Illustrator 16.0.0, SVG Export Plug-In . SVG Version: 6.00 Build 0)  -->
<!DOCTYPE svg PUBLIC "-//W3C//DTD SVG 1.1//EN" "http://www.w3.org/Graphics/SVG/1.1/DTD/svg11.dtd">
<svg version="1.1" id="Layer_1" xmlns="http://www.w3.org/2000/svg" xmlns:xlink="http://www.w3.org/1999/xlink" x="0px" y="0px"
	 width="350px" height="350px" viewBox="0 0 350 350" enable-background="new 0 0 350 350" xml:space="preserve">
<g>
	<path fill="#FEBE10" d="M175,0C78.357,0,0,78.357,0,175c0,96.643,78.357,175,175,175s175-78.357,175-175
		C350,78.357,271.643,0,175,0z M175,328.125c-84.424,0-153.125-68.701-153.125-153.125S90.576,21.875,175,21.875
		S328.125,90.576,328.125,175S259.424,328.125,175,328.125z"/>
	<path fill="#FEBE10" d="M244.299,240.454H105.615c-6.665,0-12.134,5.384-12.134,12.134c0,6.665,5.384,12.134,12.134,12.134h138.684
		c6.666,0,12.135-5.469,12.135-12.134C256.434,245.838,250.965,240.454,244.299,240.454z"/>
	<path fill="#FEBE10" d="M268.652,125.781c-7.947,0-14.355,6.409-14.355,14.355c0,1.538,0.256,3.076,0.684,4.443l-34.692,20.337
		l-37.427-61.865c3.846-2.563,6.408-7.007,6.408-11.963c0-7.947-6.408-14.355-14.355-14.355c-7.946,0-14.355,6.409-14.355,14.355
		c0,5.042,2.564,9.399,6.409,11.963l-37.341,61.865L94.934,144.58c0.428-1.367,0.684-2.905,0.684-4.443
		c0-7.947-6.408-14.355-14.355-14.355c-7.946,0-14.44,6.409-14.44,14.355s6.409,14.355,14.355,14.355h0.599l19.226,69.471h147.827
		l19.227-69.471h0.598c7.947,0,14.355-6.409,14.355-14.355S276.6,125.781,268.652,125.781z"/>
</g>
</svg>
