<?xml version="1.0" encoding="utf-8"?>
<!-- Generator: Adobe Illustrator 16.0.0, SVG Export Plug-In . SVG Version: 6.00 Build 0)  -->
<!DOCTYPE svg PUBLIC "-//W3C//DTD SVG 1.1//EN" "http://www.w3.org/Graphics/SVG/1.1/DTD/svg11.dtd">
<svg version="1.1" id="Layer_1" xmlns="http://www.w3.org/2000/svg" xmlns:xlink="http://www.w3.org/1999/xlink" x="0px" y="0px"
	 width="350px" height="350px" viewBox="0 0 350 350" enable-background="new 0 0 350 350" xml:space="preserve">
<g>
	<g>
		<path fill="#2D3E4F" d="M126.03,301.069c-0.998,0.499-2.994,0.998-5.552,0.998c-5.926,0-10.386-3.742-10.386-10.635
			c0-6.581,4.46-11.041,10.979-11.041c2.62,0,4.272,0.562,4.99,0.936l-0.655,2.214c-1.029-0.498-2.495-0.873-4.241-0.873
			c-4.929,0-8.203,3.15-8.203,8.671c0,5.146,2.963,8.452,8.078,8.452c1.653,0,3.337-0.343,4.429-0.873L126.03,301.069z"/>
		<path fill="#2D3E4F" d="M130.519,294.707c0.063,3.712,2.433,5.24,5.178,5.24c1.965,0,3.15-0.344,4.18-0.78l0.468,1.965
			c-0.967,0.437-2.62,0.936-5.021,0.936c-4.647,0-7.423-3.056-7.423-7.609s2.682-8.141,7.079-8.141c4.929,0,6.238,4.335,6.238,7.111
			c0,0.562-0.063,0.998-0.094,1.278H130.519z M138.565,292.742c0.031-1.746-0.717-4.46-3.805-4.46c-2.776,0-3.992,2.558-4.211,4.46
			H138.565z"/>
		<path fill="#2D3E4F" d="M144.613,291.37c0-1.778-0.031-3.307-0.124-4.71h2.401l0.094,2.963h0.124
			c0.687-2.027,2.34-3.306,4.18-3.306c0.312,0,0.53,0.031,0.78,0.094V289c-0.281-0.063-0.562-0.094-0.937-0.094
			c-1.934,0-3.306,1.466-3.68,3.524c-0.063,0.374-0.125,0.811-0.125,1.278v8.047h-2.714V291.37z"/>
		<path fill="#2D3E4F" d="M158.865,282.325v4.335h3.93v2.09h-3.93v8.141c0,1.871,0.53,2.932,2.059,2.932
			c0.717,0,1.247-0.094,1.59-0.188l0.125,2.059c-0.53,0.219-1.372,0.374-2.433,0.374c-1.278,0-2.308-0.405-2.963-1.153
			c-0.779-0.812-1.061-2.152-1.061-3.93v-8.234h-2.339v-2.09h2.339v-3.617L158.865,282.325z"/>
		<path fill="#2D3E4F" d="M168.938,282.419c0.031,0.936-0.654,1.684-1.746,1.684c-0.967,0-1.653-0.748-1.653-1.684
			c0-0.967,0.718-1.716,1.716-1.716C168.283,280.703,168.938,281.452,168.938,282.419z M165.881,301.756V286.66h2.745v15.096
			H165.881z"/>
		<path fill="#2D3E4F" d="M173.459,301.756V288.75h-2.121v-2.09h2.121v-0.811c0-3.992,2.339-6.581,6.581-6.581
			c1.403,0,3.057,0.437,3.836,0.998l-0.779,2.09c-0.655-0.468-1.841-0.873-3.182-0.873c-2.9,0-3.743,2.027-3.743,4.429v0.748h8.765
			v15.096h-2.714V288.75h-6.051v13.006H173.459z"/>
		<path fill="#2D3E4F" d="M200.248,301.194c-0.718,0.374-2.309,0.873-4.335,0.873c-4.554,0-7.517-3.087-7.517-7.703
			c0-4.647,3.181-8.016,8.108-8.016c1.622,0,3.057,0.405,3.806,0.779l-0.624,2.121c-0.655-0.374-1.685-0.718-3.182-0.718
			c-3.462,0-5.333,2.558-5.333,5.708c0,3.493,2.246,5.646,5.24,5.646c1.559,0,2.588-0.405,3.368-0.749L200.248,301.194z"/>
		<path fill="#2D3E4F" d="M211.817,301.756l-0.219-1.902h-0.094c-0.842,1.185-2.464,2.245-4.615,2.245
			c-3.057,0-4.616-2.151-4.616-4.335c0-3.649,3.243-5.646,9.076-5.614v-0.312c0-1.248-0.344-3.493-3.432-3.493
			c-1.403,0-2.869,0.437-3.93,1.123l-0.623-1.81c1.247-0.811,3.057-1.341,4.959-1.341c4.615,0,5.738,3.15,5.738,6.176v5.645
			c0,1.311,0.063,2.589,0.25,3.618H211.817z M211.412,294.052c-2.994-0.062-6.395,0.468-6.395,3.4c0,1.777,1.186,2.619,2.589,2.619
			c1.965,0,3.213-1.247,3.649-2.526c0.094-0.28,0.156-0.592,0.156-0.873V294.052z"/>
		<path fill="#2D3E4F" d="M221.671,282.325v4.335h3.93v2.09h-3.93v8.141c0,1.871,0.53,2.932,2.059,2.932
			c0.717,0,1.247-0.094,1.591-0.188l0.124,2.059c-0.53,0.219-1.372,0.374-2.433,0.374c-1.278,0-2.308-0.405-2.963-1.153
			c-0.779-0.812-1.061-2.152-1.061-3.93v-8.234h-2.339v-2.09h2.339v-3.617L221.671,282.325z"/>
		<path fill="#2D3E4F" d="M230.028,294.707c0.063,3.712,2.433,5.24,5.178,5.24c1.965,0,3.15-0.344,4.18-0.78l0.468,1.965
			c-0.967,0.437-2.62,0.936-5.021,0.936c-4.647,0-7.423-3.056-7.423-7.609s2.682-8.141,7.079-8.141c4.929,0,6.238,4.335,6.238,7.111
			c0,0.562-0.063,0.998-0.094,1.278H230.028z M238.075,292.742c0.031-1.746-0.717-4.46-3.805-4.46c-2.776,0-3.992,2.558-4.211,4.46
			H238.075z"/>
	</g>
</g>
<g>
	<path fill="#6B6B6B" d="M260.269,193.51l-26.688-26.699l-1.35,9.006c-0.638,4.146-2.942,7.973-6.346,10.423
		c-3.378,2.463-7.602,3.51-11.813,2.821l-14.914-2.437c-1.232-0.081-1.974,0.265-2.519,0.82l-2.541,2.558l34.858,34.844
		c1.353,1.353,3.298,1.828,5.101,1.284c1.8-0.568,3.124-2.066,3.495-3.932l3.139-16.914l16.967-3.179
		c1.854-0.344,3.35-1.68,3.894-3.497C262.108,196.796,261.605,194.821,260.269,193.51z"/>
	<path fill="#6B6B6B" d="M150.923,186.557l-15.363,2.504c-4.305,0.661-8.477-0.371-11.865-2.861
		c-3.379-2.437-5.684-6.251-6.317-10.423l-1.353-8.966L89.349,193.51c-1.322,1.326-1.813,3.286-1.269,5.087
		c0.568,1.813,2.078,3.125,3.905,3.496l16.954,3.164l3.178,16.941c0.345,1.865,1.683,3.363,3.484,3.932
		c1.788,0.544,3.748,0.068,5.071-1.27l34.847-34.858l-2.543-2.57C152.419,186.863,151.678,186.557,150.923,186.557z"/>
	<path fill="#6B6B6B" d="M200.179,180.358l14.898,2.41c2.492,0.396,5.035-0.212,7.073-1.709c2.014-1.456,3.419-3.708,3.789-6.21
		l2.238-14.874c0.45-2.993,2.316-5.535,5.019-6.899l13.47-6.729c2.278-1.151,3.987-3.125,4.755-5.521
		c0.794-2.424,0.543-5.02-0.597-7.272l-6.94-13.417c-1.363-2.622-1.363-5.815,0-8.463l6.94-13.405c1.14-2.25,1.379-4.847,0.597-7.27
		c-0.782-2.411-2.489-4.371-4.755-5.523l-13.47-6.729c-2.702-1.365-4.568-3.906-5.019-6.899l-2.238-14.873
		c-0.37-2.504-1.775-4.742-3.789-6.199c-2.038-1.511-4.581-2.12-7.073-1.708l-14.898,2.489c-2.953,0.49-5.946-0.489-8.065-2.621
		l-10.582-10.755c-1.788-1.788-4.185-2.794-6.729-2.794c-2.503,0-4.953,1.02-6.729,2.794l-10.582,10.755
		c-2.104,2.145-5.112,3.111-8.066,2.621l-14.874-2.45c-2.488-0.41-5.03,0.2-7.084,1.709c-2.026,1.456-3.418,3.694-3.789,6.197
		l-2.224,14.874c-0.463,2.994-2.318,5.537-5.02,6.9l-13.483,6.727c-2.239,1.153-3.973,3.113-4.739,5.524
		c-0.783,2.423-0.56,5.019,0.582,7.271l6.938,13.402c1.378,2.636,1.378,5.828,0,8.464l-6.938,13.415
		c-1.142,2.253-1.365,4.847-0.582,7.271c0.778,2.398,2.487,4.372,4.739,5.523l13.483,6.729c2.701,1.363,4.557,3.907,5.02,6.9
		l2.224,14.874c0.371,2.49,1.763,4.74,3.789,6.21c2.038,1.499,4.582,2.108,7.084,1.709l14.874-2.45
		c2.954-0.516,5.963,0.477,8.066,2.61l10.582,10.727c1.789,1.827,4.213,2.834,6.729,2.834c2.528,0,4.953-1.007,6.729-2.834
		l10.582-10.727C194.232,180.835,197.238,179.843,200.179,180.358z M174.774,171.509c-30.953,0-56.138-25.182-56.138-56.14
		c0-30.953,25.185-56.134,56.138-56.134s56.138,25.181,56.14,56.134C230.914,146.327,205.728,171.509,174.774,171.509z"/>
	<path fill="#6B6B6B" d="M174.416,61.808c-29.535,0-53.564,24.028-53.564,53.561c0,29.536,24.029,53.566,53.564,53.566
		c29.533,0,53.561-24.03,53.561-53.566C227.977,85.836,203.949,61.808,174.416,61.808z M174.416,163.578
		c-26.582,0-48.208-21.627-48.208-48.209c0-26.58,21.626-48.205,48.208-48.205c26.58,0,48.204,21.625,48.204,48.205
		C222.62,141.951,200.996,163.578,174.416,163.578z"/>
</g>
<g>
	<g>
		<path fill="#5E5E5E" d="M51.355,239.985h9.773c2.205,0,3.885,0.169,5.041,0.506c1.554,0.458,2.885,1.271,3.992,2.438
			c1.108,1.169,1.951,2.6,2.529,4.291c0.578,1.692,0.867,3.779,0.867,6.26c0,2.181-0.271,4.06-0.813,5.637
			c-0.662,1.928-1.607,3.487-2.836,4.68c-0.928,0.903-2.181,1.607-3.758,2.113c-1.181,0.374-2.759,0.561-4.734,0.561H51.355V239.985
			z M56.703,244.466v17.542h3.992c1.494,0,2.572-0.084,3.234-0.252c0.867-0.217,1.587-0.585,2.159-1.103
			c0.571-0.518,1.038-1.37,1.399-2.557c0.361-1.186,0.543-2.803,0.543-4.851s-0.182-3.619-0.543-4.715
			c-0.361-1.097-0.867-1.951-1.518-2.566c-0.65-0.613-1.475-1.029-2.475-1.246c-0.747-0.169-2.21-0.253-4.391-0.253H56.703z"/>
		<path fill="#5E5E5E" d="M89.169,260.364l5.059,0.849c-0.65,1.855-1.678,3.268-3.08,4.237c-1.403,0.97-3.159,1.454-5.267,1.454
			c-3.336,0-5.806-1.09-7.407-3.27c-1.265-1.747-1.897-3.951-1.897-6.613c0-3.18,0.832-5.669,2.494-7.47s3.764-2.701,6.305-2.701
			c2.854,0,5.106,0.942,6.757,2.827c1.65,1.886,2.438,4.772,2.366,8.663H81.779c0.037,1.506,0.446,2.677,1.229,3.514
			c0.783,0.838,1.759,1.256,2.928,1.256c0.795,0,1.463-0.217,2.005-0.65S88.892,261.328,89.169,260.364z M89.458,255.233
			c-0.036-1.47-0.415-2.586-1.138-3.352c-0.723-0.765-1.603-1.147-2.639-1.147c-1.107,0-2.023,0.404-2.746,1.211
			s-1.077,1.903-1.065,3.288H89.458z"/>
		<path fill="#5E5E5E" d="M96.847,260.996l5.095-0.776c0.217,0.987,0.656,1.737,1.318,2.249c0.663,0.513,1.59,0.768,2.783,0.768
			c1.313,0,2.3-0.24,2.963-0.723c0.445-0.337,0.668-0.788,0.668-1.354c0-0.386-0.12-0.704-0.361-0.958
			c-0.253-0.24-0.819-0.463-1.698-0.668c-4.095-0.903-6.69-1.729-7.786-2.475c-1.518-1.036-2.277-2.476-2.277-4.318
			c0-1.662,0.657-3.06,1.97-4.191s3.349-1.698,6.106-1.698c2.626,0,4.577,0.428,5.854,1.282c1.276,0.855,2.156,2.12,2.638,3.795
			l-4.788,0.885c-0.204-0.747-0.593-1.318-1.165-1.717c-0.572-0.396-1.388-0.596-2.448-0.596c-1.336,0-2.294,0.187-2.872,0.561
			c-0.386,0.265-0.578,0.607-0.578,1.029c0,0.361,0.169,0.668,0.506,0.922c0.458,0.337,2.038,0.813,4.742,1.427
			s4.592,1.367,5.664,2.259c1.06,0.902,1.59,2.161,1.59,3.775c0,1.759-0.734,3.27-2.204,4.535c-1.47,1.264-3.644,1.896-6.521,1.896
			c-2.614,0-4.683-0.53-6.206-1.59C98.313,264.255,97.316,262.815,96.847,260.996z"/>
		<path fill="#5E5E5E" d="M119.213,244.683v-4.697h5.076v4.697H119.213z M119.213,266.471v-19.187h5.076v19.187H119.213z"/>
		<path fill="#5E5E5E" d="M129.023,267.735l5.799,0.704c0.097,0.675,0.319,1.139,0.668,1.392c0.482,0.361,1.241,0.542,2.277,0.542
			c1.324,0,2.318-0.199,2.98-0.596c0.445-0.266,0.783-0.693,1.012-1.283c0.156-0.422,0.234-1.198,0.234-2.33v-2.801
			c-1.518,2.071-3.432,3.107-5.744,3.107c-2.578,0-4.619-1.09-6.125-3.27c-1.181-1.723-1.771-3.867-1.771-6.432
			c0-3.217,0.773-5.674,2.321-7.371c1.548-1.699,3.472-2.548,5.772-2.548c2.373,0,4.33,1.042,5.872,3.126v-2.692h4.751v17.218
			c0,2.264-0.187,3.956-0.56,5.076c-0.374,1.12-0.897,1.999-1.572,2.638s-1.575,1.138-2.701,1.499s-2.55,0.543-4.272,0.543
			c-3.252,0-5.559-0.558-6.919-1.672c-1.361-1.114-2.042-2.526-2.042-4.236C129.005,268.181,129.011,267.977,129.023,267.735z
			 M133.558,256.48c0,2.035,0.395,3.525,1.184,4.471c0.788,0.946,1.761,1.418,2.917,1.418c1.241,0,2.289-0.484,3.145-1.454
			c0.854-0.969,1.282-2.405,1.282-4.309c0-1.987-0.409-3.463-1.229-4.427c-0.819-0.963-1.854-1.445-3.107-1.445
			c-1.217,0-2.22,0.474-3.008,1.419C133.952,253.099,133.558,254.541,133.558,256.48z"/>
		<path fill="#5E5E5E" d="M169.545,266.471h-5.076v-9.792c0-2.071-0.108-3.411-0.325-4.02s-0.569-1.081-1.057-1.419
			c-0.488-0.337-1.075-0.506-1.762-0.506c-0.879,0-1.668,0.241-2.366,0.723c-0.699,0.482-1.178,1.121-1.437,1.916
			c-0.26,0.795-0.389,2.264-0.389,4.408v8.689h-5.077v-19.187h4.716v2.818c1.674-2.168,3.782-3.252,6.323-3.252
			c1.12,0,2.144,0.202,3.071,0.605s1.629,0.918,2.104,1.544c0.476,0.627,0.807,1.338,0.994,2.133
			c0.187,0.795,0.279,1.933,0.279,3.414V266.471z"/>
		<path fill="#5E5E5E" d="M184.938,266.471v-26.485h8.004l4.806,18.066l4.751-18.066h8.021v26.485h-4.968v-20.849l-5.257,20.849
			h-5.149l-5.239-20.849v20.849H184.938z"/>
		<path fill="#5E5E5E" d="M219.59,253.138l-4.606-0.831c0.518-1.854,1.409-3.228,2.674-4.119s3.144-1.337,5.637-1.337
			c2.265,0,3.95,0.269,5.059,0.804c1.108,0.536,1.888,1.217,2.34,2.042c0.451,0.825,0.677,2.339,0.677,4.544l-0.054,5.926
			c0,1.686,0.081,2.93,0.244,3.73c0.162,0.801,0.467,1.659,0.912,2.574h-5.022c-0.133-0.337-0.295-0.837-0.488-1.5
			c-0.084-0.301-0.145-0.499-0.18-0.596c-0.867,0.843-1.795,1.476-2.783,1.896c-0.987,0.422-2.041,0.633-3.161,0.633
			c-1.976,0-3.532-0.536-4.67-1.607c-1.139-1.072-1.708-2.428-1.708-4.065c0-1.084,0.26-2.051,0.777-2.899
			c0.518-0.85,1.243-1.5,2.177-1.951c0.934-0.452,2.279-0.847,4.038-1.184c2.373-0.445,4.017-0.861,4.932-1.246v-0.506
			c0-0.977-0.24-1.672-0.723-2.087c-0.481-0.416-1.391-0.624-2.728-0.624c-0.903,0-1.608,0.179-2.114,0.533
			C220.313,251.623,219.903,252.246,219.59,253.138z M226.383,257.257c-0.65,0.217-1.68,0.476-3.089,0.776
			c-1.409,0.302-2.331,0.597-2.765,0.886c-0.662,0.47-0.993,1.065-0.993,1.788c0,0.711,0.265,1.325,0.795,1.844
			c0.53,0.518,1.204,0.776,2.023,0.776c0.915,0,1.788-0.301,2.62-0.903c0.613-0.458,1.018-1.018,1.21-1.68
			c0.133-0.434,0.198-1.259,0.198-2.476V257.257z"/>
		<path fill="#5E5E5E" d="M234.585,260.996l5.095-0.776c0.217,0.987,0.656,1.737,1.318,2.249c0.663,0.513,1.59,0.768,2.783,0.768
			c1.313,0,2.3-0.24,2.963-0.723c0.445-0.337,0.668-0.788,0.668-1.354c0-0.386-0.12-0.704-0.361-0.958
			c-0.253-0.24-0.819-0.463-1.698-0.668c-4.095-0.903-6.69-1.729-7.786-2.475c-1.518-1.036-2.277-2.476-2.277-4.318
			c0-1.662,0.657-3.06,1.97-4.191s3.349-1.698,6.106-1.698c2.626,0,4.577,0.428,5.854,1.282c1.276,0.855,2.156,2.12,2.638,3.795
			l-4.788,0.885c-0.204-0.747-0.593-1.318-1.165-1.717c-0.572-0.396-1.388-0.596-2.448-0.596c-1.336,0-2.294,0.187-2.872,0.561
			c-0.386,0.265-0.578,0.607-0.578,1.029c0,0.361,0.169,0.668,0.506,0.922c0.458,0.337,2.038,0.813,4.742,1.427
			s4.592,1.367,5.664,2.259c1.06,0.902,1.59,2.161,1.59,3.775c0,1.759-0.734,3.27-2.204,4.535c-1.47,1.264-3.644,1.896-6.521,1.896
			c-2.614,0-4.683-0.53-6.206-1.59C236.051,264.255,235.055,262.815,234.585,260.996z"/>
		<path fill="#5E5E5E" d="M265.749,247.284v4.047h-3.469v7.732c0,1.565,0.033,2.479,0.1,2.737c0.065,0.259,0.217,0.473,0.451,0.641
			c0.235,0.169,0.521,0.254,0.858,0.254c0.47,0,1.15-0.163,2.041-0.488l0.434,3.938c-1.18,0.506-2.517,0.759-4.01,0.759
			c-0.916,0-1.741-0.153-2.476-0.461c-0.734-0.307-1.273-0.704-1.617-1.192c-0.343-0.487-0.581-1.147-0.714-1.978
			c-0.107-0.591-0.162-1.783-0.162-3.578v-8.364h-2.33v-4.047h2.33v-3.812l5.095-2.963v6.774H265.749z"/>
		<path fill="#5E5E5E" d="M280.384,260.364l5.059,0.849c-0.65,1.855-1.678,3.268-3.08,4.237c-1.403,0.97-3.159,1.454-5.267,1.454
			c-3.336,0-5.806-1.09-7.407-3.27c-1.265-1.747-1.897-3.951-1.897-6.613c0-3.18,0.832-5.669,2.494-7.47s3.764-2.701,6.305-2.701
			c2.854,0,5.106,0.942,6.757,2.827c1.65,1.886,2.438,4.772,2.366,8.663h-12.719c0.037,1.506,0.446,2.677,1.229,3.514
			c0.783,0.838,1.759,1.256,2.928,1.256c0.795,0,1.463-0.217,2.005-0.65S280.106,261.328,280.384,260.364z M280.673,255.233
			c-0.036-1.47-0.415-2.586-1.138-3.352c-0.723-0.765-1.603-1.147-2.639-1.147c-1.107,0-2.023,0.404-2.746,1.211
			s-1.077,1.903-1.065,3.288H280.673z"/>
		<path fill="#5E5E5E" d="M294.71,266.471h-5.077v-19.187h4.716v2.728c0.807-1.288,1.532-2.138,2.177-2.547s1.376-0.614,2.195-0.614
			c1.156,0,2.271,0.319,3.342,0.958l-1.571,4.426c-0.855-0.554-1.65-0.831-2.385-0.831c-0.711,0-1.313,0.196-1.807,0.587
			c-0.494,0.392-0.883,1.1-1.165,2.123c-0.283,1.023-0.425,3.168-0.425,6.432V266.471z"/>
	</g>
</g>
<g>
	<rect id="XMLID_86_" x="157.542" y="90.879" fill="#6B6B6B" width="33.835" height="1.956"/>
	<rect id="XMLID_98_" x="150.669" y="97.634" fill="#6B6B6B" width="1.955" height="33.834"/>
	<g id="XMLID_73_">
		<rect id="XMLID_78_" x="196.236" y="97.634" fill="#6B6B6B" width="1.955" height="33.834"/>
		<rect id="XMLID_101_" x="157.542" y="136.446" fill="#6B6B6B" width="33.835" height="1.955"/>
	</g>
	<g id="XMLID_179_">
		<path id="XMLID_180_" fill="#6B6B6B" d="M158.55,98.641h-13.688V84.953h13.688V98.641z M146.816,96.686h9.777v-9.777h-9.777
			V96.686z"/>
	</g>
	<g id="XMLID_175_">
		<path id="XMLID_176_" fill="#6B6B6B" d="M204.117,98.641h-13.688V84.953h13.688V98.641z M192.385,96.686h9.718v-9.777h-9.718
			V96.686z"/>
	</g>
	<g id="XMLID_171_">
		<path id="XMLID_172_" fill="#6B6B6B" d="M158.55,144.209h-13.688v-13.688h13.688V144.209z M146.816,142.254h9.777v-9.777h-9.777
			V142.254z"/>
	</g>
	<g id="XMLID_167_">
		<path id="XMLID_168_" fill="#6B6B6B" d="M204.117,144.209h-13.688v-13.688h13.688V144.209z M192.385,142.254h9.718v-9.777h-9.718
			V142.254z"/>
	</g>
	<g id="XMLID_97_">
		
			<rect id="XMLID_100_" x="168.056" y="119.899" transform="matrix(0.7071 -0.7071 0.7071 0.7071 -33.8273 160.0913)" fill="#6B6B6B" width="16.532" height="1.956"/>
		
			<rect id="XMLID_99_" x="160.163" y="112.024" transform="matrix(0.7071 -0.7071 0.7071 0.7071 -30.5733 152.1907)" fill="#6B6B6B" width="16.532" height="1.956"/>
	</g>
	<path id="XMLID_163_" fill="#6B6B6B" d="M177.808,104.863l3.021-3.022c1.778-1.778,4.741-1.778,6.519,0
		c1.777,1.777,1.777,4.74,0,6.518l-3.022,3.022l1.363,1.363l3.022-3.022c2.548-2.548,2.548-6.814,0-9.362
		c-2.549-2.548-6.814-2.548-9.363,0l-2.962,3.141L177.808,104.863z"/>
	<g id="XMLID_76_">
		<path id="XMLID_118_" fill="#6B6B6B" d="M184.029,117.544c-0.475,0-1.008-0.178-1.363-0.593l-10.369-10.37
			c-0.415-0.415-0.593-0.889-0.593-1.363s0.178-1.007,0.593-1.363l1.6-1.6c0.771-0.771,2.074-0.771,2.785,0l10.311,10.37
			c0.415,0.415,0.593,0.889,0.593,1.363c0,0.474-0.178,1.007-0.593,1.363l-1.601,1.6
			C185.037,117.366,184.503,117.544,184.029,117.544z M184.029,115.588l-0.711,0.711L184.029,115.588L184.029,115.588
			L184.029,115.588z M175.26,103.678l-1.601,1.6l10.37,10.311l1.6-1.6L175.26,103.678z"/>
	</g>
	<path id="XMLID_155_" fill="#6B6B6B" d="M171.526,127.084l-9.362-9.362l-1.777,1.777l-2.845,12.207l12.207-2.845L171.526,127.084z
		 M162.164,120.566l6.519,6.518l-8.593,1.955L162.164,120.566z"/>
</g>
</svg>
