<?xml version="1.0" encoding="utf-8"?>
<!-- Generator: Adobe Illustrator 16.0.0, SVG Export Plug-In . SVG Version: 6.00 Build 0)  -->
<!DOCTYPE svg PUBLIC "-//W3C//DTD SVG 1.1//EN" "http://www.w3.org/Graphics/SVG/1.1/DTD/svg11.dtd">
<svg version="1.1" id="Layer_1" xmlns="http://www.w3.org/2000/svg" xmlns:xlink="http://www.w3.org/1999/xlink" x="0px" y="0px"
	 width="350px" height="350px" viewBox="0 0 350 350" enable-background="new 0 0 350 350" xml:space="preserve">
<g>
	<g>
		<path fill="#2D3E4F" d="M126.03,301.069c-0.998,0.499-2.994,0.998-5.552,0.998c-5.926,0-10.386-3.742-10.386-10.635
			c0-6.581,4.46-11.041,10.979-11.041c2.62,0,4.272,0.562,4.99,0.936l-0.655,2.214c-1.029-0.498-2.495-0.873-4.241-0.873
			c-4.929,0-8.203,3.15-8.203,8.671c0,5.146,2.963,8.452,8.078,8.452c1.653,0,3.337-0.343,4.429-0.873L126.03,301.069z"/>
		<path fill="#2D3E4F" d="M130.519,294.707c0.063,3.712,2.433,5.24,5.178,5.24c1.965,0,3.15-0.344,4.18-0.78l0.468,1.965
			c-0.967,0.437-2.62,0.936-5.021,0.936c-4.647,0-7.423-3.056-7.423-7.609s2.682-8.141,7.079-8.141c4.929,0,6.238,4.335,6.238,7.111
			c0,0.562-0.063,0.998-0.094,1.278H130.519z M138.565,292.742c0.031-1.746-0.717-4.46-3.805-4.46c-2.776,0-3.992,2.558-4.211,4.46
			H138.565z"/>
		<path fill="#2D3E4F" d="M144.613,291.37c0-1.778-0.031-3.307-0.124-4.71h2.401l0.094,2.963h0.124
			c0.687-2.027,2.34-3.306,4.18-3.306c0.312,0,0.53,0.031,0.78,0.094V289c-0.281-0.063-0.562-0.094-0.937-0.094
			c-1.934,0-3.306,1.466-3.68,3.524c-0.063,0.374-0.125,0.811-0.125,1.278v8.047h-2.714V291.37z"/>
		<path fill="#2D3E4F" d="M158.865,282.325v4.335h3.93v2.09h-3.93v8.141c0,1.871,0.53,2.932,2.059,2.932
			c0.717,0,1.247-0.094,1.59-0.188l0.125,2.059c-0.53,0.219-1.372,0.374-2.433,0.374c-1.278,0-2.308-0.405-2.963-1.153
			c-0.779-0.812-1.061-2.152-1.061-3.93v-8.234h-2.339v-2.09h2.339v-3.617L158.865,282.325z"/>
		<path fill="#2D3E4F" d="M168.938,282.419c0.031,0.936-0.654,1.684-1.746,1.684c-0.967,0-1.653-0.748-1.653-1.684
			c0-0.967,0.718-1.716,1.716-1.716C168.283,280.703,168.938,281.452,168.938,282.419z M165.881,301.756V286.66h2.745v15.096
			H165.881z"/>
		<path fill="#2D3E4F" d="M173.459,301.756V288.75h-2.121v-2.09h2.121v-0.811c0-3.992,2.339-6.581,6.581-6.581
			c1.403,0,3.057,0.437,3.836,0.998l-0.779,2.09c-0.655-0.468-1.841-0.873-3.182-0.873c-2.9,0-3.743,2.027-3.743,4.429v0.748h8.765
			v15.096h-2.714V288.75h-6.051v13.006H173.459z"/>
		<path fill="#2D3E4F" d="M200.248,301.194c-0.718,0.374-2.309,0.873-4.335,0.873c-4.554,0-7.517-3.087-7.517-7.703
			c0-4.647,3.181-8.016,8.108-8.016c1.622,0,3.057,0.405,3.806,0.779l-0.624,2.121c-0.655-0.374-1.685-0.718-3.182-0.718
			c-3.462,0-5.333,2.558-5.333,5.708c0,3.493,2.246,5.646,5.24,5.646c1.559,0,2.588-0.405,3.368-0.749L200.248,301.194z"/>
		<path fill="#2D3E4F" d="M211.817,301.756l-0.219-1.902h-0.094c-0.842,1.185-2.464,2.245-4.615,2.245
			c-3.057,0-4.616-2.151-4.616-4.335c0-3.649,3.243-5.646,9.076-5.614v-0.312c0-1.248-0.344-3.493-3.432-3.493
			c-1.403,0-2.869,0.437-3.93,1.123l-0.623-1.81c1.247-0.811,3.057-1.341,4.959-1.341c4.615,0,5.738,3.15,5.738,6.176v5.645
			c0,1.311,0.063,2.589,0.25,3.618H211.817z M211.412,294.052c-2.994-0.062-6.395,0.468-6.395,3.4c0,1.777,1.186,2.619,2.589,2.619
			c1.965,0,3.213-1.247,3.649-2.526c0.094-0.28,0.156-0.592,0.156-0.873V294.052z"/>
		<path fill="#2D3E4F" d="M221.671,282.325v4.335h3.93v2.09h-3.93v8.141c0,1.871,0.53,2.932,2.059,2.932
			c0.717,0,1.247-0.094,1.591-0.188l0.124,2.059c-0.53,0.219-1.372,0.374-2.433,0.374c-1.278,0-2.308-0.405-2.963-1.153
			c-0.779-0.812-1.061-2.152-1.061-3.93v-8.234h-2.339v-2.09h2.339v-3.617L221.671,282.325z"/>
		<path fill="#2D3E4F" d="M230.028,294.707c0.063,3.712,2.433,5.24,5.178,5.24c1.965,0,3.15-0.344,4.18-0.78l0.468,1.965
			c-0.967,0.437-2.62,0.936-5.021,0.936c-4.647,0-7.423-3.056-7.423-7.609s2.682-8.141,7.079-8.141c4.929,0,6.238,4.335,6.238,7.111
			c0,0.562-0.063,0.998-0.094,1.278H230.028z M238.075,292.742c0.031-1.746-0.717-4.46-3.805-4.46c-2.776,0-3.992,2.558-4.211,4.46
			H238.075z"/>
	</g>
</g>
<linearGradient id="SVGID_1_" gradientUnits="userSpaceOnUse" x1="110.146" y1="60.0215" x2="273.5474" y2="243.9278">
	<stop  offset="0" style="stop-color:#26A9E0"/>
	<stop  offset="0.0605" style="stop-color:#2B9FD9"/>
	<stop  offset="0.3674" style="stop-color:#446EBA"/>
	<stop  offset="0.6373" style="stop-color:#564AA3"/>
	<stop  offset="0.8573" style="stop-color:#613595"/>
	<stop  offset="1" style="stop-color:#652D90"/>
</linearGradient>
<path fill="url(#SVGID_1_)" d="M260.27,193.51l-26.688-26.699l-1.35,9.006c-0.639,4.146-2.943,7.973-6.346,10.423
	c-3.379,2.463-7.602,3.51-11.813,2.821l-14.914-2.437c-1.232-0.081-1.975,0.265-2.52,0.82l-2.541,2.558l34.859,34.844
	c1.352,1.353,3.297,1.828,5.1,1.284c1.801-0.568,3.125-2.066,3.496-3.932l3.139-16.914l16.967-3.179
	c1.854-0.344,3.35-1.68,3.893-3.497C262.109,196.796,261.605,194.821,260.27,193.51z"/>
<linearGradient id="SVGID_2_" gradientUnits="userSpaceOnUse" x1="49.8203" y1="113.625" x2="213.2188" y2="297.5281">
	<stop  offset="0" style="stop-color:#26A9E0"/>
	<stop  offset="0.0605" style="stop-color:#2B9FD9"/>
	<stop  offset="0.3674" style="stop-color:#446EBA"/>
	<stop  offset="0.6373" style="stop-color:#564AA3"/>
	<stop  offset="0.8573" style="stop-color:#613595"/>
	<stop  offset="1" style="stop-color:#652D90"/>
</linearGradient>
<path fill="url(#SVGID_2_)" d="M150.923,186.557l-15.363,2.504c-4.305,0.661-8.477-0.371-11.865-2.861
	c-3.379-2.437-5.684-6.251-6.317-10.423l-1.353-8.966L89.349,193.51c-1.322,1.326-1.813,3.286-1.269,5.087
	c0.568,1.813,2.078,3.125,3.905,3.496l16.954,3.164l3.178,16.941c0.345,1.865,1.683,3.363,3.484,3.932
	c1.788,0.544,3.748,0.068,5.071-1.27l34.847-34.858l-2.543-2.57C152.419,186.863,151.678,186.557,150.923,186.557z"/>
<linearGradient id="SVGID_3_" gradientUnits="userSpaceOnUse" x1="118.5205" y1="52.5845" x2="281.919" y2="236.4876">
	<stop  offset="0" style="stop-color:#26A9E0"/>
	<stop  offset="0.0605" style="stop-color:#2B9FD9"/>
	<stop  offset="0.3674" style="stop-color:#446EBA"/>
	<stop  offset="0.6373" style="stop-color:#564AA3"/>
	<stop  offset="0.8573" style="stop-color:#613595"/>
	<stop  offset="1" style="stop-color:#652D90"/>
</linearGradient>
<path fill="url(#SVGID_3_)" d="M200.18,180.358l14.898,2.41c2.492,0.396,5.035-0.212,7.072-1.709c2.014-1.456,3.42-3.708,3.789-6.21
	l2.238-14.875c0.451-2.993,2.316-5.535,5.02-6.899l13.469-6.729c2.279-1.151,3.988-3.125,4.756-5.521
	c0.793-2.424,0.543-5.02-0.598-7.272l-6.939-13.417c-1.363-2.622-1.363-5.815,0-8.463l6.939-13.405
	c1.141-2.25,1.379-4.847,0.598-7.27c-0.783-2.411-2.49-4.371-4.756-5.523l-13.469-6.729c-2.703-1.365-4.568-3.906-5.02-6.899
	l-2.238-14.873c-0.369-2.504-1.775-4.742-3.789-6.199c-2.037-1.511-4.58-2.12-7.072-1.708l-14.898,2.489
	c-2.953,0.49-5.947-0.489-8.066-2.621l-10.582-10.755c-1.787-1.788-4.184-2.794-6.729-2.794c-2.502,0-4.953,1.02-6.728,2.794
	l-10.582,10.755c-2.104,2.145-5.112,3.111-8.066,2.621l-14.874-2.45c-2.488-0.41-5.03,0.2-7.084,1.709
	c-2.026,1.456-3.418,3.694-3.789,6.197l-2.224,14.874c-0.463,2.994-2.318,5.537-5.02,6.9l-13.483,6.727
	c-2.239,1.153-3.973,3.113-4.739,5.524c-0.783,2.423-0.56,5.019,0.582,7.271l6.938,13.402c1.378,2.636,1.378,5.828,0,8.464
	l-6.938,13.415c-1.142,2.253-1.365,4.847-0.582,7.271c0.778,2.398,2.487,4.372,4.739,5.523l13.483,6.729
	c2.701,1.363,4.557,3.907,5.02,6.9l2.224,14.874c0.371,2.49,1.763,4.74,3.789,6.21c2.038,1.499,4.582,2.108,7.084,1.709l14.874-2.45
	c2.954-0.516,5.963,0.477,8.066,2.61l10.582,10.727c1.789,1.827,4.213,2.834,6.728,2.834c2.53,0,4.954-1.007,6.729-2.834
	l10.582-10.727C194.232,180.835,197.238,179.843,200.18,180.358z M174.775,171.509c-30.954,0-56.138-25.182-56.138-56.14
	c0-30.953,25.185-56.134,56.138-56.134s56.137,25.181,56.139,56.134C230.914,146.327,205.729,171.509,174.775,171.509z"/>
<g>
	<g>
		<path fill="#5E5E5E" d="M88.467,266.471v-32.212h22.082v5.449H94.971v7.624h13.447v5.449H94.971v13.689H88.467z"/>
		<path fill="#5E5E5E" d="M114.438,254.474c0-2.051,0.505-4.035,1.517-5.954c1.01-1.919,2.442-3.385,4.295-4.395
			c1.854-1.012,3.922-1.517,6.207-1.517c3.53,0,6.424,1.146,8.68,3.438c2.256,2.293,3.384,5.189,3.384,8.69
			c0,3.53-1.139,6.456-3.417,8.778c-2.277,2.321-5.146,3.482-8.602,3.482c-2.14,0-4.179-0.483-6.12-1.45
			c-1.94-0.967-3.417-2.384-4.427-4.252C114.943,259.429,114.438,257.154,114.438,254.474z M120.767,254.803
			c0,2.315,0.55,4.088,1.647,5.318c1.1,1.23,2.454,1.846,4.065,1.846s2.963-0.615,4.054-1.846c1.092-1.23,1.637-3.018,1.637-5.361
			c0-2.285-0.545-4.043-1.637-5.273c-1.091-1.23-2.442-1.846-4.054-1.846s-2.966,0.615-4.065,1.846
			C121.316,250.717,120.767,252.489,120.767,254.803z"/>
		<path fill="#5E5E5E" d="M158.714,266.471v-3.494c-0.85,1.246-1.967,2.228-3.351,2.945c-1.385,0.717-2.846,1.076-4.384,1.076
			c-1.567,0-2.974-0.345-4.219-1.033c-1.245-0.688-2.146-1.654-2.702-2.9c-0.558-1.244-0.836-2.966-0.836-5.163v-14.766h6.175
			v10.723c0,3.281,0.113,5.292,0.341,6.031c0.227,0.74,0.641,1.326,1.241,1.758c0.601,0.433,1.362,0.648,2.285,0.648
			c1.055,0,1.999-0.289,2.835-0.868c0.834-0.578,1.406-1.296,1.713-2.153c0.309-0.856,0.462-2.955,0.462-6.295v-9.844h6.175v23.335
			H158.714z"/>
		<path fill="#5E5E5E" d="M192.068,266.471h-6.174v-11.909c0-2.52-0.132-4.149-0.396-4.889c-0.264-0.74-0.692-1.314-1.285-1.726
			c-0.594-0.409-1.308-0.615-2.143-0.615c-1.069,0-2.029,0.294-2.878,0.879c-0.851,0.587-1.433,1.363-1.747,2.33
			c-0.315,0.967-0.473,2.754-0.473,5.361v10.568h-6.175v-23.335h5.735v3.428c2.036-2.637,4.6-3.955,7.69-3.955
			c1.362,0,2.607,0.245,3.735,0.736c1.128,0.49,1.981,1.117,2.56,1.878c0.579,0.763,0.981,1.627,1.209,2.594
			c0.227,0.967,0.34,2.351,0.34,4.152V266.471z"/>
		<path fill="#5E5E5E" d="M219.732,266.471h-5.734v-3.428c-0.952,1.333-2.076,2.325-3.373,2.978
			c-1.296,0.651-2.604,0.978-3.922,0.978c-2.681,0-4.977-1.08-6.889-3.241c-1.911-2.16-2.867-5.175-2.867-9.042
			c0-3.955,0.93-6.961,2.791-9.02c1.859-2.058,4.211-3.087,7.053-3.087c2.607,0,4.863,1.084,6.768,3.252v-11.602h6.174V266.471z
			 M203.254,254.298c0,2.49,0.344,4.292,1.032,5.405c0.996,1.611,2.388,2.417,4.175,2.417c1.421,0,2.629-0.604,3.625-1.813
			c0.996-1.209,1.494-3.014,1.494-5.417c0-2.68-0.482-4.61-1.449-5.789c-0.967-1.18-2.205-1.77-3.714-1.77
			c-1.465,0-2.691,0.583-3.681,1.747C203.748,250.244,203.254,251.983,203.254,254.298z"/>
		<path fill="#5E5E5E" d="M239.333,259.044l6.152,1.032c-0.791,2.257-2.04,3.974-3.746,5.153c-1.707,1.179-3.842,1.769-6.405,1.769
			c-4.058,0-7.061-1.325-9.009-3.977c-1.538-2.124-2.308-4.805-2.308-8.043c0-3.867,1.012-6.896,3.033-9.085
			c2.021-2.19,4.577-3.285,7.668-3.285c3.472,0,6.211,1.146,8.218,3.438c2.007,2.293,2.966,5.805,2.878,10.536h-15.469
			c0.045,1.831,0.542,3.256,1.494,4.273c0.952,1.019,2.139,1.527,3.561,1.527c0.967,0,1.779-0.264,2.438-0.791
			S238.996,260.216,239.333,259.044z M239.685,252.804c-0.044-1.787-0.505-3.146-1.384-4.076c-0.879-0.93-1.949-1.396-3.209-1.396
			c-1.348,0-2.461,0.491-3.34,1.473s-1.311,2.314-1.296,3.999H239.685z"/>
		<path fill="#5E5E5E" d="M256.758,266.471h-6.174v-23.335h5.734v3.317c0.981-1.566,1.864-2.6,2.647-3.098
			c0.784-0.498,1.674-0.747,2.67-0.747c1.406,0,2.761,0.389,4.065,1.165l-1.912,5.383c-1.04-0.674-2.007-1.011-2.9-1.011
			c-0.864,0-1.597,0.238-2.197,0.714c-0.601,0.477-1.073,1.337-1.417,2.582c-0.345,1.245-0.517,3.853-0.517,7.822V266.471z"/>
	</g>
</g>
<g>
	<linearGradient id="SVGID_4_" gradientUnits="userSpaceOnUse" x1="118.813" y1="52.7114" x2="280.6665" y2="234.8756">
		<stop  offset="0" style="stop-color:#26A9E0"/>
		<stop  offset="0.0605" style="stop-color:#2B9FD9"/>
		<stop  offset="0.3674" style="stop-color:#446EBA"/>
		<stop  offset="0.6373" style="stop-color:#564AA3"/>
		<stop  offset="0.8573" style="stop-color:#613595"/>
		<stop  offset="1" style="stop-color:#652D90"/>
	</linearGradient>
	<path fill="url(#SVGID_4_)" d="M132.349,143.271c1.328-3.851,7.962-7.444,11.635-8.994c4.034-1.701,8.506-3.676,12.532-5.327
		c1.148-0.313,2.297-0.625,3.446-0.939c1.371-0.943,2.713-4.08,3.447-5.639l1.631-0.396c-0.371-2.06-1.645-2.219-2.176-3.677
		c-0.208-2.192-0.417-4.385-0.626-6.579c0.01,0.104-1.5-0.275-1.698-0.398c-2.127-1.333-2.171-6.748-2.376-9
		c-0.093-1.029,1.338-1.873,0.94-3.76c-2.332-11.05,1.008-16.222,6.29-17.936c3.666-1.485,10.51-4.24,16.894-0.313l1.583,1.469
		l2.563,0.442c1.287,0.743,2.107,3.206,2.107,3.206c0.675,2.719,0.743,2.945,0.68,5.737c-0.024,1.076-0.644,6.052-0.475,7.578
		c0.139,1.259,0.451,1.359,0.948,2.396c0.864,1.804,0.575,4.294,0.243,6.115c-0.182,0.996-0.564,2.414-1.148,3.227
		c-0.642,0.896-1.929,0.903-2.497,1.948c-0.819,1.506-0.356,3.618-0.873,5.244c-0.587,1.844-2.08,1.973-2.193,4.386
		c0.733,0.104,1.463,0.208,2.193,0.313c0.733,1.56,2.076,4.696,3.447,5.639c1.148,0.313,2.298,0.626,3.445,0.939
		c4.025,1.65,8.499,3.625,12.531,5.327c3.674,1.549,10.736,4.302,12.064,8.153c0.345,1.041,1.018,2.672,0.119,5.343
		c6.863-9.005,10.95-20.234,10.95-32.405c0-29.533-24.027-53.561-53.561-53.561c-29.535,0-53.564,24.028-53.564,53.561
		c0,12.495,4.313,23.996,11.511,33.118C131.786,146.43,131.963,144.591,132.349,143.271z"/>
	<linearGradient id="SVGID_5_" gradientUnits="userSpaceOnUse" x1="157.9766" y1="136.0083" x2="205.2783" y2="189.2458">
		<stop  offset="0" style="stop-color:#26A9E0"/>
		<stop  offset="0.0605" style="stop-color:#2B9FD9"/>
		<stop  offset="0.3674" style="stop-color:#446EBA"/>
		<stop  offset="0.6373" style="stop-color:#564AA3"/>
		<stop  offset="0.8573" style="stop-color:#613595"/>
		<stop  offset="1" style="stop-color:#652D90"/>
	</linearGradient>
	<path fill="url(#SVGID_5_)" d="M177.172,143.454l2.756-4.577l-5.513-5.654l-5.513,5.654l2.756,4.577l-4.25,25.008
		c2.295,0.301,4.631,0.473,7.007,0.473c2.375,0,4.71-0.172,7.005-0.473L177.172,143.454z"/>
</g>
</svg>
