<?xml version="1.0" encoding="utf-8"?>
<!-- Generator: Adobe Illustrator 16.0.0, SVG Export Plug-In . SVG Version: 6.00 Build 0)  -->
<!DOCTYPE svg PUBLIC "-//W3C//DTD SVG 1.1//EN" "http://www.w3.org/Graphics/SVG/1.1/DTD/svg11.dtd">
<svg version="1.1" id="Layer_1" xmlns="http://www.w3.org/2000/svg" xmlns:xlink="http://www.w3.org/1999/xlink" x="0px" y="0px"
	 width="350px" height="350px" viewBox="0 0 350 350" enable-background="new 0 0 350 350" xml:space="preserve">
<g>
	<g>
		<path fill="#2D3E4F" d="M126.03,301.069c-0.998,0.499-2.994,0.998-5.552,0.998c-5.926,0-10.386-3.742-10.386-10.635
			c0-6.581,4.46-11.041,10.979-11.041c2.62,0,4.272,0.562,4.99,0.936l-0.655,2.214c-1.029-0.498-2.495-0.873-4.241-0.873
			c-4.929,0-8.203,3.15-8.203,8.671c0,5.146,2.963,8.452,8.078,8.452c1.653,0,3.337-0.343,4.429-0.873L126.03,301.069z"/>
		<path fill="#2D3E4F" d="M130.519,294.707c0.063,3.712,2.433,5.24,5.178,5.24c1.965,0,3.15-0.344,4.18-0.78l0.468,1.965
			c-0.967,0.437-2.62,0.936-5.021,0.936c-4.647,0-7.423-3.056-7.423-7.609s2.682-8.141,7.079-8.141c4.929,0,6.238,4.335,6.238,7.111
			c0,0.562-0.063,0.998-0.094,1.278H130.519z M138.565,292.742c0.031-1.746-0.717-4.46-3.805-4.46c-2.776,0-3.992,2.558-4.211,4.46
			H138.565z"/>
		<path fill="#2D3E4F" d="M144.614,291.37c0-1.778-0.03-3.307-0.124-4.71h2.401l0.094,2.963h0.124
			c0.687-2.027,2.34-3.306,4.18-3.306c0.312,0,0.53,0.031,0.779,0.094V289c-0.28-0.063-0.561-0.094-0.936-0.094
			c-1.934,0-3.306,1.466-3.68,3.524c-0.063,0.374-0.125,0.811-0.125,1.278v8.047h-2.714V291.37z"/>
		<path fill="#2D3E4F" d="M158.866,282.325v4.335h3.93v2.09h-3.93v8.141c0,1.871,0.53,2.932,2.059,2.932
			c0.717,0,1.247-0.094,1.591-0.188l0.124,2.059c-0.53,0.219-1.372,0.374-2.433,0.374c-1.278,0-2.308-0.405-2.963-1.153
			c-0.779-0.812-1.061-2.152-1.061-3.93v-8.234h-2.339v-2.09h2.339v-3.617L158.866,282.325z"/>
		<path fill="#2D3E4F" d="M168.938,282.419c0.031,0.936-0.654,1.684-1.746,1.684c-0.967,0-1.653-0.748-1.653-1.684
			c0-0.967,0.718-1.716,1.716-1.716C168.283,280.703,168.938,281.452,168.938,282.419z M165.881,301.756V286.66h2.745v15.096
			H165.881z"/>
		<path fill="#2D3E4F" d="M173.46,301.756V288.75h-2.121v-2.09h2.121v-0.811c0-3.992,2.339-6.581,6.581-6.581
			c1.403,0,3.057,0.437,3.836,0.998l-0.779,2.09c-0.655-0.468-1.841-0.873-3.182-0.873c-2.9,0-3.743,2.027-3.743,4.429v0.748h8.765
			v15.096h-2.714V288.75h-6.051v13.006H173.46z"/>
		<path fill="#2D3E4F" d="M200.249,301.194c-0.718,0.374-2.308,0.873-4.335,0.873c-4.554,0-7.517-3.087-7.517-7.703
			c0-4.647,3.181-8.016,8.108-8.016c1.622,0,3.057,0.405,3.806,0.779l-0.624,2.121c-0.655-0.374-1.685-0.718-3.182-0.718
			c-3.462,0-5.333,2.558-5.333,5.708c0,3.493,2.246,5.646,5.24,5.646c1.559,0,2.588-0.405,3.368-0.749L200.249,301.194z"/>
		<path fill="#2D3E4F" d="M211.818,301.756l-0.219-1.902h-0.094c-0.842,1.185-2.464,2.245-4.615,2.245
			c-3.057,0-4.616-2.151-4.616-4.335c0-3.649,3.243-5.646,9.076-5.614v-0.312c0-1.248-0.344-3.493-3.431-3.493
			c-1.404,0-2.87,0.437-3.931,1.123l-0.623-1.81c1.247-0.811,3.056-1.341,4.959-1.341c4.615,0,5.738,3.15,5.738,6.176v5.645
			c0,1.311,0.063,2.589,0.25,3.618H211.818z M211.412,294.052c-2.994-0.062-6.394,0.468-6.394,3.4c0,1.777,1.186,2.619,2.589,2.619
			c1.965,0,3.213-1.247,3.649-2.526c0.094-0.28,0.155-0.592,0.155-0.873V294.052z"/>
		<path fill="#2D3E4F" d="M221.672,282.325v4.335h3.93v2.09h-3.93v8.141c0,1.871,0.53,2.932,2.059,2.932
			c0.717,0,1.247-0.094,1.59-0.188l0.125,2.059c-0.53,0.219-1.372,0.374-2.433,0.374c-1.278,0-2.308-0.405-2.963-1.153
			c-0.779-0.812-1.061-2.152-1.061-3.93v-8.234h-2.339v-2.09h2.339v-3.617L221.672,282.325z"/>
		<path fill="#2D3E4F" d="M230.028,294.707c0.063,3.712,2.433,5.24,5.178,5.24c1.965,0,3.15-0.344,4.18-0.78l0.468,1.965
			c-0.967,0.437-2.62,0.936-5.021,0.936c-4.647,0-7.423-3.056-7.423-7.609s2.682-8.141,7.079-8.141c4.929,0,6.238,4.335,6.238,7.111
			c0,0.562-0.063,0.998-0.094,1.278H230.028z M238.075,292.742c0.031-1.746-0.717-4.46-3.805-4.46c-2.776,0-3.992,2.558-4.211,4.46
			H238.075z"/>
	</g>
</g>
<g>
	<g>
		<path fill="#5E5E5E" d="M65.753,255.943v-4.824h12.461v11.406c-1.211,1.172-2.966,2.204-5.264,3.096s-4.626,1.338-6.982,1.338
			c-2.995,0-5.605-0.628-7.832-1.885s-3.899-3.054-5.02-5.391s-1.68-4.88-1.68-7.627c0-2.981,0.625-5.632,1.875-7.949
			s3.079-4.095,5.488-5.332c1.836-0.95,4.121-1.426,6.855-1.426c3.555,0,6.331,0.745,8.33,2.236s3.284,3.552,3.857,6.182
			l-5.742,1.074c-0.403-1.406-1.162-2.517-2.275-3.33s-2.503-1.221-4.17-1.221c-2.526,0-4.534,0.801-6.025,2.402
			s-2.236,3.978-2.236,7.129c0,3.398,0.755,5.947,2.266,7.646s3.489,2.549,5.938,2.549c1.211,0,2.425-0.237,3.643-0.713
			s2.263-1.052,3.135-1.729v-3.633H65.753z"/>
		<path fill="#5E5E5E" d="M87.608,252.057l-4.98-0.898c0.56-2.005,1.523-3.489,2.891-4.453s3.398-1.445,6.094-1.445
			c2.448,0,4.271,0.29,5.469,0.869s2.041,1.315,2.529,2.207s0.732,2.529,0.732,4.912l-0.059,6.406c0,1.823,0.088,3.167,0.264,4.033
			s0.505,1.794,0.986,2.783h-5.43c-0.144-0.364-0.319-0.905-0.527-1.621c-0.091-0.325-0.156-0.54-0.195-0.645
			c-0.938,0.911-1.94,1.595-3.008,2.051s-2.207,0.684-3.418,0.684c-2.136,0-3.818-0.579-5.049-1.738s-1.846-2.624-1.846-4.395
			c0-1.172,0.28-2.217,0.84-3.135s1.345-1.621,2.354-2.109s2.464-0.915,4.365-1.279c2.565-0.481,4.343-0.931,5.332-1.348v-0.547
			c0-1.055-0.261-1.807-0.781-2.256s-1.504-0.674-2.949-0.674c-0.977,0-1.738,0.192-2.285,0.576S87.947,251.093,87.608,252.057z
			 M94.952,256.51c-0.703,0.234-1.816,0.515-3.34,0.84s-2.52,0.645-2.988,0.957c-0.716,0.508-1.074,1.152-1.074,1.934
			c0,0.769,0.286,1.433,0.859,1.992s1.302,0.84,2.188,0.84c0.989,0,1.934-0.325,2.832-0.977c0.664-0.495,1.101-1.101,1.309-1.816
			c0.144-0.469,0.215-1.36,0.215-2.676V256.51z"/>
		<path fill="#5E5E5E" d="M105.343,245.729h5.059v2.832c1.81-2.2,3.965-3.301,6.465-3.301c1.328,0,2.48,0.273,3.457,0.82
			s1.777,1.374,2.402,2.48c0.911-1.106,1.895-1.934,2.949-2.48s2.181-0.82,3.379-0.82c1.523,0,2.813,0.31,3.867,0.928
			s1.843,1.526,2.363,2.725c0.378,0.886,0.566,2.317,0.566,4.297v13.262h-5.488v-11.855c0-2.058-0.188-3.386-0.566-3.984
			c-0.508-0.781-1.289-1.172-2.344-1.172c-0.769,0-1.491,0.234-2.168,0.703s-1.165,1.155-1.465,2.061s-0.449,2.334-0.449,4.287
			v9.961h-5.488v-11.367c0-2.019-0.098-3.32-0.293-3.906s-0.498-1.022-0.908-1.309s-0.967-0.43-1.67-0.43
			c-0.847,0-1.608,0.228-2.285,0.684s-1.162,1.113-1.455,1.973s-0.439,2.285-0.439,4.277v10.078h-5.488V245.729z"/>
		<path fill="#5E5E5E" d="M153.331,259.869l5.469,0.918c-0.703,2.005-1.813,3.532-3.33,4.58s-3.415,1.572-5.693,1.572
			c-3.606,0-6.276-1.179-8.008-3.535c-1.367-1.888-2.051-4.271-2.051-7.148c0-3.438,0.898-6.13,2.695-8.076s4.069-2.92,6.816-2.92
			c3.086,0,5.521,1.019,7.305,3.057s2.637,5.159,2.559,9.365h-13.75c0.039,1.628,0.481,2.894,1.328,3.799s1.901,1.357,3.164,1.357
			c0.859,0,1.582-0.234,2.168-0.703S153.031,260.911,153.331,259.869z M153.644,254.322c-0.039-1.589-0.449-2.796-1.23-3.623
			s-1.731-1.24-2.852-1.24c-1.198,0-2.188,0.437-2.969,1.309s-1.165,2.058-1.152,3.555H153.644z"/>
		<path fill="#5E5E5E" d="M174.64,266.471v-28.633h8.652l5.195,19.531l5.137-19.531h8.672v28.633h-5.371v-22.539l-5.684,22.539
			h-5.566l-5.664-22.539v22.539H174.64z"/>
		<path fill="#5E5E5E" d="M212.101,252.057l-4.98-0.898c0.56-2.005,1.523-3.489,2.891-4.453s3.398-1.445,6.094-1.445
			c2.448,0,4.271,0.29,5.469,0.869s2.041,1.315,2.529,2.207s0.732,2.529,0.732,4.912l-0.059,6.406c0,1.823,0.088,3.167,0.264,4.033
			s0.505,1.794,0.986,2.783h-5.43c-0.144-0.364-0.319-0.905-0.527-1.621c-0.091-0.325-0.156-0.54-0.195-0.645
			c-0.938,0.911-1.94,1.595-3.008,2.051s-2.207,0.684-3.418,0.684c-2.136,0-3.818-0.579-5.049-1.738s-1.846-2.624-1.846-4.395
			c0-1.172,0.28-2.217,0.84-3.135s1.345-1.621,2.354-2.109s2.464-0.915,4.365-1.279c2.565-0.481,4.343-0.931,5.332-1.348v-0.547
			c0-1.055-0.261-1.807-0.781-2.256s-1.504-0.674-2.949-0.674c-0.977,0-1.738,0.192-2.285,0.576S212.439,251.093,212.101,252.057z
			 M219.444,256.51c-0.703,0.234-1.816,0.515-3.34,0.84s-2.52,0.645-2.988,0.957c-0.716,0.508-1.074,1.152-1.074,1.934
			c0,0.769,0.286,1.433,0.859,1.992s1.302,0.84,2.188,0.84c0.989,0,1.934-0.325,2.832-0.977c0.664-0.495,1.101-1.101,1.309-1.816
			c0.144-0.469,0.215-1.36,0.215-2.676V256.51z"/>
		<path fill="#5E5E5E" d="M228.312,260.553l5.508-0.84c0.234,1.067,0.71,1.878,1.426,2.432s1.719,0.83,3.008,0.83
			c1.419,0,2.487-0.261,3.203-0.781c0.481-0.364,0.723-0.853,0.723-1.465c0-0.417-0.13-0.762-0.391-1.035
			c-0.273-0.261-0.886-0.501-1.836-0.723c-4.427-0.977-7.233-1.868-8.418-2.676c-1.641-1.12-2.461-2.676-2.461-4.668
			c0-1.797,0.71-3.308,2.129-4.531s3.62-1.836,6.602-1.836c2.839,0,4.948,0.462,6.328,1.387s2.331,2.292,2.852,4.102l-5.176,0.957
			c-0.222-0.808-0.642-1.426-1.26-1.855s-1.501-0.645-2.646-0.645c-1.445,0-2.48,0.202-3.105,0.605
			c-0.417,0.286-0.625,0.657-0.625,1.113c0,0.391,0.183,0.723,0.547,0.996c0.495,0.364,2.204,0.879,5.127,1.543
			s4.964,1.478,6.123,2.441c1.146,0.977,1.719,2.337,1.719,4.082c0,1.901-0.794,3.535-2.383,4.902s-3.938,2.051-7.051,2.051
			c-2.825,0-5.062-0.573-6.709-1.719S228.819,262.519,228.312,260.553z"/>
		<path fill="#5E5E5E" d="M262.003,245.729v4.375h-3.75v8.359c0,1.692,0.036,2.679,0.107,2.959s0.234,0.511,0.488,0.693
			s0.563,0.273,0.928,0.273c0.508,0,1.243-0.176,2.207-0.527l0.469,4.258c-1.276,0.547-2.722,0.82-4.336,0.82
			c-0.989,0-1.882-0.166-2.676-0.498s-1.377-0.762-1.748-1.289s-0.628-1.24-0.771-2.139c-0.117-0.638-0.176-1.927-0.176-3.867
			v-9.043h-2.52v-4.375h2.52v-4.121l5.508-3.203v7.324H262.003z"/>
		<path fill="#5E5E5E" d="M277.823,259.869l5.469,0.918c-0.703,2.005-1.813,3.532-3.33,4.58s-3.415,1.572-5.693,1.572
			c-3.606,0-6.276-1.179-8.008-3.535c-1.367-1.888-2.051-4.271-2.051-7.148c0-3.438,0.898-6.13,2.695-8.076s4.069-2.92,6.816-2.92
			c3.086,0,5.521,1.019,7.305,3.057s2.637,5.159,2.559,9.365h-13.75c0.039,1.628,0.481,2.894,1.328,3.799s1.901,1.357,3.164,1.357
			c0.859,0,1.582-0.234,2.168-0.703S277.523,260.911,277.823,259.869z M278.136,254.322c-0.039-1.589-0.449-2.796-1.23-3.623
			s-1.731-1.24-2.852-1.24c-1.198,0-2.188,0.437-2.969,1.309s-1.165,2.058-1.152,3.555H278.136z"/>
		<path fill="#5E5E5E" d="M293.312,266.471h-5.488v-20.742h5.098v2.949c0.872-1.394,1.657-2.312,2.354-2.754
			s1.487-0.664,2.373-0.664c1.25,0,2.454,0.345,3.613,1.035l-1.699,4.785c-0.925-0.599-1.784-0.898-2.578-0.898
			c-0.769,0-1.419,0.212-1.953,0.635s-0.954,1.188-1.26,2.295s-0.459,3.425-0.459,6.953V266.471z"/>
	</g>
</g>
<g>
	<g>
		<g>
			<path fill="#467F28" d="M260.269,193.51l-26.688-26.699l-1.35,9.006c-0.638,4.146-2.942,7.973-6.346,10.423
				c-3.378,2.463-7.602,3.51-11.813,2.821l-14.914-2.437c-1.232-0.081-1.974,0.265-2.519,0.82l-2.541,2.558l34.858,34.844
				c1.353,1.353,3.298,1.828,5.101,1.284c1.8-0.568,3.124-2.066,3.495-3.932l3.139-16.914l16.967-3.179
				c1.854-0.344,3.35-1.68,3.894-3.497C262.108,196.796,261.605,194.821,260.269,193.51z"/>
		</g>
		<g>
			<path fill="#467F28" d="M150.923,186.557l-15.363,2.504c-4.305,0.661-8.477-0.371-11.865-2.861
				c-3.379-2.437-5.684-6.251-6.317-10.423l-1.353-8.966L89.349,193.51c-1.322,1.326-1.813,3.286-1.269,5.087
				c0.568,1.813,2.078,3.125,3.905,3.496l16.954,3.164l3.178,16.941c0.345,1.865,1.683,3.363,3.484,3.932
				c1.788,0.544,3.748,0.068,5.071-1.27l34.847-34.858l-2.543-2.57C152.419,186.863,151.678,186.557,150.923,186.557z"/>
		</g>
		<g>
			<g>
				<path fill="#467F28" d="M200.179,180.358l14.898,2.41c2.492,0.396,5.035-0.212,7.073-1.709c2.014-1.456,3.419-3.708,3.789-6.21
					l2.238-14.874c0.45-2.993,2.316-5.535,5.019-6.899l13.47-6.729c2.278-1.151,3.987-3.125,4.755-5.521
					c0.794-2.424,0.543-5.02-0.597-7.272l-6.94-13.417c-1.363-2.622-1.363-5.815,0-8.463l6.94-13.405
					c1.14-2.25,1.379-4.847,0.597-7.27c-0.782-2.411-2.489-4.371-4.755-5.523l-13.47-6.729c-2.702-1.365-4.568-3.906-5.019-6.899
					l-2.238-14.873c-0.37-2.504-1.775-4.742-3.789-6.199c-2.038-1.511-4.581-2.12-7.073-1.708l-14.898,2.489
					c-2.953,0.49-5.946-0.489-8.065-2.621l-10.582-10.755c-1.788-1.788-4.185-2.794-6.729-2.794c-2.503,0-4.953,1.02-6.729,2.794
					l-10.582,10.755c-2.104,2.145-5.112,3.111-8.066,2.621l-14.874-2.45c-2.488-0.41-5.03,0.2-7.084,1.709
					c-2.026,1.456-3.418,3.694-3.789,6.197l-2.224,14.874c-0.463,2.994-2.318,5.537-5.02,6.9l-13.483,6.727
					c-2.239,1.153-3.973,3.113-4.739,5.524c-0.783,2.423-0.56,5.019,0.582,7.271l6.938,13.402c1.378,2.636,1.378,5.828,0,8.464
					l-6.938,13.415c-1.142,2.253-1.365,4.847-0.582,7.271c0.778,2.398,2.487,4.372,4.739,5.523l13.483,6.729
					c2.701,1.363,4.557,3.907,5.02,6.9l2.224,14.874c0.371,2.49,1.763,4.74,3.789,6.21c2.038,1.499,4.582,2.108,7.084,1.709
					l14.874-2.45c2.954-0.516,5.963,0.477,8.066,2.61l10.582,10.727c1.789,1.827,4.213,2.834,6.729,2.834
					c2.528,0,4.953-1.007,6.729-2.834l10.582-10.727C194.232,180.835,197.238,179.843,200.179,180.358z M174.774,171.509
					c-30.953,0-56.138-25.182-56.138-56.14c0-30.953,25.185-56.134,56.138-56.134s56.138,25.181,56.14,56.134
					C230.914,146.327,205.728,171.509,174.774,171.509z"/>
			</g>
		</g>
		<g>
			<g>
				<path fill="#467F28" d="M174.416,61.808c-29.535,0-53.564,24.028-53.564,53.561c0,29.536,24.029,53.566,53.564,53.566
					c29.533,0,53.561-24.03,53.561-53.566C227.977,85.836,203.949,61.808,174.416,61.808z M174.416,163.578
					c-26.582,0-48.208-21.627-48.208-48.209c0-26.58,21.626-48.205,48.208-48.205c26.58,0,48.204,21.625,48.204,48.205
					C222.62,141.951,200.996,163.578,174.416,163.578z"/>
			</g>
		</g>
		<g>
			<g>
				<path fill="#467F28" d="M142.861,138.24c2.642-0.354,4.966-1.401,7.171-2.802c3.344-2.124,5.466-4.395,9.284-7.694
					c5.374-4.621,8.863-4.338,14.973-4.411c6.11,0.073,9.599-0.21,14.973,4.411c3.818,3.3,5.939,5.57,9.286,7.694
					c2.203,1.4,4.528,2.447,7.169,2.802c3.688,0.495,13.34-1.163,10.054-18.817c-1.181-7.124-3.69-13.459-7.618-19.825
					c-6.351-9.804-14.889-9.71-20.261-7.319c-3.007,1.176-8.302,2.391-13.584,2.394c-5.308,0.003-10.602-1.212-13.622-2.394
					c-5.372-2.391-13.91-2.484-20.262,7.319c-3.926,6.366-6.436,12.7-7.615,19.825C129.522,137.078,139.174,138.735,142.861,138.24
					 M203.689,106.255c2.1,0,3.801,1.701,3.801,3.799c0,2.1-1.701,3.801-3.801,3.801c-2.099,0-3.8-1.701-3.8-3.801
					C199.889,107.956,201.591,106.255,203.689,106.255 M196.254,99.068c2.099,0,3.8,1.701,3.8,3.8c0,2.1-1.701,3.801-3.8,3.801
					c-2.1,0-3.801-1.701-3.801-3.801C192.453,100.77,194.154,99.068,196.254,99.068 M196.254,113.219c2.099,0,3.8,1.701,3.8,3.8
					c0,2.1-1.701,3.801-3.8,3.801c-2.1,0-3.801-1.701-3.801-3.801C192.453,114.92,194.154,113.219,196.254,113.219 M188.488,106.255
					c2.099,0,3.801,1.701,3.801,3.799c0,2.1-1.702,3.801-3.801,3.801c-2.1,0-3.801-1.701-3.801-3.801
					C184.688,107.956,186.389,106.255,188.488,106.255 M144.039,107.929h5.837v-5.838c0-1.27,1.029-2.3,2.299-2.3
					c1.269,0,2.298,1.029,2.298,2.3v5.838h5.839c1.269,0,2.299,1.027,2.299,2.299c0,1.269-1.03,2.298-2.299,2.298h-5.839v5.836
					c0,1.269-1.029,2.3-2.298,2.3c-1.27,0-2.299-1.031-2.299-2.3v-5.836h-5.837c-1.27,0-2.299-1.029-2.299-2.298
					C141.74,108.957,142.77,107.929,144.039,107.929"/>
			</g>
		</g>
	</g>
</g>
</svg>
