<?xml version="1.0" encoding="utf-8"?>
<!-- Generator: Adobe Illustrator 16.0.0, SVG Export Plug-In . SVG Version: 6.00 Build 0)  -->
<!DOCTYPE svg PUBLIC "-//W3C//DTD SVG 1.1//EN" "http://www.w3.org/Graphics/SVG/1.1/DTD/svg11.dtd">
<svg version="1.1" id="Layer_1" xmlns="http://www.w3.org/2000/svg" xmlns:xlink="http://www.w3.org/1999/xlink" x="0px" y="0px"
	 width="350px" height="350px" viewBox="0 0 350 350" enable-background="new 0 0 350 350" xml:space="preserve">
<g>
	<path fill="#FEBE10" d="M175,0C78.357,0,0,78.357,0,175c0,96.643,78.357,175,175,175s175-78.357,175-175
		C350,78.357,271.643,0,175,0z M175,328.125c-84.424,0-153.125-68.701-153.125-153.125S90.576,21.875,175,21.875
		S328.125,90.576,328.125,175S259.424,328.125,175,328.125z"/>
	<path fill="#FEBE10" d="M225.42,169.497c-3.2-3.206-5.798-5.87-5.798-5.945c0-0.08-14.16-26.705-34.891-40.311
		c-20.729-13.606-14.896-24.615-14.896-35.622c0-9.284-11.5-11.666-19.378-1.341c-2.752,3.604-5.452,10.592-5.988,15.088
		c-1.643,13.666,7.301,22.772,10.586,27.707c2.224,3.333,3.511,9.525,1.196,17.211H103.14c-10.498,0-16.184,8.089-12.62,17.969
		l27.023,74.996c1.525,4.249,6.466,7.724,10.98,7.724h63.814c4.514,0,10.813,2.606,14.004,5.8l2.936,2.938
		c3.206,3.201,8.396,3.201,11.605,0l39.57-39.579c3.206-3.201,3.206-8.396,0-11.602L225.42,169.497z"/>
</g>
</svg>
