<?xml version="1.0" encoding="utf-8"?>
<!-- Generator: Adobe Illustrator 16.0.0, SVG Export Plug-In . SVG Version: 6.00 Build 0)  -->
<!DOCTYPE svg PUBLIC "-//W3C//DTD SVG 1.1//EN" "http://www.w3.org/Graphics/SVG/1.1/DTD/svg11.dtd">
<svg version="1.1" id="Layer_1" xmlns="http://www.w3.org/2000/svg" xmlns:xlink="http://www.w3.org/1999/xlink" x="0px" y="0px"
	 width="1000px" height="1000px" viewBox="0 0 1000 1000" enable-background="new 0 0 1000 1000" xml:space="preserve">
<g>
	<path fill="#7C008C" d="M169.024,876.153c-11.201,0-12.115,4.37-12.115-68.876c0-71.165,3.658-64.298,11.201-64.298h12.572
		c9.601,0,9.83,0.624,9.83,3.12c0,7.699-2.743,15.398-2.743,38.079c0,52.438,8.915,84.69,8.915,86.563
		c0,6.658-6.857,5.41-12.115,5.41L169.024,876.153L169.024,876.153z M159.424,713.016c0-8.947,8.458-14.357,17.602-14.357
		s17.602,5.41,17.602,14.357s-8.458,13.733-17.602,13.733S159.424,721.963,159.424,713.016z"/>
	<path fill="#7C008C" d="M216.111,842.027c0-9.779,5.486-22.266,7.315-22.266c1.143,0,6.858,31.421,39.318,31.421
		c9.372,0,20.345-4.37,20.345-14.981c0-21.434-61.72-15.814-61.72-57.224c0-25.387,22.402-39.119,47.09-39.119
		c28.574,0,44.347,15.605,44.347,19.768c0,3.954-12.801,20.809-18.059,20.809c-5.943,0-7.315-16.021-28.346-16.021
		c-7.086,0-16.687,2.913-16.687,9.155c0,21.434,66.749,21.017,66.749,63.258c0,27.051-24.688,42.449-52.119,42.449
		C240.114,879.274,216.111,866.373,216.111,842.027z"/>
	<path fill="#7C008C" d="M330.176,815.185c0-50.355,30.631-75.325,61.264-75.325c25.145,0,46.403,12.9,46.403,37.455
		c0,44.737-73.605,35.374-73.605,57.015c0,9.78,17.373,16.854,28.802,16.854c37.489,0,37.489-26.011,40.688-26.011
		c3.43,0,4.115,10.82,4.115,12.485c0,26.426-22.401,41.616-49.833,41.616C347.092,879.274,330.176,848.479,330.176,815.185z
		 M361.036,794.584c0,2.289,1.143,4.578,4.115,4.578c2.742,0,44.347-8.323,44.347-18.937c0-10.195-10.516-15.813-19.202-15.813
		C371.78,764.412,361.036,782.516,361.036,794.584z"/>
	<path fill="#7C008C" d="M465.041,876.153c-8,0-7.086-69.708-7.086-74.494c0-9.78-0.915-103.002,9.372-103.002h21.716
		c2.515,0,9.372-0.624,9.372,3.954c0,1.248-9.601,31.213-9.601,83.024c0,57.225,8.687,85.314,8.687,88.021
		c0,3.537-5.943,2.497-8.458,2.497H465.041z"/>
	<path fill="#7C008C" d="M607.678,742.979c8.001,0,9.603,0,9.603,11.86c0,87.396-49.604,124.436-57.148,124.436
		c-5.258,0-51.204-34.958-51.204-129.846c0-6.034,0.914-6.45,7.086-6.45h17.603c3.2,0,9.829-1.039,9.829,3.329
		c0,4.786-1.144,9.156-1.144,18.313c0,51.188,16.688,71.373,21.945,71.373c8,0,22.857-28.508,22.857-69.084
		c0-7.283-1.37-13.109-1.37-19.561c0-4.786,2.285-4.37,6.856-4.37H607.678L607.678,742.979z"/>
	<path fill="#7C008C" d="M626.876,815.185c0-50.355,30.631-75.325,61.263-75.325c25.146,0,46.403,12.9,46.403,37.455
		c0,44.737-73.606,35.374-73.606,57.015c0,9.78,17.373,16.854,28.804,16.854c37.488,0,37.488-26.011,40.688-26.011
		c3.43,0,4.114,10.82,4.114,12.485c0,26.426-22.401,41.616-49.833,41.616C643.791,879.274,626.876,848.479,626.876,815.185z
		 M657.735,794.584c0,2.289,1.144,4.578,4.114,4.578c2.743,0,44.348-8.323,44.348-18.937c0-10.195-10.517-15.813-19.202-15.813
		C668.479,764.412,657.735,782.516,657.735,794.584z"/>
	<path fill="#7C008C" d="M746.883,815.185c0-50.355,30.631-75.325,61.264-75.325c25.145,0,46.402,12.9,46.402,37.455
		c0,44.737-73.605,35.374-73.605,57.015c0,9.78,17.373,16.854,28.803,16.854c37.489,0,37.489-26.011,40.688-26.011
		c3.43,0,4.114,10.82,4.114,12.485c0,26.426-22.4,41.616-49.833,41.616C763.798,879.274,746.883,848.479,746.883,815.185z
		 M777.742,794.584c0,2.289,1.144,4.578,4.115,4.578c2.742,0,44.347-8.323,44.347-18.937c0-10.195-10.517-15.813-19.202-15.813
		C788.486,764.412,777.742,782.516,777.742,794.584z"/>
</g>
<g>
	<path fill="#7C008C" d="M281.04,942.346c0.067-3.391,0.135-6.595,0.204-9.612c0.066-3.018,0.135-5.95,0.203-8.8
		c0.067-5.152,0-10.003-0.203-14.547c-0.204-4.543-0.781-9.054-1.729-13.528c0.135-1.356,0.695-2.289,1.678-2.798
		c0.982-0.51,2-0.713,3.052-0.61c1.051,0.102,2,0.476,2.849,1.119c0.847,0.646,1.236,1.408,1.17,2.289
		c0.745,9.697,1,18.938,0.763,27.72c-0.238,8.783-0.458,17.515-0.661,26.194c4.339-1.764,7.935-3.255,10.783-4.477
		c2.849-1.221,5.171-2.237,6.968-3.052c1.796-0.813,3.136-1.458,4.018-1.933c0.881-0.475,1.526-0.849,1.934-1.119
		c0.406-0.271,0.644-0.475,0.712-0.61c0.066-0.136,0.204-0.237,0.407-0.306c0.948-0.475,1.864-0.457,2.746,0.051
		c0.882,0.509,1.526,1.221,1.934,2.137c0.407,0.915,0.474,1.882,0.203,2.899c-0.271,1.017-1.018,1.831-2.238,2.44
		c-2.782,1.289-5.29,2.459-7.528,3.51c-2.237,1.053-4.392,2.069-6.458,3.052c-2.069,0.983-4.12,1.934-6.154,2.849
		c-2.035,0.916-4.272,1.85-6.714,2.798c-1.696,0.678-3.171,0.897-4.425,0.661c-1.256-0.237-2.154-0.934-2.696-2.086
		c-0.679-1.287-1.018-3.118-1.018-5.493C280.836,948.721,280.903,945.805,281.04,942.346z"/>
	<path fill="#7C008C" d="M361.097,929.528c-2.44,5.29-5.035,9.731-7.781,13.325c-2.746,3.596-5.442,6.478-8.088,8.646
		c-2.645,2.171-5.137,3.73-7.477,4.68c-2.34,0.95-4.29,1.392-5.85,1.322c-2.171-0.067-3.832-0.848-4.984-2.34
		c-1.154-1.491-1.95-3.255-2.391-5.29c-0.442-2.034-0.628-4.153-0.561-6.357c0.067-2.202,0.204-4.019,0.407-5.441
		c-1.086-0.542-1.831-1.203-2.238-1.983c-0.407-0.779-0.645-1.609-0.712-2.492c-0.067-0.813,0.067-1.425,0.407-1.831
		c0.339-0.406,0.746-0.713,1.221-0.916c0.475-0.202,0.949-0.32,1.424-0.354s0.881-0.085,1.222-0.153
		c1.221-4.271,2.391-7.917,3.51-10.936c1.119-3.018,2.559-5.712,4.323-8.087c1.287-1.764,2.711-3.118,4.271-4.068
		c1.56-0.949,3.067-1.577,4.526-1.883c1.458-0.305,2.813-0.287,4.069,0.051c1.254,0.341,2.22,0.883,2.898,1.628
		c1.356,1.562,2.17,3.29,2.441,5.188c0.271,1.898,0.118,3.832-0.458,5.798c-0.577,1.968-1.476,3.917-2.696,5.85
		c-1.221,1.934-2.645,3.681-4.272,5.238c-0.882,0.883-1.849,1.747-2.898,2.595c-1.052,0.85-2.121,1.646-3.205,2.392
		c-1.085,0.745-2.154,1.424-3.205,2.033c-1.052,0.61-2.019,1.119-2.899,1.525c-0.34,1.289-0.576,2.611-0.712,3.968
		c-0.137,1.357-0.17,2.611-0.102,3.765c0.067,1.153,0.237,2.103,0.509,2.849c0.271,0.747,0.677,1.153,1.221,1.221
		c1.085,0.138,2.406-0.152,3.968-0.865c1.559-0.712,3.255-1.966,5.086-3.764c1.831-1.796,3.813-4.204,5.951-7.223
		c2.136-3.018,4.39-6.766,6.765-11.24c0.271-0.61,0.814-0.967,1.628-1.068s1.61-0.016,2.39,0.256
		c0.779,0.271,1.425,0.745,1.934,1.424C361.25,927.664,361.367,928.511,361.097,929.528z M333.428,928.715
		c0.746-0.339,1.796-1.033,3.154-2.086c1.355-1.051,2.645-2.288,3.865-3.713c0.677-0.813,1.355-1.712,2.035-2.695
		c0.677-0.981,1.202-1.933,1.576-2.849c0.372-0.915,0.561-1.763,0.561-2.543c0-0.779-0.305-1.373-0.916-1.78
		c-0.747-0.542-1.678-0.22-2.797,0.967c-1.119,1.188-2.205,2.695-3.255,4.526c-1.053,1.831-1.969,3.729-2.747,5.696
		C334.123,926.206,333.631,927.697,333.428,928.715z"/>
	<path fill="#7C008C" d="M373.508,925.154c-0.271,0-0.661,0.035-1.17,0.102c-0.508,0.068-1.307,0.188-2.391,0.356
		c-1.085,0.17-2.578,0.424-4.477,0.763c-0.882,0.137-1.561-0.136-2.035-0.813c-0.475-0.679-0.763-1.477-0.864-2.392
		c-0.103-0.916-0.052-1.797,0.152-2.646c0.203-0.848,0.542-1.373,1.018-1.576l9.46-1.831l-0.204-22.38
		c-0.137-0.949,0.168-1.68,0.916-2.188c0.746-0.508,1.577-0.763,2.492-0.763c0.916,0,1.746,0.255,2.493,0.763
		c0.744,0.509,1.084,1.272,1.017,2.289c0,0.882,0.016,2.324,0.051,4.323c0.034,2.001,0.103,4.104,0.204,6.308
		s0.187,4.308,0.254,6.308c0.066,2.001,0.103,3.441,0.103,4.322l14.647-2.237c0.949,0,1.679,0.341,2.188,1.018
		c0.509,0.679,0.813,1.459,0.916,2.34c0.102,0.883,0,1.695-0.306,2.441c-0.305,0.747-0.798,1.221-1.475,1.424l-15.564,2.95
		c0.067,7.393,0.288,13.682,0.662,18.87c0.372,5.188,0.524,9.273,0.458,12.258c-0.204,1.221-0.729,2.001-1.577,2.34
		s-1.747,0.391-2.695,0.152c-0.951-0.236-1.798-0.661-2.543-1.271c-0.747-0.609-1.086-1.254-1.019-1.933
		c-0.067-1.831-0.137-4.02-0.203-6.563c-0.067-2.543-0.137-5.171-0.204-7.884c-0.067-2.712-0.118-5.374-0.151-7.984
		C373.625,929.411,373.575,927.122,373.508,925.154z"/>
	<path fill="#7C008C" d="M437.595,953.23c0.746-0.271,2.035-0.746,3.866-1.426c1.831-0.677,3.848-1.489,6.053-2.44
		c2.203-0.948,4.492-1.983,6.866-3.104c2.373-1.118,4.477-2.236,6.308-3.355c1.83-1.119,3.255-2.222,4.271-3.308
		c1.017-1.084,1.355-2.066,1.017-2.948c-0.406-0.949-1.713-1.849-3.917-2.696c-2.204-0.847-4.849-1.729-7.935-2.646
		s-6.358-1.915-9.816-3.001c-3.458-1.084-6.663-2.354-9.612-3.813c-2.95-1.458-5.428-3.153-7.427-5.087
		c-2.001-1.934-3.068-4.223-3.203-6.866c-0.136-2.576,0.389-4.797,1.576-6.663c1.187-1.864,2.798-3.492,4.832-4.883
		c2.034-1.389,4.391-2.543,7.07-3.458c2.678-0.916,5.509-1.694,8.494-2.34c2.983-0.645,5.984-1.187,9.002-1.628
		c3.017-0.44,5.849-0.864,8.494-1.271c0.949,0.068,1.644,0.441,2.085,1.119c0.439,0.679,0.644,1.441,0.609,2.289
		c-0.034,0.849-0.305,1.662-0.813,2.44c-0.509,0.78-1.205,1.307-2.085,1.576c-1.492,0.407-3.29,0.78-5.391,1.119
		c-2.104,0.34-4.29,0.696-6.563,1.068c-2.273,0.373-4.544,0.813-6.815,1.321c-2.272,0.51-4.308,1.138-6.104,1.883
		c-1.798,0.747-3.29,1.646-4.476,2.694c-1.188,1.054-1.85,2.324-1.983,3.815c-0.137,1.627,0.796,3.069,2.797,4.323
		c2,1.256,4.56,2.44,7.68,3.561c3.119,1.118,6.526,2.204,10.224,3.255c3.695,1.053,7.137,2.204,10.325,3.459
		c3.187,1.255,5.864,2.646,8.036,4.17c2.169,1.526,3.289,3.273,3.357,5.239c0.066,1.968-0.56,4.019-1.882,6.154
		c-1.323,2.137-3.408,4.239-6.256,6.307c-2.849,2.07-6.495,4.104-10.937,6.104c-4.441,2.002-9.715,3.849-15.817,5.545
		c-0.68,0-1.271-0.239-1.78-0.713c-0.509-0.476-0.9-1.053-1.17-1.729c-0.272-0.678-0.34-1.39-0.204-2.137
		C436.509,954.418,436.916,953.773,437.595,953.23z"/>
	<path fill="#7C008C" d="M479.505,895.857c0-1.222,0.356-2.119,1.068-2.696c0.712-0.575,1.491-0.864,2.339-0.864
		c0.847,0,1.661,0.289,2.44,0.864c0.779,0.577,1.271,1.442,1.476,2.595l-0.916,33.062c0.677-2.238,1.593-4.153,2.747-5.748
		c1.151-1.593,2.391-2.882,3.713-3.865c1.322-0.982,2.696-1.661,4.12-2.034c1.424-0.372,2.747-0.491,3.967-0.355
		c1.425,0.203,2.915,0.949,4.477,2.237c1.56,1.289,2.898,3.442,4.019,6.459c1.119,3.02,1.848,7.004,2.188,11.953
		c0.34,4.951,0,11.189-1.018,18.718c-0.34,0.95-0.915,1.576-1.729,1.883c-0.813,0.305-1.627,0.338-2.44,0.102
		c-0.813-0.238-1.543-0.677-2.188-1.322c-0.646-0.644-0.898-1.476-0.764-2.492c0.678-5.087,1.068-9.358,1.17-12.816
		c0.104-3.459,0.018-6.309-0.254-8.545c-0.271-2.238-0.696-3.95-1.271-5.139c-0.577-1.186-1.171-2.05-1.78-2.594
		c-0.611-0.542-1.205-0.83-1.781-0.864c-0.577-0.033-1.001-0.017-1.271,0.052c-1.425,0.405-2.798,1.662-4.12,3.764
		c-1.322,2.103-2.509,4.663-3.561,7.68c-1.052,3.02-1.882,6.274-2.492,9.767c-0.609,3.493-0.915,6.833-0.915,10.021
		c0,0.882-0.442,1.543-1.323,1.983c-0.882,0.439-1.831,0.661-2.849,0.661c-1.017,0-1.917-0.238-2.695-0.713
		c-0.78-0.474-1.068-1.186-0.865-2.137L479.505,895.857z"/>
	<path fill="#7C008C" d="M519.382,921.085c0.814-2.78,2-5.425,3.562-7.935c1.56-2.509,3.594-4.611,6.104-6.308
		c1.019-0.609,1.949-0.981,2.798-1.119c0.848-0.135,1.593-0.116,2.237,0.052c0.645,0.17,1.136,0.441,1.476,0.813
		c0.339,0.374,0.475,0.729,0.406,1.068c2.849,0,5.306,0.525,7.376,1.577c2.067,1.052,3.779,2.491,5.137,4.322
		c1.355,1.831,2.355,4.019,3.001,6.563c0.645,2.543,0.933,5.34,0.864,8.392c-0.067,3.527-0.424,7.004-1.066,10.428
		c-0.646,3.426-1.663,6.511-3.053,9.258c-1.392,2.746-3.171,4.983-5.341,6.714c-2.171,1.729-4.781,2.629-7.833,2.695
		c-2.51,0.065-4.729-0.458-6.663-1.577c-1.933-1.118-3.596-2.646-4.983-4.577c-1.392-1.934-2.511-4.153-3.357-6.663
		c-0.849-2.508-1.441-5.137-1.779-7.884c-0.341-2.746-0.406-5.477-0.204-8.188S518.703,923.46,519.382,921.085z M535.251,914.677
		c-2.306,0-4.188,0.882-5.646,2.646c-1.459,1.765-2.511,3.983-3.153,6.663c-0.646,2.68-0.934,5.579-0.864,8.696
		c0.066,3.12,0.474,6.021,1.221,8.697c0.745,2.682,1.764,4.936,3.052,6.766c1.288,1.832,2.849,2.746,4.68,2.746
		c1.897,0,3.525-0.744,4.883-2.237c1.356-1.49,2.457-3.407,3.308-5.747c0.847-2.34,1.456-4.898,1.83-7.682
		c0.371-2.778,0.524-5.392,0.457-7.832c-0.137-4.137-0.982-7.289-2.543-9.461C540.913,915.762,538.507,914.677,535.251,914.677z"/>
	<path fill="#7C008C" d="M565.261,955.672c-0.137-0.813-0.425-2.525-0.864-5.138c-0.441-2.609-1.053-5.95-1.83-10.021
		c-0.781-4.068-1.715-8.748-2.799-14.038c-1.086-5.29-2.34-10.985-3.764-17.09c0.339-1.084,0.932-1.864,1.78-2.34
		c0.847-0.474,1.712-0.694,2.594-0.661c0.881,0.035,1.679,0.307,2.392,0.813c0.712,0.509,1.102,1.205,1.17,2.086l6.511,36.111
		c0.27-0.745,0.523-1.947,0.763-3.61c0.236-1.661,0.509-3.576,0.813-5.747c0.306-2.17,0.677-4.527,1.118-7.07
		c0.44-2.543,1.033-5.035,1.78-7.477c0.271-1.019,0.778-1.864,1.525-2.543c0.746-0.679,1.542-1.084,2.391-1.222
		c0.849-0.136,1.661,0.051,2.441,0.561c0.778,0.508,1.407,1.44,1.882,2.797l7.223,24.516c0.407-1.896,0.898-4.425,1.477-7.578
		c0.575-3.152,1.169-6.511,1.78-10.07c0.608-3.561,1.221-7.12,1.829-10.682c0.611-3.561,1.188-6.695,1.729-9.41
		c0.61-0.677,1.271-1.135,1.984-1.373c0.712-0.235,1.405-0.254,2.085-0.051c0.677,0.203,1.271,0.61,1.779,1.222
		c0.51,0.61,0.864,1.424,1.068,2.44l-8.749,45.269c-0.203,0.883-0.696,1.525-1.475,1.934c-0.78,0.406-1.628,0.609-2.543,0.609
		c-0.916,0-1.766-0.17-2.543-0.509c-0.781-0.339-1.308-0.848-1.577-1.525c-0.407-1.084-0.915-2.525-1.526-4.323
		c-0.609-1.796-1.255-3.764-1.933-5.9c-0.68-2.136-1.392-4.339-2.137-6.61c-0.746-2.271-1.491-4.392-2.237-6.358
		c-0.271,0.882-0.577,2.104-0.915,3.662c-0.341,1.562-0.661,3.239-0.967,5.035c-0.306,1.798-0.596,3.596-0.864,5.392
		c-0.272,1.798-0.509,3.375-0.713,4.73c-0.203,1.356-0.392,2.408-0.56,3.152c-0.171,0.747-0.255,0.916-0.255,0.51
		c-0.067,0.747-0.56,1.391-1.475,1.933c-0.916,0.542-1.95,0.898-3.104,1.068c-1.153,0.168-2.256,0.065-3.307-0.307
		C566.192,957.487,565.531,956.757,565.261,955.672z"/>
	<path fill="#7C008C" d="M641.351,943.261c-0.609,1.425-1.491,3.02-2.645,4.781c-1.154,1.765-2.492,3.408-4.019,4.934
		c-1.525,1.526-3.172,2.815-4.935,3.866c-1.764,1.051-3.561,1.542-5.391,1.476c-2.578-0.068-4.73-0.915-6.46-2.543
		c-1.73-1.629-3.139-3.746-4.223-6.357c-1.086-2.61-1.917-5.611-2.492-9.003c-0.576-3.391-0.949-6.883-1.118-10.479
		c-0.17-3.594-0.222-7.205-0.152-10.834c0.066-3.627,0.186-6.983,0.354-10.07c0.17-3.085,0.321-5.764,0.459-8.036
		c0.136-2.271,0.203-3.916,0.203-4.935c0.271-1.084,0.881-1.847,1.83-2.289c0.949-0.438,1.935-0.609,2.95-0.508
		c1.019,0.103,1.916,0.424,2.696,0.967c0.777,0.544,1.17,1.188,1.17,1.933c-1.425,10.31-2.121,18.938-2.086,25.89
		c0.033,6.952,0.423,12.547,1.17,16.784c0.746,4.239,1.679,7.273,2.798,9.104c1.119,1.83,2.05,2.746,2.797,2.746
		c1.628,0,3.256-0.712,4.883-2.137c1.628-1.424,3.138-3.136,4.527-5.137c1.389-2,2.576-4.034,3.561-6.104
		c0.981-2.067,1.645-3.747,1.983-5.036c-0.203-2.236-0.374-5.034-0.509-8.392c-0.138-3.356-0.254-6.832-0.356-10.427
		c-0.102-3.594-0.17-7.07-0.203-10.427c-0.035-3.357-0.086-6.155-0.151-8.394c0.271-0.949,0.796-1.609,1.575-1.982
		c0.779-0.372,1.577-0.491,2.392-0.356c0.813,0.137,1.56,0.493,2.238,1.068c0.677,0.577,1.118,1.271,1.321,2.085
		c0.407,5.833,0.679,11.274,0.814,16.327c0.135,5.053,0.354,10.036,0.661,14.952c0.305,4.918,0.796,9.886,1.475,14.903
		c0.677,5.021,1.729,10.376,3.153,16.072c-0.137,1.288-0.526,2.238-1.17,2.849c-0.646,0.61-1.357,1-2.137,1.17
		c-0.779,0.168-1.476,0.117-2.086-0.152c-0.609-0.271-0.949-0.679-1.017-1.222c-0.407-0.813-0.764-1.882-1.068-3.204
		c-0.306-1.321-0.595-2.763-0.864-4.322c-0.271-1.561-0.56-3.169-0.864-4.832C642.114,946.33,641.758,944.754,641.351,943.261z"/>
	<path fill="#7C008C" d="M657.729,933.495c-1.017,0.407-1.849,0.374-2.491-0.103c-0.646-0.474-1.018-1.202-1.119-2.187
		c-0.103-0.982,0.118-2.103,0.662-3.357c0.542-1.254,1.489-2.457,2.848-3.61c-0.137-1.222-0.188-2.373-0.152-3.458
		c0.033-1.084,0.117-2.068,0.255-2.95c0.203-1.425,0.627-2.457,1.271-3.104c0.646-0.644,1.356-1.018,2.137-1.119
		c0.778-0.102,1.525,0.019,2.238,0.355c0.712,0.341,1.203,0.781,1.475,1.323c0.882-0.746,2.052-1.645,3.511-2.696
		c1.457-1.051,3.033-2.067,4.729-3.052c1.694-0.982,3.44-1.78,5.238-2.392c1.796-0.609,3.51-0.88,5.137-0.813
		c2.374,0.137,4.085,1.035,5.138,2.695c1.052,1.663,1.68,3.61,1.883,5.85s0.084,4.511-0.356,6.815
		c-0.44,2.307-0.966,4.206-1.576,5.695c-1.356,3.188-3.103,6.309-5.238,9.359c-2.137,3.052-4.342,5.833-6.612,8.342
		c-2.272,2.509-4.46,4.663-6.562,6.459c-2.104,1.798-3.831,3.036-5.188,3.713l0.102,31.229c-0.202,1.151-0.712,1.948-1.524,2.391
		c-0.814,0.44-1.68,0.661-2.594,0.661c-0.916,0-1.729-0.221-2.441-0.661c-0.713-0.441-1.104-1.001-1.17-1.679L657.729,933.495z
		 M664.748,945.906c1.287-0.407,2.712-1.288,4.271-2.646c1.561-1.354,3.137-2.982,4.73-4.883c1.592-1.896,3.118-4,4.577-6.307
		c1.458-2.306,2.661-4.543,3.61-6.714s1.577-4.204,1.883-6.104c0.306-1.896,0.151-3.458-0.458-4.679
		c-0.406-0.746-1.341-0.916-2.797-0.509c-1.459,0.405-3.104,1.187-4.935,2.339c-1.831,1.153-3.68,2.562-5.544,4.222
		c-1.866,1.663-3.443,3.375-4.729,5.138L664.748,945.906z"/>
	<path fill="#7C008C" d="M728.225,895.349c-0.341,5.63-0.544,10.683-0.609,15.157c-0.068,4.477-0.104,8.58-0.104,12.31
		s0.034,7.172,0.104,10.324c0.065,3.153,0.102,6.257,0.102,9.309c0,1.018-0.374,1.78-1.119,2.289
		c-0.747,0.509-1.577,0.763-2.492,0.763c-0.916,0-1.746-0.236-2.491-0.712c-0.747-0.474-1.154-1.152-1.222-2.034
		c-0.203-3.933-0.306-8.002-0.306-12.207c0-4.204,0.017-8.324,0.051-12.359c0.034-4.033,0.052-7.899,0.052-11.598
		c0-3.694-0.137-6.968-0.406-9.815c-0.138-1.425,0.235-2.476,1.119-3.153c0.88-0.677,1.882-1.033,3.001-1.068
		c1.117-0.032,2.136,0.204,3.052,0.713C727.868,893.771,728.291,894.468,728.225,895.349z M723.748,951.196
		c1.425-0.271,2.628-0.137,3.611,0.405c0.981,0.545,1.609,1.257,1.882,2.138c0.271,0.882,0.153,1.764-0.355,2.645
		c-0.509,0.882-1.577,1.525-3.204,1.934c-1.695,0.406-3.035,0.32-4.019-0.255c-0.984-0.574-1.577-1.321-1.78-2.237
		c-0.203-0.915,0-1.831,0.61-2.746C721.104,952.162,722.188,951.536,723.748,951.196z"/>
</g>
<path fill="#7C008C" d="M901.367,286.723c-1.478-3.576-3.162-7.133-4.953-10.681c-0.271,23.836-4.381,49.748-12.43,77.966
	c-31.095,108.88-148.915,205.173-285.887,268.4c144.409-86.354,266.547-216.579,274.989-344.56
	c5.33-80.908-14.979-139.648-62.123-179.582c-32.547-27.608-79.373-47.164-139.184-58.15
	c-66.761-12.272-151.916-14.317-253.088-6.042l-3.41,0.293C210.059,52.234,90.056,163.416,94.271,331.787
	c0.413,16.549,3.756,35.748,9.663,56.524c1.2,60.76,12.865,124.876,37.94,178.356c24.507,52.258,59.375,87.109,100.826,100.806
	c10.824,3.568,22.286,5.814,34.115,6.628c3.751,0.266,7.532,0.497,11.32,0.708c-23.82-12.459-47.054-31.205-68.904-55.851
	c-43.806-49.414-76.437-114.557-96.008-177.476c31.696,72.826,87.083,153.134,154.626,205.718
	c48.274,37.598,96.956,55.439,140.755,51.636c11.418-0.992,22.745-3.467,33.679-7.324c30.266-10.687,60.846-23.803,90.979-38.958
	c138.17-31.143,264.467-92.73,323.047-181.964C912.15,400.736,923.625,340.584,901.367,286.723z M420.394,546.48
	c-63.249,0-125.898-33.676-125.898-97.222c0-25.528,14.319-58.122,19.092-58.122c2.987,0,17.904,82.02,102.633,82.02
	c24.463,0,53.104-11.405,53.104-39.106c0-55.945-161.104-41.28-161.104-149.365c0-66.268,58.473-102.116,122.917-102.116
	c74.584,0,115.754,40.739,115.754,51.604c0,10.319-33.414,54.313-47.139,54.313c-15.511,0-19.092-41.821-73.987-41.821
	c-18.498,0-43.559,7.601-43.559,23.897c0,55.945,174.231,54.858,174.231,165.117C556.438,506.287,491.996,546.48,420.394,546.48z"/>
</svg>
