<?xml version="1.0" encoding="utf-8"?>
<!-- Generator: Adobe Illustrator 16.0.0, SVG Export Plug-In . SVG Version: 6.00 Build 0)  -->
<!DOCTYPE svg PUBLIC "-//W3C//DTD SVG 1.1//EN" "http://www.w3.org/Graphics/SVG/1.1/DTD/svg11.dtd">
<svg version="1.1" id="Layer_1" xmlns="http://www.w3.org/2000/svg" xmlns:xlink="http://www.w3.org/1999/xlink" x="0px" y="0px"
	 width="350px" height="350px" viewBox="0 0 350 350" enable-background="new 0 0 350 350" xml:space="preserve">
<g>
	<g>
		<path fill="#2D3E4F" d="M126.027,301.07c-0.998,0.499-2.994,0.998-5.552,0.998c-5.926,0-10.386-3.742-10.386-10.635
			c0-6.581,4.46-11.041,10.979-11.041c2.619,0,4.272,0.562,4.99,0.936l-0.655,2.215c-1.029-0.5-2.495-0.874-4.241-0.874
			c-4.929,0-8.203,3.15-8.203,8.671c0,5.146,2.963,8.452,8.078,8.452c1.652,0,3.337-0.343,4.429-0.873L126.027,301.07z"/>
		<path fill="#2D3E4F" d="M130.516,294.708c0.063,3.712,2.434,5.24,5.178,5.24c1.965,0,3.15-0.344,4.18-0.78l0.468,1.965
			c-0.967,0.437-2.62,0.936-5.021,0.936c-4.647,0-7.423-3.057-7.423-7.609c0-4.554,2.682-8.141,7.079-8.141
			c4.929,0,6.238,4.335,6.238,7.111c0,0.562-0.063,0.998-0.094,1.278H130.516z M138.563,292.743c0.031-1.746-0.717-4.46-3.805-4.46
			c-2.776,0-3.992,2.558-4.211,4.46H138.563z"/>
		<path fill="#2D3E4F" d="M144.61,291.371c0-1.778-0.03-3.307-0.124-4.71h2.401l0.094,2.963h0.124
			c0.687-2.027,2.34-3.306,4.18-3.306c0.312,0,0.53,0.031,0.779,0.094v2.589c-0.28-0.063-0.561-0.094-0.936-0.094
			c-1.934,0-3.306,1.466-3.68,3.524c-0.063,0.374-0.125,0.811-0.125,1.278v8.047h-2.714V291.371z"/>
		<path fill="#2D3E4F" d="M158.862,282.326v4.335h3.93v2.09h-3.93v8.141c0,1.871,0.53,2.932,2.059,2.932
			c0.717,0,1.247-0.094,1.591-0.188l0.124,2.059c-0.53,0.219-1.372,0.374-2.433,0.374c-1.278,0-2.308-0.405-2.963-1.153
			c-0.779-0.812-1.061-2.152-1.061-3.93v-8.234h-2.339v-2.09h2.339v-3.618L158.862,282.326z"/>
		<path fill="#2D3E4F" d="M168.935,282.42c0.031,0.936-0.654,1.684-1.746,1.684c-0.967,0-1.653-0.748-1.653-1.684
			c0-0.967,0.718-1.716,1.716-1.716C168.28,280.704,168.935,281.453,168.935,282.42z M165.878,301.757v-15.096h2.745v15.096H165.878
			z"/>
		<path fill="#2D3E4F" d="M173.456,301.757v-13.006h-2.121v-2.09h2.121v-0.811c0-3.992,2.339-6.581,6.581-6.581
			c1.403,0,3.057,0.437,3.836,0.998l-0.779,2.09c-0.655-0.468-1.841-0.873-3.182-0.873c-2.9,0-3.743,2.027-3.743,4.429v0.748h8.765
			v15.096h-2.714v-13.006h-6.051v13.006H173.456z"/>
		<path fill="#2D3E4F" d="M200.245,301.195c-0.718,0.374-2.308,0.873-4.335,0.873c-4.554,0-7.517-3.087-7.517-7.703
			c0-4.647,3.181-8.016,8.108-8.016c1.622,0,3.057,0.405,3.806,0.779l-0.624,2.121c-0.655-0.374-1.685-0.717-3.182-0.717
			c-3.462,0-5.333,2.557-5.333,5.707c0,3.493,2.246,5.646,5.24,5.646c1.559,0,2.588-0.405,3.368-0.749L200.245,301.195z"/>
		<path fill="#2D3E4F" d="M211.814,301.757l-0.219-1.902h-0.094c-0.842,1.185-2.464,2.245-4.615,2.245
			c-3.057,0-4.616-2.151-4.616-4.335c0-3.649,3.243-5.646,9.076-5.614v-0.312c0-1.248-0.344-3.493-3.431-3.493
			c-1.404,0-2.87,0.437-3.931,1.123l-0.623-1.81c1.247-0.811,3.056-1.341,4.959-1.341c4.615,0,5.738,3.15,5.738,6.176v5.645
			c0,1.311,0.063,2.589,0.25,3.618H211.814z M211.408,294.053c-2.994-0.062-6.394,0.469-6.394,3.4c0,1.777,1.186,2.619,2.589,2.619
			c1.965,0,3.213-1.247,3.649-2.526c0.094-0.28,0.155-0.592,0.155-0.873V294.053z"/>
		<path fill="#2D3E4F" d="M221.668,282.326v4.335h3.93v2.09h-3.93v8.141c0,1.871,0.53,2.932,2.059,2.932
			c0.717,0,1.247-0.094,1.59-0.188l0.125,2.059c-0.53,0.219-1.372,0.374-2.433,0.374c-1.278,0-2.308-0.405-2.963-1.153
			c-0.779-0.812-1.061-2.152-1.061-3.93v-8.234h-2.339v-2.09h2.339v-3.618L221.668,282.326z"/>
		<path fill="#2D3E4F" d="M230.025,294.708c0.063,3.712,2.434,5.24,5.178,5.24c1.965,0,3.15-0.344,4.18-0.78l0.468,1.965
			c-0.967,0.437-2.62,0.936-5.021,0.936c-4.647,0-7.423-3.057-7.423-7.609c0-4.554,2.682-8.141,7.079-8.141
			c4.929,0,6.238,4.335,6.238,7.111c0,0.562-0.063,0.998-0.094,1.278H230.025z M238.072,292.743c0.031-1.746-0.717-4.46-3.805-4.46
			c-2.776,0-3.992,2.558-4.211,4.46H238.072z"/>
	</g>
</g>
<g>
	<g>
		<path fill="#21759B" d="M220.123,266.592v-19.327h5.84l3.507,13.184l3.468-13.184h5.854v19.327h-3.626v-15.214l-3.837,15.214
			h-3.757l-3.823-15.214v15.214H220.123z"/>
		<path fill="#21759B" d="M245.408,256.862l-3.361-0.606c0.378-1.354,1.028-2.355,1.951-3.006s2.294-0.976,4.113-0.976
			c1.652,0,2.883,0.195,3.691,0.587c0.809,0.391,1.378,0.888,1.707,1.489c0.33,0.603,0.494,1.707,0.494,3.316l-0.039,4.324
			c0,1.23,0.06,2.138,0.178,2.722c0.119,0.585,0.341,1.211,0.666,1.879h-3.665c-0.097-0.246-0.216-0.61-0.356-1.095
			c-0.062-0.219-0.105-0.364-0.131-0.435c-0.633,0.615-1.311,1.077-2.031,1.384c-0.721,0.308-1.489,0.462-2.307,0.462
			c-1.441,0-2.577-0.391-3.408-1.173c-0.83-0.782-1.246-1.771-1.246-2.967c0-0.791,0.189-1.496,0.567-2.116
			c0.378-0.619,0.907-1.094,1.589-1.424c0.681-0.329,1.663-0.617,2.946-0.863c1.731-0.325,2.931-0.628,3.599-0.909v-0.369
			c0-0.713-0.176-1.22-0.527-1.523c-0.352-0.303-1.015-0.455-1.99-0.455c-0.659,0-1.174,0.13-1.543,0.39
			C245.936,255.757,245.637,256.212,245.408,256.862z M250.365,259.868c-0.475,0.158-1.226,0.348-2.254,0.566
			c-1.028,0.221-1.701,0.436-2.018,0.646c-0.483,0.343-0.725,0.777-0.725,1.305c0,0.52,0.193,0.968,0.58,1.346
			s0.879,0.566,1.477,0.566c0.668,0,1.305-0.22,1.912-0.659c0.447-0.334,0.742-0.742,0.883-1.226
			c0.097-0.316,0.145-0.919,0.145-1.807V259.868z"/>
		<path fill="#21759B" d="M256.352,262.597l3.718-0.566c0.158,0.721,0.479,1.268,0.962,1.642c0.483,0.373,1.16,0.56,2.031,0.56
			c0.957,0,1.678-0.175,2.162-0.527c0.324-0.245,0.487-0.575,0.487-0.988c0-0.281-0.088-0.514-0.264-0.699
			c-0.185-0.175-0.598-0.338-1.239-0.487c-2.988-0.659-4.883-1.261-5.682-1.806c-1.107-0.756-1.662-1.807-1.662-3.151
			c0-1.213,0.479-2.232,1.438-3.059s2.443-1.239,4.456-1.239c1.916,0,3.34,0.313,4.271,0.936c0.932,0.625,1.573,1.548,1.925,2.77
			l-3.494,0.646c-0.149-0.545-0.433-0.962-0.85-1.253c-0.418-0.289-1.014-0.435-1.787-0.435c-0.975,0-1.674,0.137-2.096,0.409
			c-0.281,0.193-0.422,0.443-0.422,0.751c0,0.264,0.123,0.487,0.369,0.673c0.334,0.246,1.487,0.593,3.461,1.041
			c1.973,0.448,3.351,0.998,4.133,1.648c0.773,0.658,1.16,1.577,1.16,2.755c0,1.283-0.536,2.386-1.608,3.31
			c-1.072,0.922-2.659,1.384-4.759,1.384c-1.908,0-3.417-0.387-4.529-1.16C257.422,264.975,256.694,263.925,256.352,262.597z"/>
		<path fill="#21759B" d="M279.093,252.591v2.953h-2.531v5.643c0,1.143,0.024,1.809,0.072,1.997c0.049,0.189,0.158,0.346,0.33,0.468
			c0.171,0.124,0.38,0.186,0.626,0.186c0.343,0,0.839-0.119,1.49-0.356l0.316,2.874c-0.862,0.369-1.838,0.554-2.928,0.554
			c-0.668,0-1.27-0.112-1.806-0.336c-0.536-0.225-0.93-0.515-1.18-0.87c-0.251-0.356-0.425-0.838-0.521-1.443
			c-0.08-0.431-0.119-1.301-0.119-2.611v-6.104h-1.701v-2.953h1.701v-2.781l3.718-2.162v4.943H279.093z"/>
		<path fill="#21759B" d="M289.771,262.136l3.691,0.619c-0.475,1.354-1.224,2.385-2.248,3.092c-1.023,0.708-2.305,1.062-3.843,1.062
			c-2.435,0-4.236-0.795-5.405-2.386c-0.923-1.274-1.385-2.883-1.385-4.826c0-2.32,0.607-4.137,1.82-5.451
			c1.213-1.313,2.746-1.971,4.601-1.971c2.083,0,3.727,0.688,4.931,2.063c1.204,1.375,1.779,3.482,1.727,6.321h-9.281
			c0.027,1.099,0.325,1.953,0.896,2.564c0.571,0.61,1.283,0.916,2.137,0.916c0.58,0,1.067-0.158,1.463-0.475
			S289.569,262.839,289.771,262.136z M289.982,258.392c-0.026-1.072-0.303-1.888-0.83-2.445c-0.527-0.559-1.17-0.838-1.926-0.838
			c-0.809,0-1.477,0.295-2.004,0.884s-0.786,1.389-0.777,2.399H289.982z"/>
		<path fill="#21759B" d="M300.227,266.592h-3.705v-14.001h3.441v1.99c0.589-0.939,1.118-1.56,1.589-1.858
			c0.47-0.299,1.004-0.448,1.602-0.448c0.844,0,1.656,0.233,2.438,0.699l-1.146,3.229c-0.624-0.404-1.204-0.606-1.74-0.606
			c-0.519,0-0.958,0.143-1.318,0.429c-0.36,0.285-0.644,0.802-0.851,1.549c-0.206,0.747-0.31,2.312-0.31,4.693V266.592z"/>
	</g>
</g>
<g>
	<path fill="#21759B" d="M260.265,193.51l-26.687-26.699l-1.351,9.006c-0.637,4.146-2.941,7.973-6.346,10.423
		c-3.377,2.463-7.601,3.51-11.813,2.821l-14.914-2.437c-1.232-0.081-1.973,0.265-2.518,0.82l-2.541,2.558l34.858,34.844
		c1.353,1.353,3.298,1.828,5.1,1.284c1.801-0.568,3.125-2.066,3.496-3.932l3.139-16.914l16.967-3.179
		c1.853-0.344,3.35-1.68,3.893-3.497C262.105,196.796,261.603,194.821,260.265,193.51z"/>
	<path fill="#21759B" d="M150.919,186.557l-15.363,2.504c-4.304,0.661-8.476-0.371-11.865-2.861
		c-3.378-2.437-5.683-6.251-6.317-10.423l-1.352-8.966L89.346,193.51c-1.322,1.326-1.813,3.286-1.271,5.087
		c0.57,1.813,2.08,3.125,3.907,3.496l16.953,3.164l3.179,16.941c0.344,1.865,1.682,3.363,3.483,3.932
		c1.788,0.544,3.748,0.068,5.072-1.27l34.846-34.858l-2.542-2.57C152.416,186.863,151.675,186.557,150.919,186.557z"/>
	<path fill="#21759B" d="M174.412,61.808c-29.535,0-53.563,24.028-53.563,53.561c0,29.536,24.028,53.566,53.563,53.566
		c29.533,0,53.561-24.03,53.561-53.566C227.973,85.836,203.945,61.808,174.412,61.808z M126.252,115.369
		c0-6.98,1.499-13.609,4.173-19.598l22.97,62.941C137.332,150.904,126.252,134.431,126.252,115.369z M174.412,163.53
		c-4.728,0-9.29-0.693-13.605-1.962l14.449-41.985l14.805,40.554c0.095,0.239,0.216,0.458,0.345,0.665
		C185.398,162.56,180.02,163.53,174.412,163.53z M181.048,92.791c2.897-0.152,5.513-0.458,5.513-0.458
		c2.593-0.307,2.288-4.121-0.31-3.968c0,0-7.797,0.612-12.836,0.612c-4.728,0-12.684-0.612-12.684-0.612
		c-2.595-0.153-2.899,3.815-0.304,3.968c0,0,2.459,0.306,5.052,0.458l7.503,20.557l-10.539,31.609l-17.539-52.164
		c2.904-0.152,5.513-0.459,5.513-0.459c2.595-0.308,2.289-4.12-0.308-3.966c0,0-7.799,0.611-12.835,0.611
		c-0.905,0-1.97-0.023-3.1-0.058c8.612-13.074,23.414-21.707,40.237-21.707c12.535,0,23.951,4.793,32.521,12.642
		c-0.209-0.012-0.411-0.039-0.624-0.039c-4.73,0-8.087,4.121-8.087,8.547c0,3.968,2.289,7.328,4.729,11.294
		c1.834,3.208,3.973,7.329,3.973,13.281c0,4.123-1.584,8.908-3.667,15.569l-4.803,16.052L181.048,92.791z M198.621,156.996
		l14.709-42.53c2.751-6.869,3.661-12.363,3.661-17.249c0-1.771-0.117-3.419-0.322-4.953c3.759,6.859,5.898,14.733,5.898,23.105
		C222.567,133.138,212.937,148.647,198.621,156.996z"/>
	<path fill="#21759B" d="M200.176,180.358l14.898,2.41c2.492,0.396,5.034-0.212,7.072-1.709c2.015-1.456,3.419-3.708,3.789-6.21
		l2.239-14.874c0.449-2.993,2.315-5.535,5.019-6.899l13.47-6.729c2.278-1.151,3.986-3.125,4.755-5.521
		c0.794-2.424,0.543-5.02-0.597-7.272l-6.94-13.417c-1.363-2.622-1.363-5.815,0-8.463l6.94-13.405c1.14-2.25,1.379-4.847,0.597-7.27
		c-0.782-2.411-2.49-4.371-4.755-5.523l-13.47-6.729c-2.703-1.365-4.569-3.906-5.019-6.899l-2.239-14.873
		c-0.37-2.504-1.774-4.742-3.789-6.199c-2.038-1.511-4.58-2.12-7.072-1.708l-14.898,2.489c-2.954,0.49-5.946-0.489-8.065-2.621
		l-10.582-10.755c-1.789-1.788-4.185-2.794-6.729-2.794c-2.502,0-4.952,1.02-6.728,2.794l-10.582,10.755
		c-2.105,2.145-5.112,3.111-8.066,2.621l-14.874-2.45c-2.488-0.41-5.031,0.2-7.084,1.709c-2.026,1.456-3.419,3.694-3.789,6.197
		l-2.225,14.874c-0.462,2.994-2.317,5.537-5.02,6.9l-13.482,6.727c-2.239,1.153-3.974,3.113-4.741,5.524
		c-0.781,2.423-0.558,5.019,0.583,7.271l6.94,13.402c1.376,2.636,1.376,5.828,0,8.464l-6.94,13.415
		c-1.141,2.253-1.364,4.847-0.583,7.271c0.78,2.398,2.489,4.372,4.741,5.523l13.482,6.729c2.702,1.363,4.558,3.907,5.02,6.9
		l2.225,14.874c0.37,2.49,1.763,4.74,3.789,6.21c2.038,1.499,4.582,2.108,7.084,1.709l14.874-2.45
		c2.954-0.516,5.961,0.477,8.066,2.61l10.582,10.727c1.788,1.827,4.213,2.834,6.728,2.834c2.529,0,4.953-1.007,6.729-2.834
		l10.582-10.727C194.229,180.835,197.235,179.843,200.176,180.358z M174.771,171.509c-30.954,0-56.138-25.182-56.138-56.14
		c0-30.953,25.184-56.134,56.138-56.134c30.953,0,56.137,25.181,56.14,56.134C230.911,146.327,205.725,171.509,174.771,171.509z"/>
</g>
<g>
	<path fill="#007599" d="M119.48,249.665h-8.54v0.907c2.672,0,3.102,0.57,3.102,3.958v6.105c0,3.387-0.43,4.007-3.102,4.007
		c-2.05-0.284-3.434-1.384-5.341-3.48l-2.195-2.387c2.96-0.524,4.531-2.384,4.531-4.484c0-2.621-2.239-4.626-6.438-4.626h-8.395
		v0.907c2.671,0,3.1,0.57,3.1,3.958v6.105c0,3.387-0.429,4.007-3.1,4.007v0.906h9.492v-0.906c-2.672,0-3.1-0.62-3.1-4.007v-1.717
		h0.811l5.294,6.63h13.881c6.819,0,9.777-3.626,9.777-7.965C129.258,253.241,126.3,249.665,119.48,249.665z M99.495,257.44v-6.344
		h1.953c2.147,0,3.102,1.479,3.102,3.196c0,1.669-0.954,3.147-3.102,3.147H99.495L99.495,257.44z M119.623,264.069h-0.333
		c-1.718,0-1.957-0.427-1.957-2.622v-10.351c0,0,2.1,0,2.29,0c4.961,0,5.868,3.624,5.868,6.438
		C125.491,260.445,124.584,264.069,119.623,264.069z"/>
	<path fill="#007599" d="M66.534,259.206l3.293-9.732c0.955-2.813,0.523-3.623-2.526-3.623v-0.955h8.965v0.955
		c-3.005,0-3.719,0.716-4.913,4.195l-5.437,16.315h-0.62l-4.867-14.931l-4.958,14.931h-0.62l-5.294-16.315
		c-1.146-3.479-1.908-4.195-4.676-4.195v-0.955h10.59v0.955c-2.814,0-3.577,0.667-2.576,3.623l3.196,9.732l4.817-14.311h0.905
		L66.534,259.206z"/>
	<path fill="#007599" d="M82.753,266.168c-5.246,0-9.539-3.863-9.539-8.584c0-4.677,4.293-8.54,9.539-8.54s9.539,3.863,9.539,8.54
		C92.292,262.305,87.999,266.168,82.753,266.168z M82.753,250.524c-4.389,0-5.915,3.957-5.915,7.06c0,3.147,1.526,7.059,5.915,7.059
		c4.437,0,5.962-3.911,5.962-7.059C88.715,254.481,87.189,250.524,82.753,250.524z"/>
	<path fill="#484544" d="M141.04,264.597v0.952h-10.925v-0.952c3.196,0,3.769-0.813,3.769-5.582v-7.632
		c0-4.771-0.572-5.532-3.769-5.532v-0.956h9.873c4.914,0,7.632,2.528,7.632,5.914c0,3.294-2.718,5.868-7.632,5.868h-2.72v2.338
		C137.269,263.784,137.844,264.597,141.04,264.597z M139.988,246.612h-2.72v8.3h2.72c2.673,0,3.912-1.861,3.912-4.104
		C143.9,248.521,142.661,246.612,139.988,246.612z"/>
	<path fill="#484544" d="M180.39,261.064l-0.238,0.858c-0.429,1.575-0.955,2.146-4.343,2.146h-0.667c-2.479,0-2.91-0.571-2.91-3.958
		v-2.194c3.721,0,4.009,0.335,4.009,2.814h0.905v-7.107h-0.905c0,2.48-0.288,2.814-4.009,2.814v-5.342h2.626
		c3.386,0,3.909,0.573,4.339,2.145l0.24,0.909h0.761l-0.332-4.485h-14.022v0.907c2.668,0,3.098,0.57,3.098,3.958v6.105
		c0,3.099-0.364,3.878-2.469,3.988c-2.001-0.305-3.377-1.394-5.257-3.462l-2.194-2.387c2.957-0.524,4.531-2.384,4.531-4.484
		c0-2.621-2.24-4.626-6.438-4.626h-8.396v0.907c2.672,0,3.101,0.57,3.101,3.958v6.105c0,3.387-0.429,4.007-3.101,4.007v0.906h9.491
		v-0.906c-2.667,0-3.099-0.62-3.099-4.007v-1.717h0.81l5.295,6.63h19.604l0.289-4.481h-0.718V261.064z M155.11,257.44v-6.344h1.952
		c2.148,0,3.103,1.479,3.103,3.196c0,1.669-0.954,3.147-3.103,3.147H155.11L155.11,257.44z"/>
	<path fill="#484544" d="M190.072,266.168c-1.908,0-3.577-1-4.294-1.621c-0.239,0.238-0.669,0.954-0.764,1.621h-0.906v-6.58h0.956
		c0.379,3.146,2.573,5.009,5.39,5.009c1.525,0,2.767-0.86,2.767-2.291c0-1.238-1.099-2.194-3.052-3.1l-2.72-1.289
		c-1.91-0.906-3.341-2.48-3.341-4.578c0-2.291,2.148-4.245,5.104-4.245c1.573,0,2.909,0.571,3.723,1.24
		c0.237-0.19,0.475-0.717,0.617-1.29h0.908v5.631h-1.002c-0.335-2.243-1.574-4.103-4.101-4.103c-1.337,0-2.578,0.764-2.578,1.955
		c0,1.24,1.001,1.908,3.292,2.958l2.623,1.287c2.289,1.098,3.193,2.864,3.193,4.295
		C195.889,264.069,193.266,266.168,190.072,266.168z"/>
	<path fill="#484544" d="M204.763,266.168c-1.909,0-3.577-1-4.294-1.621c-0.237,0.238-0.666,0.954-0.762,1.621h-0.906v-6.58h0.952
		c0.383,3.146,2.575,5.009,5.391,5.009c1.525,0,2.769-0.86,2.769-2.291c0-1.238-1.099-2.194-3.056-3.1l-2.718-1.289
		c-1.907-0.906-3.338-2.48-3.338-4.578c0-2.291,2.146-4.245,5.101-4.245c1.576,0,2.912,0.571,3.723,1.24
		c0.238-0.19,0.477-0.717,0.619-1.29h0.907v5.631h-1.003c-0.332-2.243-1.573-4.103-4.101-4.103c-1.334,0-2.576,0.764-2.576,1.955
		c0,1.24,1.002,1.908,3.292,2.958l2.623,1.287c2.288,1.098,3.194,2.864,3.194,4.295C210.58,264.069,207.958,266.168,204.763,266.168
		z"/>
</g>
<g display="none">
	<path display="inline" fill="none" d="M163.638,245.993h-11.54v1.227c3.61,0,4.19,0.771,4.19,5.348v8.25
		c0,4.576-0.58,5.414-4.19,5.414c-2.77-0.385-4.641-1.87-7.218-4.703l-2.966-3.225c3.999-0.71,6.123-3.222,6.123-6.06
		c0-3.542-3.026-6.251-8.701-6.251h-11.343v1.227c3.609,0,4.189,0.771,4.189,5.348v8.25c0,4.576-0.58,5.414-4.189,5.414v1.225
		h12.826v-1.225c-3.61,0-4.188-0.838-4.188-5.414v-2.319h1.096l7.153,8.958h18.758c9.214,0,13.211-4.899,13.211-10.762
		C176.849,250.826,172.852,245.993,163.638,245.993z M136.631,256.499v-8.57h2.64c2.902,0,4.191,1.998,4.191,4.317
		c0,2.256-1.289,4.253-4.191,4.253H136.631L136.631,256.499z M163.83,265.457h-0.45c-2.322,0-2.646-0.576-2.646-3.544v-13.984
		c0,0,2.838,0,3.096,0c6.702,0,7.929,4.896,7.929,8.699C171.759,260.56,170.532,265.457,163.83,265.457z"/>
	<path display="inline" fill="none" d="M92.093,258.886l4.449-13.151c1.291-3.8,0.708-4.896-3.414-4.896v-1.29h12.114v1.29
		c-4.06,0-5.025,0.967-6.639,5.669l-7.346,22.046h-0.839l-6.575-20.176l-6.701,20.176h-0.837l-7.153-22.046
		c-1.549-4.702-2.58-5.669-6.318-5.669v-1.29h14.309v1.29c-3.803,0-4.834,0.9-3.48,4.896l4.318,13.151l6.51-19.337h1.224
		L92.093,258.886z"/>
	<path display="inline" fill="none" d="M114.009,268.293c-7.089,0-12.891-5.221-12.891-11.599c0-6.319,5.802-11.54,12.891-11.54
		s12.89,5.221,12.89,11.54C126.898,263.072,121.098,268.293,114.009,268.293z M114.009,247.153c-5.931,0-7.993,5.349-7.993,9.541
		c0,4.253,2.063,9.537,7.993,9.537c5.994,0,8.056-5.284,8.056-9.537C122.064,252.502,120.003,247.153,114.009,247.153z"/>
	<path display="inline" fill="none" d="M192.77,266.169v1.287h-14.763v-1.287c4.319,0,5.093-1.098,5.093-7.543v-10.312
		c0-6.447-0.773-7.476-5.093-7.476v-1.292h13.342c6.64,0,10.313,3.417,10.313,7.992c0,4.45-3.673,7.929-10.313,7.929h-3.676v3.158
		C187.673,265.071,188.45,266.169,192.77,266.169z M191.349,241.867h-3.676v11.217h3.676c3.611,0,5.286-2.516,5.286-5.545
		C196.635,244.446,194.96,241.867,191.349,241.867z"/>
	<path display="inline" fill="none" d="M245.941,261.396l-0.323,1.16c-0.578,2.129-1.29,2.9-5.868,2.9h-0.899
		c-3.352,0-3.935-0.771-3.935-5.349v-2.964c5.029,0,5.417,0.452,5.417,3.803h1.225v-9.604h-1.225c0,3.352-0.388,3.803-5.417,3.803
		v-7.217h3.549c4.575,0,5.283,0.773,5.863,2.897l0.324,1.228h1.029l-0.449-6.061h-18.949v1.227c3.606,0,4.188,0.771,4.188,5.348
		v8.25c0,4.187-0.492,5.24-3.337,5.39c-2.704-0.412-4.563-1.884-7.104-4.679l-2.965-3.225c3.996-0.71,6.123-3.222,6.123-6.06
		c0-3.542-3.027-6.251-8.699-6.251h-11.346v1.227c3.61,0,4.19,0.771,4.19,5.348v8.25c0,4.576-0.58,5.414-4.19,5.414v1.225h12.826
		v-1.225c-3.605,0-4.188-0.838-4.188-5.414v-2.319h1.095l7.153,8.958h26.489l0.391-6.056h-0.969V261.396z M211.782,256.499v-8.57
		h2.639c2.902,0,4.191,1.998,4.191,4.317c0,2.256-1.289,4.253-4.191,4.253H211.782L211.782,256.499z"/>
	<path display="inline" fill="none" d="M259.024,268.293c-2.578,0-4.834-1.351-5.802-2.19c-0.323,0.322-0.903,1.288-1.032,2.19
		h-1.225v-8.892h1.291c0.514,4.251,3.478,6.768,7.284,6.768c2.061,0,3.737-1.161,3.737-3.095c0-1.674-1.484-2.966-4.123-4.188
		l-3.675-1.741c-2.581-1.226-4.515-3.353-4.515-6.187c0-3.097,2.902-5.736,6.898-5.736c2.126,0,3.93,0.771,5.029,1.676
		c0.32-0.258,0.642-0.969,0.834-1.743h1.228v7.608h-1.354c-0.454-3.031-2.127-5.543-5.542-5.543c-1.807,0-3.483,1.031-3.483,2.641
		c0,1.676,1.354,2.578,4.448,3.997l3.545,1.739c3.093,1.483,4.314,3.87,4.314,5.804C266.884,265.457,263.34,268.293,259.024,268.293
		z"/>
	<path display="inline" fill="none" d="M278.875,268.293c-2.58,0-4.833-1.351-5.802-2.19c-0.321,0.322-0.901,1.288-1.029,2.19
		h-1.226v-8.892h1.287c0.517,4.251,3.48,6.768,7.284,6.768c2.062,0,3.741-1.161,3.741-3.095c0-1.674-1.484-2.966-4.129-4.188
		l-3.673-1.741c-2.577-1.226-4.511-3.353-4.511-6.187c0-3.097,2.899-5.736,6.894-5.736c2.129,0,3.935,0.771,5.029,1.676
		c0.321-0.258,0.644-0.969,0.837-1.743h1.226v7.608h-1.354c-0.449-3.031-2.126-5.543-5.542-5.543c-1.803,0-3.48,1.031-3.48,2.641
		c0,1.676,1.354,2.578,4.448,3.997l3.544,1.739c3.093,1.483,4.317,3.87,4.317,5.804
		C286.736,265.457,283.192,268.293,278.875,268.293z"/>
</g>
</svg>
